%TF.GenerationSoftware,KiCad,Pcbnew,5.1.10-88a1d61d58~90~ubuntu20.04.1*%
%TF.CreationDate,2021-10-29T09:45:40+02:00*%
%TF.ProjectId,GameboyReader,47616d65-626f-4795-9265-616465722e6b,rev?*%
%TF.SameCoordinates,Original*%
%TF.FileFunction,Legend,Bot*%
%TF.FilePolarity,Positive*%
%FSLAX46Y46*%
G04 Gerber Fmt 4.6, Leading zero omitted, Abs format (unit mm)*
G04 Created by KiCad (PCBNEW 5.1.10-88a1d61d58~90~ubuntu20.04.1) date 2021-10-29 09:45:40*
%MOMM*%
%LPD*%
G01*
G04 APERTURE LIST*
%ADD10C,0.150000*%
G04 APERTURE END LIST*
D10*
X189023809Y-147428571D02*
X189357142Y-147428571D01*
X189357142Y-147952380D02*
X189357142Y-146952380D01*
X188880952Y-146952380D01*
X188500000Y-147952380D02*
X188500000Y-147285714D01*
X188500000Y-146952380D02*
X188547619Y-147000000D01*
X188500000Y-147047619D01*
X188452380Y-147000000D01*
X188500000Y-146952380D01*
X188500000Y-147047619D01*
X188023809Y-147285714D02*
X188023809Y-147952380D01*
X188023809Y-147380952D02*
X187976190Y-147333333D01*
X187880952Y-147285714D01*
X187738095Y-147285714D01*
X187642857Y-147333333D01*
X187595238Y-147428571D01*
X187595238Y-147952380D01*
X186690476Y-147952380D02*
X186690476Y-146952380D01*
X186690476Y-147904761D02*
X186785714Y-147952380D01*
X186976190Y-147952380D01*
X187071428Y-147904761D01*
X187119047Y-147857142D01*
X187166666Y-147761904D01*
X187166666Y-147476190D01*
X187119047Y-147380952D01*
X187071428Y-147333333D01*
X186976190Y-147285714D01*
X186785714Y-147285714D01*
X186690476Y-147333333D01*
X185452380Y-147952380D02*
X185452380Y-147285714D01*
X185452380Y-147380952D02*
X185404761Y-147333333D01*
X185309523Y-147285714D01*
X185166666Y-147285714D01*
X185071428Y-147333333D01*
X185023809Y-147428571D01*
X185023809Y-147952380D01*
X185023809Y-147428571D02*
X184976190Y-147333333D01*
X184880952Y-147285714D01*
X184738095Y-147285714D01*
X184642857Y-147333333D01*
X184595238Y-147428571D01*
X184595238Y-147952380D01*
X183976190Y-147952380D02*
X184071428Y-147904761D01*
X184119047Y-147857142D01*
X184166666Y-147761904D01*
X184166666Y-147476190D01*
X184119047Y-147380952D01*
X184071428Y-147333333D01*
X183976190Y-147285714D01*
X183833333Y-147285714D01*
X183738095Y-147333333D01*
X183690476Y-147380952D01*
X183642857Y-147476190D01*
X183642857Y-147761904D01*
X183690476Y-147857142D01*
X183738095Y-147904761D01*
X183833333Y-147952380D01*
X183976190Y-147952380D01*
X183214285Y-147952380D02*
X183214285Y-147285714D01*
X183214285Y-147476190D02*
X183166666Y-147380952D01*
X183119047Y-147333333D01*
X183023809Y-147285714D01*
X182928571Y-147285714D01*
X182214285Y-147904761D02*
X182309523Y-147952380D01*
X182500000Y-147952380D01*
X182595238Y-147904761D01*
X182642857Y-147809523D01*
X182642857Y-147428571D01*
X182595238Y-147333333D01*
X182500000Y-147285714D01*
X182309523Y-147285714D01*
X182214285Y-147333333D01*
X182166666Y-147428571D01*
X182166666Y-147523809D01*
X182642857Y-147619047D01*
X180547619Y-147952380D02*
X180547619Y-147428571D01*
X180595238Y-147333333D01*
X180690476Y-147285714D01*
X180880952Y-147285714D01*
X180976190Y-147333333D01*
X180547619Y-147904761D02*
X180642857Y-147952380D01*
X180880952Y-147952380D01*
X180976190Y-147904761D01*
X181023809Y-147809523D01*
X181023809Y-147714285D01*
X180976190Y-147619047D01*
X180880952Y-147571428D01*
X180642857Y-147571428D01*
X180547619Y-147523809D01*
X180214285Y-147285714D02*
X179833333Y-147285714D01*
X180071428Y-146952380D02*
X180071428Y-147809523D01*
X180023809Y-147904761D01*
X179928571Y-147952380D01*
X179833333Y-147952380D01*
X178738095Y-147857142D02*
X178690476Y-147904761D01*
X178738095Y-147952380D01*
X178785714Y-147904761D01*
X178738095Y-147857142D01*
X178738095Y-147952380D01*
X178738095Y-147333333D02*
X178690476Y-147380952D01*
X178738095Y-147428571D01*
X178785714Y-147380952D01*
X178738095Y-147333333D01*
X178738095Y-147428571D01*
X177500000Y-147952380D02*
X177500000Y-146952380D01*
X177071428Y-147952380D02*
X177071428Y-147428571D01*
X177119047Y-147333333D01*
X177214285Y-147285714D01*
X177357142Y-147285714D01*
X177452380Y-147333333D01*
X177500000Y-147380952D01*
X176738095Y-147285714D02*
X176357142Y-147285714D01*
X176595238Y-146952380D02*
X176595238Y-147809523D01*
X176547619Y-147904761D01*
X176452380Y-147952380D01*
X176357142Y-147952380D01*
X176166666Y-147285714D02*
X175785714Y-147285714D01*
X176023809Y-146952380D02*
X176023809Y-147809523D01*
X175976190Y-147904761D01*
X175880952Y-147952380D01*
X175785714Y-147952380D01*
X175452380Y-147285714D02*
X175452380Y-148285714D01*
X175452380Y-147333333D02*
X175357142Y-147285714D01*
X175166666Y-147285714D01*
X175071428Y-147333333D01*
X175023809Y-147380952D01*
X174976190Y-147476190D01*
X174976190Y-147761904D01*
X175023809Y-147857142D01*
X175071428Y-147904761D01*
X175166666Y-147952380D01*
X175357142Y-147952380D01*
X175452380Y-147904761D01*
X174595238Y-147904761D02*
X174500000Y-147952380D01*
X174309523Y-147952380D01*
X174214285Y-147904761D01*
X174166666Y-147809523D01*
X174166666Y-147761904D01*
X174214285Y-147666666D01*
X174309523Y-147619047D01*
X174452380Y-147619047D01*
X174547619Y-147571428D01*
X174595238Y-147476190D01*
X174595238Y-147428571D01*
X174547619Y-147333333D01*
X174452380Y-147285714D01*
X174309523Y-147285714D01*
X174214285Y-147333333D01*
X173738095Y-147857142D02*
X173690476Y-147904761D01*
X173738095Y-147952380D01*
X173785714Y-147904761D01*
X173738095Y-147857142D01*
X173738095Y-147952380D01*
X173738095Y-147333333D02*
X173690476Y-147380952D01*
X173738095Y-147428571D01*
X173785714Y-147380952D01*
X173738095Y-147333333D01*
X173738095Y-147428571D01*
X172547619Y-146904761D02*
X173404761Y-148190476D01*
X171500000Y-146904761D02*
X172357142Y-148190476D01*
X170738095Y-147285714D02*
X170738095Y-148095238D01*
X170785714Y-148190476D01*
X170833333Y-148238095D01*
X170928571Y-148285714D01*
X171071428Y-148285714D01*
X171166666Y-148238095D01*
X170738095Y-147904761D02*
X170833333Y-147952380D01*
X171023809Y-147952380D01*
X171119047Y-147904761D01*
X171166666Y-147857142D01*
X171214285Y-147761904D01*
X171214285Y-147476190D01*
X171166666Y-147380952D01*
X171119047Y-147333333D01*
X171023809Y-147285714D01*
X170833333Y-147285714D01*
X170738095Y-147333333D01*
X170261904Y-147952380D02*
X170261904Y-147285714D01*
X170261904Y-146952380D02*
X170309523Y-147000000D01*
X170261904Y-147047619D01*
X170214285Y-147000000D01*
X170261904Y-146952380D01*
X170261904Y-147047619D01*
X169928571Y-147285714D02*
X169547619Y-147285714D01*
X169785714Y-146952380D02*
X169785714Y-147809523D01*
X169738095Y-147904761D01*
X169642857Y-147952380D01*
X169547619Y-147952380D01*
X169214285Y-147952380D02*
X169214285Y-146952380D01*
X168785714Y-147952380D02*
X168785714Y-147428571D01*
X168833333Y-147333333D01*
X168928571Y-147285714D01*
X169071428Y-147285714D01*
X169166666Y-147333333D01*
X169214285Y-147380952D01*
X167880952Y-147285714D02*
X167880952Y-147952380D01*
X168309523Y-147285714D02*
X168309523Y-147809523D01*
X168261904Y-147904761D01*
X168166666Y-147952380D01*
X168023809Y-147952380D01*
X167928571Y-147904761D01*
X167880952Y-147857142D01*
X167404761Y-147952380D02*
X167404761Y-146952380D01*
X167404761Y-147333333D02*
X167309523Y-147285714D01*
X167119047Y-147285714D01*
X167023809Y-147333333D01*
X166976190Y-147380952D01*
X166928571Y-147476190D01*
X166928571Y-147761904D01*
X166976190Y-147857142D01*
X167023809Y-147904761D01*
X167119047Y-147952380D01*
X167309523Y-147952380D01*
X167404761Y-147904761D01*
X166500000Y-147857142D02*
X166452380Y-147904761D01*
X166500000Y-147952380D01*
X166547619Y-147904761D01*
X166500000Y-147857142D01*
X166500000Y-147952380D01*
X165595238Y-147904761D02*
X165690476Y-147952380D01*
X165880952Y-147952380D01*
X165976190Y-147904761D01*
X166023809Y-147857142D01*
X166071428Y-147761904D01*
X166071428Y-147476190D01*
X166023809Y-147380952D01*
X165976190Y-147333333D01*
X165880952Y-147285714D01*
X165690476Y-147285714D01*
X165595238Y-147333333D01*
X165023809Y-147952380D02*
X165119047Y-147904761D01*
X165166666Y-147857142D01*
X165214285Y-147761904D01*
X165214285Y-147476190D01*
X165166666Y-147380952D01*
X165119047Y-147333333D01*
X165023809Y-147285714D01*
X164880952Y-147285714D01*
X164785714Y-147333333D01*
X164738095Y-147380952D01*
X164690476Y-147476190D01*
X164690476Y-147761904D01*
X164738095Y-147857142D01*
X164785714Y-147904761D01*
X164880952Y-147952380D01*
X165023809Y-147952380D01*
X164261904Y-147952380D02*
X164261904Y-147285714D01*
X164261904Y-147380952D02*
X164214285Y-147333333D01*
X164119047Y-147285714D01*
X163976190Y-147285714D01*
X163880952Y-147333333D01*
X163833333Y-147428571D01*
X163833333Y-147952380D01*
X163833333Y-147428571D02*
X163785714Y-147333333D01*
X163690476Y-147285714D01*
X163547619Y-147285714D01*
X163452380Y-147333333D01*
X163404761Y-147428571D01*
X163404761Y-147952380D01*
X162214285Y-146904761D02*
X163071428Y-148190476D01*
X161309523Y-147857142D02*
X161357142Y-147904761D01*
X161500000Y-147952380D01*
X161595238Y-147952380D01*
X161738095Y-147904761D01*
X161833333Y-147809523D01*
X161880952Y-147714285D01*
X161928571Y-147523809D01*
X161928571Y-147380952D01*
X161880952Y-147190476D01*
X161833333Y-147095238D01*
X161738095Y-147000000D01*
X161595238Y-146952380D01*
X161500000Y-146952380D01*
X161357142Y-147000000D01*
X161309523Y-147047619D01*
X160738095Y-147952380D02*
X160833333Y-147904761D01*
X160880952Y-147809523D01*
X160880952Y-146952380D01*
X160214285Y-147952380D02*
X160309523Y-147904761D01*
X160357142Y-147857142D01*
X160404761Y-147761904D01*
X160404761Y-147476190D01*
X160357142Y-147380952D01*
X160309523Y-147333333D01*
X160214285Y-147285714D01*
X160071428Y-147285714D01*
X159976190Y-147333333D01*
X159928571Y-147380952D01*
X159880952Y-147476190D01*
X159880952Y-147761904D01*
X159928571Y-147857142D01*
X159976190Y-147904761D01*
X160071428Y-147952380D01*
X160214285Y-147952380D01*
X159595238Y-147285714D02*
X159214285Y-147285714D01*
X159452380Y-146952380D02*
X159452380Y-147809523D01*
X159404761Y-147904761D01*
X159309523Y-147952380D01*
X159214285Y-147952380D01*
X158880952Y-147952380D02*
X158880952Y-147285714D01*
X158880952Y-146952380D02*
X158928571Y-147000000D01*
X158880952Y-147047619D01*
X158833333Y-147000000D01*
X158880952Y-146952380D01*
X158880952Y-147047619D01*
X158261904Y-147952380D02*
X158357142Y-147904761D01*
X158404761Y-147809523D01*
X158404761Y-146952380D01*
X157452380Y-147952380D02*
X157452380Y-146952380D01*
X157452380Y-147904761D02*
X157547619Y-147952380D01*
X157738095Y-147952380D01*
X157833333Y-147904761D01*
X157880952Y-147857142D01*
X157928571Y-147761904D01*
X157928571Y-147476190D01*
X157880952Y-147380952D01*
X157833333Y-147333333D01*
X157738095Y-147285714D01*
X157547619Y-147285714D01*
X157452380Y-147333333D01*
X156595238Y-147904761D02*
X156690476Y-147952380D01*
X156880952Y-147952380D01*
X156976190Y-147904761D01*
X157023809Y-147809523D01*
X157023809Y-147428571D01*
X156976190Y-147333333D01*
X156880952Y-147285714D01*
X156690476Y-147285714D01*
X156595238Y-147333333D01*
X156547619Y-147428571D01*
X156547619Y-147523809D01*
X157023809Y-147619047D01*
X155976190Y-147952380D02*
X156071428Y-147904761D01*
X156119047Y-147809523D01*
X156119047Y-146952380D01*
X155214285Y-147904761D02*
X155309523Y-147952380D01*
X155500000Y-147952380D01*
X155595238Y-147904761D01*
X155642857Y-147809523D01*
X155642857Y-147428571D01*
X155595238Y-147333333D01*
X155500000Y-147285714D01*
X155309523Y-147285714D01*
X155214285Y-147333333D01*
X155166666Y-147428571D01*
X155166666Y-147523809D01*
X155642857Y-147619047D01*
X154833333Y-147285714D02*
X154595238Y-147952380D01*
X154357142Y-147285714D01*
X153833333Y-147952380D02*
X153928571Y-147904761D01*
X153976190Y-147857142D01*
X154023809Y-147761904D01*
X154023809Y-147476190D01*
X153976190Y-147380952D01*
X153928571Y-147333333D01*
X153833333Y-147285714D01*
X153690476Y-147285714D01*
X153595238Y-147333333D01*
X153547619Y-147380952D01*
X153500000Y-147476190D01*
X153500000Y-147761904D01*
X153547619Y-147857142D01*
X153595238Y-147904761D01*
X153690476Y-147952380D01*
X153833333Y-147952380D01*
X152642857Y-147285714D02*
X152642857Y-147952380D01*
X153071428Y-147285714D02*
X153071428Y-147809523D01*
X153023809Y-147904761D01*
X152928571Y-147952380D01*
X152785714Y-147952380D01*
X152690476Y-147904761D01*
X152642857Y-147857142D01*
M02*
