%TF.GenerationSoftware,KiCad,Pcbnew,5.1.10-88a1d61d58~90~ubuntu20.04.1*%
%TF.CreationDate,2021-10-29T09:45:40+02:00*%
%TF.ProjectId,GameboyReader,47616d65-626f-4795-9265-616465722e6b,rev?*%
%TF.SameCoordinates,Original*%
%TF.FileFunction,Soldermask,Bot*%
%TF.FilePolarity,Negative*%
%FSLAX46Y46*%
G04 Gerber Fmt 4.6, Leading zero omitted, Abs format (unit mm)*
G04 Created by KiCad (PCBNEW 5.1.10-88a1d61d58~90~ubuntu20.04.1) date 2021-10-29 09:45:40*
%MOMM*%
%LPD*%
G01*
G04 APERTURE LIST*
%ADD10C,5.600000*%
%ADD11C,2.000000*%
%ADD12O,1.600000X1.600000*%
%ADD13R,1.600000X1.600000*%
G04 APERTURE END LIST*
D10*
%TO.C,REF\u002A\u002A*%
X109000000Y-79000000D03*
%TD*%
%TO.C,REF\u002A\u002A*%
X193000000Y-79000000D03*
%TD*%
%TO.C,REF\u002A\u002A*%
X194000000Y-146000000D03*
%TD*%
%TO.C,REF\u002A\u002A*%
X109000000Y-146000000D03*
%TD*%
D11*
%TO.C,J1*%
X119300000Y-126250000D03*
X119300000Y-100250000D03*
%TD*%
D12*
%TO.C,U2*%
X149420000Y-105000000D03*
X167200000Y-115160000D03*
X151960000Y-105000000D03*
X164660000Y-115160000D03*
X154500000Y-105000000D03*
X162120000Y-115160000D03*
X157040000Y-105000000D03*
X159580000Y-115160000D03*
X159580000Y-105000000D03*
X157040000Y-115160000D03*
X162120000Y-105000000D03*
X154500000Y-115160000D03*
X164660000Y-105000000D03*
X151960000Y-115160000D03*
X167200000Y-105000000D03*
D13*
X149420000Y-115160000D03*
%TD*%
%TO.C,A1*%
X135500000Y-96500000D03*
D12*
X168520000Y-81260000D03*
X138040000Y-96500000D03*
X165980000Y-81260000D03*
X140580000Y-96500000D03*
X163440000Y-81260000D03*
X143120000Y-96500000D03*
X160900000Y-81260000D03*
X145660000Y-96500000D03*
X158360000Y-81260000D03*
X148200000Y-96500000D03*
X155820000Y-81260000D03*
X150740000Y-96500000D03*
X153280000Y-81260000D03*
X153280000Y-96500000D03*
X150740000Y-81260000D03*
X155820000Y-96500000D03*
X148200000Y-81260000D03*
X158360000Y-96500000D03*
X145660000Y-81260000D03*
X160900000Y-96500000D03*
X143120000Y-81260000D03*
X163440000Y-96500000D03*
X140580000Y-81260000D03*
X165980000Y-96500000D03*
X138040000Y-81260000D03*
X168520000Y-96500000D03*
X135500000Y-81260000D03*
X171060000Y-96500000D03*
X171060000Y-81260000D03*
%TD*%
D13*
%TO.C,U1*%
X175500000Y-128000000D03*
D12*
X193280000Y-117840000D03*
X178040000Y-128000000D03*
X190740000Y-117840000D03*
X180580000Y-128000000D03*
X188200000Y-117840000D03*
X183120000Y-128000000D03*
X185660000Y-117840000D03*
X185660000Y-128000000D03*
X183120000Y-117840000D03*
X188200000Y-128000000D03*
X180580000Y-117840000D03*
X190740000Y-128000000D03*
X178040000Y-117840000D03*
X193280000Y-128000000D03*
X175500000Y-117840000D03*
%TD*%
M02*
