M48
INCH,TZ
T1C0.0157
T2C0.0315
T3C0.0394
T4C0.1260
%
G90
G05
T1
X47638Y-36614
X48819Y-35433
X50591Y-34646
X51181Y-35827
X51378Y-41535
X52756Y-51772
X55300Y-46048
X56299Y-35039
X57874Y-35236
X61614Y-33071
X67126Y-39764
X67126Y-41339
X67520Y-46063
X69291Y-31890
X71087Y-42386
T2
X58827Y-41339
X58827Y-45339
X59827Y-41339
X59827Y-45339
X60827Y-41339
X60827Y-45339
X61827Y-41339
X61827Y-45339
X62827Y-41339
X62827Y-45339
X63827Y-41339
X63827Y-45339
X64827Y-41339
X64827Y-45339
X65827Y-41339
X65827Y-45339
X69094Y-46394
X69094Y-50394
X70094Y-46394
X70094Y-50394
X71094Y-46394
X71094Y-50394
X72094Y-46394
X72094Y-50394
X73094Y-46394
X73094Y-50394
X74094Y-46394
X74094Y-50394
X75094Y-46394
X75094Y-50394
X76094Y-46394
X76094Y-50394
T3
X53346Y-31992
X53346Y-37992
X54346Y-31992
X54346Y-37992
X55346Y-31992
X55346Y-37992
X56346Y-31992
X56346Y-37992
X57346Y-31992
X57346Y-37992
X58346Y-31992
X58346Y-37992
X59346Y-31992
X59346Y-37992
X60346Y-31992
X60346Y-37992
X61346Y-31992
X61346Y-37992
X62346Y-31992
X62346Y-37992
X63346Y-31992
X63346Y-37992
X64346Y-31992
X64346Y-37992
X65346Y-31992
X65346Y-37992
X66346Y-31992
X66346Y-37992
X67346Y-31992
X67346Y-37992
T4
X42913Y-31102
X42913Y-57480
X75984Y-31102
X76378Y-57480
T0
M30
