%TF.GenerationSoftware,KiCad,Pcbnew,5.1.10-88a1d61d58~90~ubuntu20.04.1*%
%TF.CreationDate,2021-10-29T09:45:40+02:00*%
%TF.ProjectId,GameboyReader,47616d65-626f-4795-9265-616465722e6b,rev?*%
%TF.SameCoordinates,Original*%
%TF.FileFunction,Copper,L1,Top*%
%TF.FilePolarity,Positive*%
%FSLAX46Y46*%
G04 Gerber Fmt 4.6, Leading zero omitted, Abs format (unit mm)*
G04 Created by KiCad (PCBNEW 5.1.10-88a1d61d58~90~ubuntu20.04.1) date 2021-10-29 09:45:40*
%MOMM*%
%LPD*%
G01*
G04 APERTURE LIST*
%TA.AperFunction,ComponentPad*%
%ADD10C,5.600000*%
%TD*%
%TA.AperFunction,SMDPad,CuDef*%
%ADD11R,2.500000X0.850000*%
%TD*%
%TA.AperFunction,SMDPad,CuDef*%
%ADD12R,2.500000X4.500000*%
%TD*%
%TA.AperFunction,ComponentPad*%
%ADD13O,1.600000X1.600000*%
%TD*%
%TA.AperFunction,ComponentPad*%
%ADD14R,1.600000X1.600000*%
%TD*%
%TA.AperFunction,ViaPad*%
%ADD15C,0.800000*%
%TD*%
%TA.AperFunction,Conductor*%
%ADD16C,0.250000*%
%TD*%
%TA.AperFunction,Conductor*%
%ADD17C,0.254000*%
%TD*%
%TA.AperFunction,Conductor*%
%ADD18C,0.100000*%
%TD*%
G04 APERTURE END LIST*
D10*
%TO.P,REF\u002A\u002A,1*%
%TO.N,GND*%
X109000000Y-79000000D03*
%TD*%
%TO.P,REF\u002A\u002A,1*%
%TO.N,GND*%
X193000000Y-79000000D03*
%TD*%
%TO.P,REF\u002A\u002A,1*%
%TO.N,GND*%
X194000000Y-146000000D03*
%TD*%
%TO.P,REF\u002A\u002A,1*%
%TO.N,GND*%
X109000000Y-146000000D03*
%TD*%
D11*
%TO.P,J1,1*%
%TO.N,+5V*%
X126750000Y-136258000D03*
%TO.P,J1,2*%
%TO.N,GND*%
X126750000Y-134774000D03*
%TO.P,J1,4*%
%TO.N,Net-(J1-Pad4)*%
X126750000Y-131804000D03*
%TO.P,J1,5*%
%TO.N,Net-(J1-Pad5)*%
X126750000Y-130320000D03*
%TO.P,J1,6*%
%TO.N,Net-(J1-Pad6)*%
X126750000Y-128835000D03*
%TO.P,J1,7*%
%TO.N,Net-(J1-Pad7)*%
X126750000Y-127354000D03*
%TO.P,J1,8*%
%TO.N,Net-(J1-Pad8)*%
X126750000Y-125867000D03*
%TO.P,J1,9*%
%TO.N,Net-(J1-Pad9)*%
X126750000Y-124382000D03*
%TO.P,J1,10*%
%TO.N,Net-(J1-Pad10)*%
X126750000Y-122898000D03*
%TO.P,J1,11*%
%TO.N,Net-(J1-Pad11)*%
X126750000Y-121413000D03*
%TO.P,J1,12*%
%TO.N,Net-(J1-Pad12)*%
X126750000Y-119930000D03*
%TO.P,J1,13*%
%TO.N,Net-(J1-Pad13)*%
X126750000Y-118445000D03*
%TO.P,J1,14*%
%TO.N,Net-(J1-Pad14)*%
X126750000Y-116961000D03*
%TO.P,J1,15*%
%TO.N,Net-(J1-Pad15)*%
X126750000Y-115477000D03*
%TO.P,J1,16*%
%TO.N,Net-(J1-Pad16)*%
X126750000Y-113991000D03*
%TO.P,J1,17*%
%TO.N,Net-(J1-Pad17)*%
X126750000Y-112508000D03*
%TO.P,J1,18*%
%TO.N,Net-(J1-Pad18)*%
X126750000Y-111023000D03*
%TO.P,J1,19*%
%TO.N,Net-(J1-Pad19)*%
X126750000Y-109539000D03*
%TO.P,J1,20*%
%TO.N,Net-(J1-Pad20)*%
X126750000Y-108055000D03*
%TO.P,J1,21*%
%TO.N,Net-(J1-Pad21)*%
X126750000Y-106569000D03*
%TO.P,J1,3*%
%TO.N,Net-(J1-Pad3)*%
X126750000Y-133289000D03*
%TO.P,J1,22*%
%TO.N,Net-(A1-Pad5)*%
X126750000Y-105086000D03*
%TO.P,J1,23*%
%TO.N,Net-(A1-Pad6)*%
X126750000Y-103603000D03*
%TO.P,J1,24*%
%TO.N,Net-(A1-Pad7)*%
X126750000Y-102117000D03*
%TO.P,J1,25*%
%TO.N,Net-(A1-Pad8)*%
X126750000Y-100633000D03*
%TO.P,J1,26*%
%TO.N,Net-(A1-Pad9)*%
X126750000Y-99148000D03*
%TO.P,J1,27*%
%TO.N,Net-(A1-Pad10)*%
X126750000Y-97664000D03*
%TO.P,J1,28*%
%TO.N,Net-(A1-Pad11)*%
X126750000Y-96181000D03*
%TO.P,J1,29*%
%TO.N,Net-(A1-Pad12)*%
X126750000Y-94695000D03*
%TO.P,J1,30*%
%TO.N,Net-(J1-Pad30)*%
X126750000Y-93212000D03*
%TO.P,J1,31*%
%TO.N,N/C*%
X126750000Y-91727000D03*
%TO.P,J1,32*%
%TO.N,GND*%
X126750000Y-90242000D03*
D12*
%TO.P,J1,*%
%TO.N,*%
X106249000Y-100250000D03*
X106249000Y-126251000D03*
%TD*%
%TO.P,R20,2*%
%TO.N,+5V*%
%TA.AperFunction,SMDPad,CuDef*%
G36*
G01*
X174225000Y-101425000D02*
X174775000Y-101425000D01*
G75*
G02*
X174975000Y-101625000I0J-200000D01*
G01*
X174975000Y-102025000D01*
G75*
G02*
X174775000Y-102225000I-200000J0D01*
G01*
X174225000Y-102225000D01*
G75*
G02*
X174025000Y-102025000I0J200000D01*
G01*
X174025000Y-101625000D01*
G75*
G02*
X174225000Y-101425000I200000J0D01*
G01*
G37*
%TD.AperFunction*%
%TO.P,R20,1*%
%TO.N,Net-(J1-Pad30)*%
%TA.AperFunction,SMDPad,CuDef*%
G36*
G01*
X174225000Y-99775000D02*
X174775000Y-99775000D01*
G75*
G02*
X174975000Y-99975000I0J-200000D01*
G01*
X174975000Y-100375000D01*
G75*
G02*
X174775000Y-100575000I-200000J0D01*
G01*
X174225000Y-100575000D01*
G75*
G02*
X174025000Y-100375000I0J200000D01*
G01*
X174025000Y-99975000D01*
G75*
G02*
X174225000Y-99775000I200000J0D01*
G01*
G37*
%TD.AperFunction*%
%TD*%
D13*
%TO.P,U2,16*%
%TO.N,+5V*%
X149420000Y-105000000D03*
%TO.P,U2,8*%
%TO.N,GND*%
X167200000Y-115160000D03*
%TO.P,U2,15*%
%TO.N,Net-(J1-Pad14)*%
X151960000Y-105000000D03*
%TO.P,U2,7*%
%TO.N,Net-(J1-Pad21)*%
X164660000Y-115160000D03*
%TO.P,U2,14*%
%TO.N,Net-(U1-Pad9)*%
X154500000Y-105000000D03*
%TO.P,U2,6*%
%TO.N,Net-(J1-Pad20)*%
X162120000Y-115160000D03*
%TO.P,U2,13*%
%TO.N,GND*%
X157040000Y-105000000D03*
%TO.P,U2,5*%
%TO.N,Net-(J1-Pad19)*%
X159580000Y-115160000D03*
%TO.P,U2,12*%
%TO.N,/RCK*%
X159580000Y-105000000D03*
%TO.P,U2,4*%
%TO.N,Net-(J1-Pad18)*%
X157040000Y-115160000D03*
%TO.P,U2,11*%
%TO.N,/SCK*%
X162120000Y-105000000D03*
%TO.P,U2,3*%
%TO.N,Net-(J1-Pad17)*%
X154500000Y-115160000D03*
%TO.P,U2,10*%
%TO.N,+5V*%
X164660000Y-105000000D03*
%TO.P,U2,2*%
%TO.N,Net-(J1-Pad16)*%
X151960000Y-115160000D03*
%TO.P,U2,9*%
%TO.N,N/C*%
X167200000Y-105000000D03*
D14*
%TO.P,U2,1*%
%TO.N,Net-(J1-Pad15)*%
X149420000Y-115160000D03*
%TD*%
%TO.P,A1,1*%
%TO.N,N/C*%
X135500000Y-96500000D03*
D13*
%TO.P,A1,17*%
X168520000Y-81260000D03*
%TO.P,A1,2*%
X138040000Y-96500000D03*
%TO.P,A1,18*%
X165980000Y-81260000D03*
%TO.P,A1,3*%
X140580000Y-96500000D03*
%TO.P,A1,19*%
X163440000Y-81260000D03*
%TO.P,A1,4*%
%TO.N,GND*%
X143120000Y-96500000D03*
%TO.P,A1,20*%
%TO.N,N/C*%
X160900000Y-81260000D03*
%TO.P,A1,5*%
%TO.N,Net-(A1-Pad5)*%
X145660000Y-96500000D03*
%TO.P,A1,21*%
%TO.N,N/C*%
X158360000Y-81260000D03*
%TO.P,A1,6*%
%TO.N,Net-(A1-Pad6)*%
X148200000Y-96500000D03*
%TO.P,A1,22*%
%TO.N,/CLK*%
X155820000Y-81260000D03*
%TO.P,A1,7*%
%TO.N,Net-(A1-Pad7)*%
X150740000Y-96500000D03*
%TO.P,A1,23*%
%TO.N,/RD*%
X153280000Y-81260000D03*
%TO.P,A1,8*%
%TO.N,Net-(A1-Pad8)*%
X153280000Y-96500000D03*
%TO.P,A1,24*%
%TO.N,/WR*%
X150740000Y-81260000D03*
%TO.P,A1,9*%
%TO.N,Net-(A1-Pad9)*%
X155820000Y-96500000D03*
%TO.P,A1,25*%
%TO.N,N/C*%
X148200000Y-81260000D03*
%TO.P,A1,10*%
%TO.N,Net-(A1-Pad10)*%
X158360000Y-96500000D03*
%TO.P,A1,26*%
%TO.N,N/C*%
X145660000Y-81260000D03*
%TO.P,A1,11*%
%TO.N,Net-(A1-Pad11)*%
X160900000Y-96500000D03*
%TO.P,A1,27*%
%TO.N,+5V*%
X143120000Y-81260000D03*
%TO.P,A1,12*%
%TO.N,Net-(A1-Pad12)*%
X163440000Y-96500000D03*
%TO.P,A1,28*%
%TO.N,N/C*%
X140580000Y-81260000D03*
%TO.P,A1,13*%
%TO.N,/RCK*%
X165980000Y-96500000D03*
%TO.P,A1,29*%
%TO.N,GND*%
X138040000Y-81260000D03*
%TO.P,A1,14*%
%TO.N,/SER*%
X168520000Y-96500000D03*
%TO.P,A1,30*%
%TO.N,N/C*%
X135500000Y-81260000D03*
%TO.P,A1,15*%
%TO.N,/SCK*%
X171060000Y-96500000D03*
%TO.P,A1,16*%
%TO.N,N/C*%
X171060000Y-81260000D03*
%TD*%
%TO.P,R17,1*%
%TO.N,Net-(J1-Pad3)*%
%TA.AperFunction,SMDPad,CuDef*%
G36*
G01*
X127775000Y-86275000D02*
X127775000Y-85725000D01*
G75*
G02*
X127975000Y-85525000I200000J0D01*
G01*
X128375000Y-85525000D01*
G75*
G02*
X128575000Y-85725000I0J-200000D01*
G01*
X128575000Y-86275000D01*
G75*
G02*
X128375000Y-86475000I-200000J0D01*
G01*
X127975000Y-86475000D01*
G75*
G02*
X127775000Y-86275000I0J200000D01*
G01*
G37*
%TD.AperFunction*%
%TO.P,R17,2*%
%TO.N,/CLK*%
%TA.AperFunction,SMDPad,CuDef*%
G36*
G01*
X129425000Y-86275000D02*
X129425000Y-85725000D01*
G75*
G02*
X129625000Y-85525000I200000J0D01*
G01*
X130025000Y-85525000D01*
G75*
G02*
X130225000Y-85725000I0J-200000D01*
G01*
X130225000Y-86275000D01*
G75*
G02*
X130025000Y-86475000I-200000J0D01*
G01*
X129625000Y-86475000D01*
G75*
G02*
X129425000Y-86275000I0J200000D01*
G01*
G37*
%TD.AperFunction*%
%TD*%
%TO.P,R18,2*%
%TO.N,/WR*%
%TA.AperFunction,SMDPad,CuDef*%
G36*
G01*
X129425000Y-83275000D02*
X129425000Y-82725000D01*
G75*
G02*
X129625000Y-82525000I200000J0D01*
G01*
X130025000Y-82525000D01*
G75*
G02*
X130225000Y-82725000I0J-200000D01*
G01*
X130225000Y-83275000D01*
G75*
G02*
X130025000Y-83475000I-200000J0D01*
G01*
X129625000Y-83475000D01*
G75*
G02*
X129425000Y-83275000I0J200000D01*
G01*
G37*
%TD.AperFunction*%
%TO.P,R18,1*%
%TO.N,Net-(J1-Pad4)*%
%TA.AperFunction,SMDPad,CuDef*%
G36*
G01*
X127775000Y-83275000D02*
X127775000Y-82725000D01*
G75*
G02*
X127975000Y-82525000I200000J0D01*
G01*
X128375000Y-82525000D01*
G75*
G02*
X128575000Y-82725000I0J-200000D01*
G01*
X128575000Y-83275000D01*
G75*
G02*
X128375000Y-83475000I-200000J0D01*
G01*
X127975000Y-83475000D01*
G75*
G02*
X127775000Y-83275000I0J200000D01*
G01*
G37*
%TD.AperFunction*%
%TD*%
%TO.P,R19,1*%
%TO.N,/RD*%
%TA.AperFunction,SMDPad,CuDef*%
G36*
G01*
X130225000Y-84225000D02*
X130225000Y-84775000D01*
G75*
G02*
X130025000Y-84975000I-200000J0D01*
G01*
X129625000Y-84975000D01*
G75*
G02*
X129425000Y-84775000I0J200000D01*
G01*
X129425000Y-84225000D01*
G75*
G02*
X129625000Y-84025000I200000J0D01*
G01*
X130025000Y-84025000D01*
G75*
G02*
X130225000Y-84225000I0J-200000D01*
G01*
G37*
%TD.AperFunction*%
%TO.P,R19,2*%
%TO.N,Net-(J1-Pad5)*%
%TA.AperFunction,SMDPad,CuDef*%
G36*
G01*
X128575000Y-84225000D02*
X128575000Y-84775000D01*
G75*
G02*
X128375000Y-84975000I-200000J0D01*
G01*
X127975000Y-84975000D01*
G75*
G02*
X127775000Y-84775000I0J200000D01*
G01*
X127775000Y-84225000D01*
G75*
G02*
X127975000Y-84025000I200000J0D01*
G01*
X128375000Y-84025000D01*
G75*
G02*
X128575000Y-84225000I0J-200000D01*
G01*
G37*
%TD.AperFunction*%
%TD*%
D14*
%TO.P,U1,1*%
%TO.N,Net-(J1-Pad7)*%
X175500000Y-128000000D03*
D13*
%TO.P,U1,9*%
%TO.N,Net-(U1-Pad9)*%
X193280000Y-117840000D03*
%TO.P,U1,2*%
%TO.N,Net-(J1-Pad8)*%
X178040000Y-128000000D03*
%TO.P,U1,10*%
%TO.N,+5V*%
X190740000Y-117840000D03*
%TO.P,U1,3*%
%TO.N,Net-(J1-Pad9)*%
X180580000Y-128000000D03*
%TO.P,U1,11*%
%TO.N,/SCK*%
X188200000Y-117840000D03*
%TO.P,U1,4*%
%TO.N,Net-(J1-Pad10)*%
X183120000Y-128000000D03*
%TO.P,U1,12*%
%TO.N,/RCK*%
X185660000Y-117840000D03*
%TO.P,U1,5*%
%TO.N,Net-(J1-Pad11)*%
X185660000Y-128000000D03*
%TO.P,U1,13*%
%TO.N,GND*%
X183120000Y-117840000D03*
%TO.P,U1,6*%
%TO.N,Net-(J1-Pad12)*%
X188200000Y-128000000D03*
%TO.P,U1,14*%
%TO.N,/SER*%
X180580000Y-117840000D03*
%TO.P,U1,7*%
%TO.N,Net-(J1-Pad13)*%
X190740000Y-128000000D03*
%TO.P,U1,15*%
%TO.N,Net-(J1-Pad6)*%
X178040000Y-117840000D03*
%TO.P,U1,8*%
%TO.N,GND*%
X193280000Y-128000000D03*
%TO.P,U1,16*%
%TO.N,+5V*%
X175500000Y-117840000D03*
%TD*%
D15*
%TO.N,GND*%
X130500000Y-105500000D03*
X128500000Y-88000000D03*
X130000000Y-91000000D03*
X156500000Y-84000000D03*
X176000000Y-81000000D03*
X147000000Y-89500000D03*
X143000000Y-89000000D03*
%TO.N,+5V*%
X134000000Y-131500000D03*
X180560000Y-107660000D03*
%TO.N,/SER*%
X170500000Y-105000000D03*
X170500000Y-101000000D03*
%TO.N,Net-(J1-Pad14)*%
X140461000Y-116961000D03*
%TO.N,Net-(J1-Pad3)*%
X124000000Y-90000000D03*
X121000000Y-93000000D03*
%TO.N,Net-(U1-Pad9)*%
X171500000Y-117000000D03*
%TD*%
D16*
%TO.N,Net-(A1-Pad5)*%
X134439999Y-95374999D02*
X134000000Y-95814998D01*
X144534999Y-95374999D02*
X134439999Y-95374999D01*
X145660000Y-96500000D02*
X144534999Y-95374999D01*
X128250000Y-105086000D02*
X126750000Y-105086000D01*
X134000000Y-99336000D02*
X128250000Y-105086000D01*
X134000000Y-95814998D02*
X134000000Y-99336000D01*
%TO.N,Net-(A1-Pad6)*%
X134253598Y-94924990D02*
X133500000Y-95678588D01*
X146624989Y-94924989D02*
X134253598Y-94924990D01*
X148200000Y-96500000D02*
X146624989Y-94924989D01*
X128250000Y-103603000D02*
X126750000Y-103603000D01*
X133500000Y-98353000D02*
X128250000Y-103603000D01*
X133500000Y-95678588D02*
X133500000Y-98353000D01*
%TO.N,/CLK*%
X151080000Y-86000000D02*
X129825000Y-86000000D01*
X155820000Y-81260000D02*
X151080000Y-86000000D01*
%TO.N,Net-(A1-Pad7)*%
X133000000Y-95542178D02*
X133000000Y-98216590D01*
X134067197Y-94474981D02*
X133000000Y-95542178D01*
X148714981Y-94474981D02*
X134067197Y-94474981D01*
X150740000Y-96500000D02*
X148714981Y-94474981D01*
X129099590Y-102117000D02*
X126750000Y-102117000D01*
X133000000Y-98216590D02*
X129099590Y-102117000D01*
%TO.N,/RD*%
X150040000Y-84500000D02*
X153280000Y-81260000D01*
X129825000Y-84500000D02*
X150040000Y-84500000D01*
%TO.N,Net-(A1-Pad8)*%
X132500000Y-95405768D02*
X132500000Y-98080180D01*
X133880796Y-94024972D02*
X132500000Y-95405768D01*
X150804972Y-94024972D02*
X133880796Y-94024972D01*
X153280000Y-96500000D02*
X150804972Y-94024972D01*
X129947180Y-100633000D02*
X126750000Y-100633000D01*
X132500000Y-98080180D02*
X129947180Y-100633000D01*
%TO.N,/WR*%
X149000000Y-83000000D02*
X150740000Y-81260000D01*
X129825000Y-83000000D02*
X149000000Y-83000000D01*
%TO.N,Net-(A1-Pad9)*%
X128121358Y-99148000D02*
X126750000Y-99148000D01*
X133694395Y-93574963D02*
X128121358Y-99148000D01*
X152894963Y-93574963D02*
X133694395Y-93574963D01*
X155820000Y-96500000D02*
X152894963Y-93574963D01*
%TO.N,Net-(A1-Pad10)*%
X128836000Y-97664000D02*
X126750000Y-97664000D01*
X133375046Y-93124954D02*
X128836000Y-97664000D01*
X154984954Y-93124954D02*
X133375046Y-93124954D01*
X158360000Y-96500000D02*
X154984954Y-93124954D01*
%TO.N,Net-(A1-Pad11)*%
X157074945Y-92674945D02*
X132825055Y-92674945D01*
X160900000Y-96500000D02*
X157074945Y-92674945D01*
X129319000Y-96181000D02*
X126750000Y-96181000D01*
X132825055Y-92674945D02*
X129319000Y-96181000D01*
%TO.N,+5V*%
X149420000Y-105000000D02*
X151420000Y-103000000D01*
X162660000Y-103000000D02*
X164660000Y-105000000D01*
X151420000Y-103000000D02*
X162660000Y-103000000D01*
X126750000Y-136258000D02*
X129242000Y-136258000D01*
X129242000Y-136258000D02*
X134000000Y-131500000D01*
X174500000Y-101825000D02*
X174725000Y-101825000D01*
X174500000Y-101825000D02*
X174825000Y-101825000D01*
X180560000Y-107560000D02*
X180560000Y-107660000D01*
X174825000Y-101825000D02*
X180560000Y-107560000D01*
%TO.N,Net-(A1-Pad12)*%
X159164935Y-92224935D02*
X131775065Y-92224935D01*
X163440000Y-96500000D02*
X159164935Y-92224935D01*
X131775065Y-92224935D02*
X129000000Y-95000000D01*
X127055000Y-95000000D02*
X126750000Y-94695000D01*
X129000000Y-95000000D02*
X127055000Y-95000000D01*
%TO.N,/RCK*%
X185660000Y-117840000D02*
X166320000Y-98500000D01*
X166320000Y-96840000D02*
X165980000Y-96500000D01*
X166320000Y-98500000D02*
X166320000Y-96840000D01*
%TO.N,/SER*%
X168520000Y-96500000D02*
X168520000Y-99034998D01*
X180580000Y-117840000D02*
X180580000Y-115080000D01*
X180580000Y-115080000D02*
X170500000Y-105000000D01*
X168534998Y-99034998D02*
X168520000Y-99034998D01*
X170500000Y-101000000D02*
X168534998Y-99034998D01*
%TO.N,Net-(J1-Pad4)*%
X128175000Y-83000000D02*
X122000000Y-89175000D01*
X125250000Y-131804000D02*
X126750000Y-131804000D01*
X122000000Y-128554000D02*
X125250000Y-131804000D01*
X122000000Y-89175000D02*
X122000000Y-128554000D01*
%TO.N,Net-(J1-Pad5)*%
X128175000Y-84500000D02*
X128000000Y-84500000D01*
X128000000Y-84500000D02*
X123000000Y-89500000D01*
X125320000Y-130320000D02*
X126750000Y-130320000D01*
X123000000Y-128000000D02*
X125320000Y-130320000D01*
X123000000Y-89500000D02*
X123000000Y-128000000D01*
%TO.N,Net-(J1-Pad6)*%
X127040001Y-129125001D02*
X126750000Y-128835000D01*
X191280001Y-129125001D02*
X127040001Y-129125001D01*
X191865001Y-128540001D02*
X191280001Y-129125001D01*
X191865001Y-127221411D02*
X191865001Y-128540001D01*
X183608591Y-118965001D02*
X191865001Y-127221411D01*
X179165001Y-118965001D02*
X183608591Y-118965001D01*
X178040000Y-117840000D02*
X179165001Y-118965001D01*
%TO.N,Net-(J1-Pad7)*%
X174854000Y-127354000D02*
X175500000Y-128000000D01*
X126750000Y-127354000D02*
X174854000Y-127354000D01*
%TO.N,Net-(J1-Pad8)*%
X177685002Y-128000000D02*
X178040000Y-128000000D01*
X175552002Y-125867000D02*
X177685002Y-128000000D01*
X126750000Y-125867000D02*
X175552002Y-125867000D01*
%TO.N,Net-(J1-Pad9)*%
X176962000Y-124382000D02*
X180580000Y-128000000D01*
X126750000Y-124382000D02*
X176962000Y-124382000D01*
%TO.N,Net-(J1-Pad10)*%
X178018000Y-122898000D02*
X183120000Y-128000000D01*
X126750000Y-122898000D02*
X178018000Y-122898000D01*
%TO.N,Net-(J1-Pad11)*%
X184785002Y-128000000D02*
X185660000Y-128000000D01*
X178198002Y-121413000D02*
X184785002Y-128000000D01*
X126750000Y-121413000D02*
X178198002Y-121413000D01*
%TO.N,Net-(J1-Pad12)*%
X187325002Y-128000000D02*
X188200000Y-128000000D01*
X179255002Y-119930000D02*
X187325002Y-128000000D01*
X126750000Y-119930000D02*
X179255002Y-119930000D01*
%TO.N,Net-(J1-Pad13)*%
X175474988Y-119479990D02*
X182219990Y-119479990D01*
X174439998Y-118445000D02*
X175474988Y-119479990D01*
X182219990Y-119479990D02*
X190740000Y-128000000D01*
X126750000Y-118445000D02*
X174439998Y-118445000D01*
%TO.N,Net-(J1-Pad14)*%
X126750000Y-116961000D02*
X140461000Y-116961000D01*
%TO.N,Net-(J1-Pad15)*%
X149103000Y-115477000D02*
X149420000Y-115160000D01*
X126750000Y-115477000D02*
X149103000Y-115477000D01*
%TO.N,Net-(J1-Pad16)*%
X151605002Y-115160000D02*
X151960000Y-115160000D01*
X150436002Y-113991000D02*
X151605002Y-115160000D01*
X126750000Y-113991000D02*
X150436002Y-113991000D01*
%TO.N,Net-(J1-Pad17)*%
X151848000Y-112508000D02*
X154500000Y-115160000D01*
X126750000Y-112508000D02*
X151848000Y-112508000D01*
%TO.N,Net-(J1-Pad18)*%
X156165002Y-115160000D02*
X157040000Y-115160000D01*
X152028002Y-111023000D02*
X156165002Y-115160000D01*
X126750000Y-111023000D02*
X152028002Y-111023000D01*
%TO.N,Net-(J1-Pad19)*%
X153959000Y-109539000D02*
X159580000Y-115160000D01*
X126750000Y-109539000D02*
X153959000Y-109539000D01*
%TO.N,Net-(J1-Pad20)*%
X161245002Y-115160000D02*
X162120000Y-115160000D01*
X154140002Y-108055000D02*
X161245002Y-115160000D01*
X126750000Y-108055000D02*
X154140002Y-108055000D01*
%TO.N,Net-(J1-Pad21)*%
X164660000Y-115160000D02*
X156500000Y-107000000D01*
X127181000Y-107000000D02*
X126750000Y-106569000D01*
X156500000Y-107000000D02*
X127181000Y-107000000D01*
%TO.N,Net-(J1-Pad3)*%
X128000000Y-86000000D02*
X124000000Y-90000000D01*
X128175000Y-86000000D02*
X128000000Y-86000000D01*
X125250000Y-133289000D02*
X126750000Y-133289000D01*
X121399999Y-129438999D02*
X125250000Y-133289000D01*
X121399999Y-93399999D02*
X121399999Y-129438999D01*
X121000000Y-93000000D02*
X121399999Y-93399999D01*
%TO.N,Net-(J1-Pad30)*%
X127213000Y-93675000D02*
X126750000Y-93212000D01*
X130298077Y-91774925D02*
X173774925Y-91774925D01*
X128861002Y-93212000D02*
X130298077Y-91774925D01*
X126750000Y-93212000D02*
X128861002Y-93212000D01*
X174500000Y-92500000D02*
X174500000Y-100175000D01*
X173774925Y-91774925D02*
X174500000Y-92500000D01*
%TO.N,Net-(U1-Pad9)*%
X156000000Y-106500000D02*
X161000000Y-106500000D01*
X154500000Y-105000000D02*
X156000000Y-106500000D01*
X161000000Y-106500000D02*
X171500000Y-117000000D01*
%TD*%
D17*
%TO.N,GND*%
X107686994Y-75807870D02*
X107089470Y-76125361D01*
X107075308Y-76134823D01*
X106763124Y-76583519D01*
X109000000Y-78820395D01*
X111236876Y-76583519D01*
X110924692Y-76134823D01*
X110328741Y-75814388D01*
X109824276Y-75660000D01*
X192178821Y-75660000D01*
X191686994Y-75807870D01*
X191089470Y-76125361D01*
X191075308Y-76134823D01*
X190763124Y-76583519D01*
X193000000Y-78820395D01*
X195236876Y-76583519D01*
X194924692Y-76134823D01*
X194328741Y-75814388D01*
X193824276Y-75660000D01*
X195467721Y-75660000D01*
X195856775Y-75698147D01*
X196199967Y-75801763D01*
X196516489Y-75970062D01*
X196794299Y-76196637D01*
X197022806Y-76472856D01*
X197193310Y-76788197D01*
X197299319Y-77130656D01*
X197340000Y-77517712D01*
X197340001Y-145178824D01*
X197192130Y-144686994D01*
X196874639Y-144089470D01*
X196865177Y-144075308D01*
X196416481Y-143763124D01*
X194179605Y-146000000D01*
X196416481Y-148236876D01*
X196865177Y-147924692D01*
X197185612Y-147328741D01*
X197340001Y-146824272D01*
X197340001Y-147467711D01*
X197301853Y-147856776D01*
X197198238Y-148199964D01*
X197029939Y-148516489D01*
X196803365Y-148794296D01*
X196527146Y-149022805D01*
X196211803Y-149193310D01*
X195869344Y-149299319D01*
X195482288Y-149340000D01*
X194821179Y-149340000D01*
X195313006Y-149192130D01*
X195910530Y-148874639D01*
X195924692Y-148865177D01*
X196236876Y-148416481D01*
X194000000Y-146179605D01*
X191763124Y-148416481D01*
X192075308Y-148865177D01*
X192671259Y-149185612D01*
X193175724Y-149340000D01*
X109821179Y-149340000D01*
X110313006Y-149192130D01*
X110910530Y-148874639D01*
X110924692Y-148865177D01*
X111236876Y-148416481D01*
X109000000Y-146179605D01*
X106763124Y-148416481D01*
X107075308Y-148865177D01*
X107671259Y-149185612D01*
X108175724Y-149340000D01*
X107532279Y-149340000D01*
X107143224Y-149301853D01*
X106800036Y-149198238D01*
X106483511Y-149029939D01*
X106205704Y-148803365D01*
X105977195Y-148527146D01*
X105806690Y-148211803D01*
X105700681Y-147869344D01*
X105660000Y-147482288D01*
X105660000Y-146821179D01*
X105807870Y-147313006D01*
X106125361Y-147910530D01*
X106134823Y-147924692D01*
X106583519Y-148236876D01*
X108820395Y-146000000D01*
X109179605Y-146000000D01*
X111416481Y-148236876D01*
X111865177Y-147924692D01*
X112185612Y-147328741D01*
X112383626Y-146681727D01*
X112451610Y-146008516D01*
X112449975Y-145991484D01*
X190548390Y-145991484D01*
X190613051Y-146665023D01*
X190807870Y-147313006D01*
X191125361Y-147910530D01*
X191134823Y-147924692D01*
X191583519Y-148236876D01*
X193820395Y-146000000D01*
X191583519Y-143763124D01*
X191134823Y-144075308D01*
X190814388Y-144671259D01*
X190616374Y-145318273D01*
X190548390Y-145991484D01*
X112449975Y-145991484D01*
X112386949Y-145334977D01*
X112192130Y-144686994D01*
X111874639Y-144089470D01*
X111865177Y-144075308D01*
X111416481Y-143763124D01*
X109179605Y-146000000D01*
X108820395Y-146000000D01*
X106583519Y-143763124D01*
X106134823Y-144075308D01*
X105814388Y-144671259D01*
X105660000Y-145175724D01*
X105660000Y-143583519D01*
X106763124Y-143583519D01*
X109000000Y-145820395D01*
X111236876Y-143583519D01*
X191763124Y-143583519D01*
X194000000Y-145820395D01*
X196236876Y-143583519D01*
X195924692Y-143134823D01*
X195328741Y-142814388D01*
X194681727Y-142616374D01*
X194008516Y-142548390D01*
X193334977Y-142613051D01*
X192686994Y-142807870D01*
X192089470Y-143125361D01*
X192075308Y-143134823D01*
X191763124Y-143583519D01*
X111236876Y-143583519D01*
X110924692Y-143134823D01*
X110328741Y-142814388D01*
X109681727Y-142616374D01*
X109008516Y-142548390D01*
X108334977Y-142613051D01*
X107686994Y-142807870D01*
X107089470Y-143125361D01*
X107075308Y-143134823D01*
X106763124Y-143583519D01*
X105660000Y-143583519D01*
X105660000Y-135199000D01*
X124861928Y-135199000D01*
X124874188Y-135323482D01*
X124910498Y-135443180D01*
X124949422Y-135516000D01*
X124910498Y-135588820D01*
X124874188Y-135708518D01*
X124861928Y-135833000D01*
X124861928Y-136683000D01*
X124874188Y-136807482D01*
X124910498Y-136927180D01*
X124969463Y-137037494D01*
X125048815Y-137134185D01*
X125145506Y-137213537D01*
X125255820Y-137272502D01*
X125375518Y-137308812D01*
X125500000Y-137321072D01*
X128000000Y-137321072D01*
X128124482Y-137308812D01*
X128244180Y-137272502D01*
X128354494Y-137213537D01*
X128451185Y-137134185D01*
X128530537Y-137037494D01*
X128540957Y-137018000D01*
X129204678Y-137018000D01*
X129242000Y-137021676D01*
X129279322Y-137018000D01*
X129279333Y-137018000D01*
X129390986Y-137007003D01*
X129534247Y-136963546D01*
X129666276Y-136892974D01*
X129782001Y-136798001D01*
X129805804Y-136768997D01*
X134039802Y-132535000D01*
X134101939Y-132535000D01*
X134301898Y-132495226D01*
X134490256Y-132417205D01*
X134659774Y-132303937D01*
X134803937Y-132159774D01*
X134917205Y-131990256D01*
X134995226Y-131801898D01*
X135035000Y-131601939D01*
X135035000Y-131398061D01*
X134995226Y-131198102D01*
X134917205Y-131009744D01*
X134803937Y-130840226D01*
X134659774Y-130696063D01*
X134490256Y-130582795D01*
X134301898Y-130504774D01*
X134101939Y-130465000D01*
X133898061Y-130465000D01*
X133698102Y-130504774D01*
X133509744Y-130582795D01*
X133340226Y-130696063D01*
X133196063Y-130840226D01*
X133082795Y-131009744D01*
X133004774Y-131198102D01*
X132965000Y-131398061D01*
X132965000Y-131460198D01*
X128927199Y-135498000D01*
X128560200Y-135498000D01*
X128589502Y-135443180D01*
X128625812Y-135323482D01*
X128638072Y-135199000D01*
X128635000Y-135059750D01*
X128476250Y-134901000D01*
X126877000Y-134901000D01*
X126877000Y-134921000D01*
X126623000Y-134921000D01*
X126623000Y-134901000D01*
X125023750Y-134901000D01*
X124865000Y-135059750D01*
X124861928Y-135199000D01*
X105660000Y-135199000D01*
X105660000Y-129139072D01*
X107499000Y-129139072D01*
X107623482Y-129126812D01*
X107743180Y-129090502D01*
X107853494Y-129031537D01*
X107950185Y-128952185D01*
X108029537Y-128855494D01*
X108088502Y-128745180D01*
X108124812Y-128625482D01*
X108137072Y-128501000D01*
X108137072Y-124001000D01*
X108124812Y-123876518D01*
X108088502Y-123756820D01*
X108029537Y-123646506D01*
X107950185Y-123549815D01*
X107853494Y-123470463D01*
X107743180Y-123411498D01*
X107623482Y-123375188D01*
X107499000Y-123362928D01*
X105660000Y-123362928D01*
X105660000Y-103138072D01*
X107499000Y-103138072D01*
X107623482Y-103125812D01*
X107743180Y-103089502D01*
X107853494Y-103030537D01*
X107950185Y-102951185D01*
X108029537Y-102854494D01*
X108088502Y-102744180D01*
X108124812Y-102624482D01*
X108137072Y-102500000D01*
X108137072Y-100088967D01*
X117665000Y-100088967D01*
X117665000Y-100411033D01*
X117727832Y-100726912D01*
X117851082Y-101024463D01*
X118030013Y-101292252D01*
X118257748Y-101519987D01*
X118525537Y-101698918D01*
X118823088Y-101822168D01*
X119138967Y-101885000D01*
X119461033Y-101885000D01*
X119776912Y-101822168D01*
X120074463Y-101698918D01*
X120342252Y-101519987D01*
X120569987Y-101292252D01*
X120639999Y-101187471D01*
X120640000Y-125312530D01*
X120569987Y-125207748D01*
X120342252Y-124980013D01*
X120074463Y-124801082D01*
X119776912Y-124677832D01*
X119461033Y-124615000D01*
X119138967Y-124615000D01*
X118823088Y-124677832D01*
X118525537Y-124801082D01*
X118257748Y-124980013D01*
X118030013Y-125207748D01*
X117851082Y-125475537D01*
X117727832Y-125773088D01*
X117665000Y-126088967D01*
X117665000Y-126411033D01*
X117727832Y-126726912D01*
X117851082Y-127024463D01*
X118030013Y-127292252D01*
X118257748Y-127519987D01*
X118525537Y-127698918D01*
X118823088Y-127822168D01*
X119138967Y-127885000D01*
X119461033Y-127885000D01*
X119776912Y-127822168D01*
X120074463Y-127698918D01*
X120342252Y-127519987D01*
X120569987Y-127292252D01*
X120640000Y-127187470D01*
X120640000Y-129401666D01*
X120636323Y-129438999D01*
X120640000Y-129476332D01*
X120647185Y-129549276D01*
X120650997Y-129587984D01*
X120694453Y-129731245D01*
X120765025Y-129863275D01*
X120836200Y-129950001D01*
X120859999Y-129979000D01*
X120888997Y-130002798D01*
X124686201Y-133800003D01*
X124709999Y-133829001D01*
X124825724Y-133923974D01*
X124918810Y-133973730D01*
X124949689Y-134031500D01*
X124910498Y-134104820D01*
X124874188Y-134224518D01*
X124861928Y-134349000D01*
X124865000Y-134488250D01*
X125023750Y-134647000D01*
X126623000Y-134647000D01*
X126623000Y-134627000D01*
X126877000Y-134627000D01*
X126877000Y-134647000D01*
X128476250Y-134647000D01*
X128635000Y-134488250D01*
X128638072Y-134349000D01*
X128625812Y-134224518D01*
X128589502Y-134104820D01*
X128550311Y-134031500D01*
X128589502Y-133958180D01*
X128625812Y-133838482D01*
X128638072Y-133714000D01*
X128638072Y-132864000D01*
X128625812Y-132739518D01*
X128589502Y-132619820D01*
X128550311Y-132546500D01*
X128589502Y-132473180D01*
X128625812Y-132353482D01*
X128638072Y-132229000D01*
X128638072Y-131379000D01*
X128625812Y-131254518D01*
X128589502Y-131134820D01*
X128550578Y-131062000D01*
X128589502Y-130989180D01*
X128625812Y-130869482D01*
X128638072Y-130745000D01*
X128638072Y-129895000D01*
X128637087Y-129885001D01*
X191242679Y-129885001D01*
X191280001Y-129888677D01*
X191317323Y-129885001D01*
X191317334Y-129885001D01*
X191428987Y-129874004D01*
X191572248Y-129830547D01*
X191704277Y-129759975D01*
X191820002Y-129665002D01*
X191843804Y-129635999D01*
X192373843Y-129105961D01*
X192542580Y-129231037D01*
X192796913Y-129351246D01*
X192930961Y-129391904D01*
X193153000Y-129269915D01*
X193153000Y-128127000D01*
X193407000Y-128127000D01*
X193407000Y-129269915D01*
X193629039Y-129391904D01*
X193763087Y-129351246D01*
X194017420Y-129231037D01*
X194243414Y-129063519D01*
X194432385Y-128855131D01*
X194577070Y-128613881D01*
X194671909Y-128349040D01*
X194550624Y-128127000D01*
X193407000Y-128127000D01*
X193153000Y-128127000D01*
X193133000Y-128127000D01*
X193133000Y-127873000D01*
X193153000Y-127873000D01*
X193153000Y-126730085D01*
X193407000Y-126730085D01*
X193407000Y-127873000D01*
X194550624Y-127873000D01*
X194671909Y-127650960D01*
X194577070Y-127386119D01*
X194432385Y-127144869D01*
X194243414Y-126936481D01*
X194017420Y-126768963D01*
X193763087Y-126648754D01*
X193629039Y-126608096D01*
X193407000Y-126730085D01*
X193153000Y-126730085D01*
X192930961Y-126608096D01*
X192796913Y-126648754D01*
X192542580Y-126768963D01*
X192501280Y-126799576D01*
X192499975Y-126797134D01*
X192428800Y-126710408D01*
X192405002Y-126681410D01*
X192376005Y-126657613D01*
X184325297Y-118606906D01*
X184383933Y-118509135D01*
X184388320Y-118519727D01*
X184545363Y-118754759D01*
X184745241Y-118954637D01*
X184980273Y-119111680D01*
X185241426Y-119219853D01*
X185518665Y-119275000D01*
X185801335Y-119275000D01*
X186078574Y-119219853D01*
X186339727Y-119111680D01*
X186574759Y-118954637D01*
X186774637Y-118754759D01*
X186930000Y-118522241D01*
X187085363Y-118754759D01*
X187285241Y-118954637D01*
X187520273Y-119111680D01*
X187781426Y-119219853D01*
X188058665Y-119275000D01*
X188341335Y-119275000D01*
X188618574Y-119219853D01*
X188879727Y-119111680D01*
X189114759Y-118954637D01*
X189314637Y-118754759D01*
X189470000Y-118522241D01*
X189625363Y-118754759D01*
X189825241Y-118954637D01*
X190060273Y-119111680D01*
X190321426Y-119219853D01*
X190598665Y-119275000D01*
X190881335Y-119275000D01*
X191158574Y-119219853D01*
X191419727Y-119111680D01*
X191654759Y-118954637D01*
X191854637Y-118754759D01*
X192010000Y-118522241D01*
X192165363Y-118754759D01*
X192365241Y-118954637D01*
X192600273Y-119111680D01*
X192861426Y-119219853D01*
X193138665Y-119275000D01*
X193421335Y-119275000D01*
X193698574Y-119219853D01*
X193959727Y-119111680D01*
X194194759Y-118954637D01*
X194394637Y-118754759D01*
X194551680Y-118519727D01*
X194659853Y-118258574D01*
X194715000Y-117981335D01*
X194715000Y-117698665D01*
X194659853Y-117421426D01*
X194551680Y-117160273D01*
X194394637Y-116925241D01*
X194194759Y-116725363D01*
X193959727Y-116568320D01*
X193698574Y-116460147D01*
X193421335Y-116405000D01*
X193138665Y-116405000D01*
X192861426Y-116460147D01*
X192600273Y-116568320D01*
X192365241Y-116725363D01*
X192165363Y-116925241D01*
X192010000Y-117157759D01*
X191854637Y-116925241D01*
X191654759Y-116725363D01*
X191419727Y-116568320D01*
X191158574Y-116460147D01*
X190881335Y-116405000D01*
X190598665Y-116405000D01*
X190321426Y-116460147D01*
X190060273Y-116568320D01*
X189825241Y-116725363D01*
X189625363Y-116925241D01*
X189470000Y-117157759D01*
X189314637Y-116925241D01*
X189114759Y-116725363D01*
X188879727Y-116568320D01*
X188618574Y-116460147D01*
X188341335Y-116405000D01*
X188058665Y-116405000D01*
X187781426Y-116460147D01*
X187520273Y-116568320D01*
X187285241Y-116725363D01*
X187085363Y-116925241D01*
X186930000Y-117157759D01*
X186774637Y-116925241D01*
X186574759Y-116725363D01*
X186339727Y-116568320D01*
X186078574Y-116460147D01*
X185801335Y-116405000D01*
X185518665Y-116405000D01*
X185336114Y-116441312D01*
X170864215Y-101969413D01*
X170990256Y-101917205D01*
X171159774Y-101803937D01*
X171303937Y-101659774D01*
X171417205Y-101490256D01*
X171495226Y-101301898D01*
X171535000Y-101101939D01*
X171535000Y-100898061D01*
X171495226Y-100698102D01*
X171417205Y-100509744D01*
X171303937Y-100340226D01*
X171159774Y-100196063D01*
X170990256Y-100082795D01*
X170801898Y-100004774D01*
X170601939Y-99965000D01*
X170539802Y-99965000D01*
X169280000Y-98705199D01*
X169280000Y-97718043D01*
X169434759Y-97614637D01*
X169634637Y-97414759D01*
X169790000Y-97182241D01*
X169945363Y-97414759D01*
X170145241Y-97614637D01*
X170380273Y-97771680D01*
X170641426Y-97879853D01*
X170918665Y-97935000D01*
X171201335Y-97935000D01*
X171478574Y-97879853D01*
X171739727Y-97771680D01*
X171974759Y-97614637D01*
X172174637Y-97414759D01*
X172331680Y-97179727D01*
X172439853Y-96918574D01*
X172495000Y-96641335D01*
X172495000Y-96358665D01*
X172439853Y-96081426D01*
X172331680Y-95820273D01*
X172174637Y-95585241D01*
X171974759Y-95385363D01*
X171739727Y-95228320D01*
X171478574Y-95120147D01*
X171201335Y-95065000D01*
X170918665Y-95065000D01*
X170641426Y-95120147D01*
X170380273Y-95228320D01*
X170145241Y-95385363D01*
X169945363Y-95585241D01*
X169790000Y-95817759D01*
X169634637Y-95585241D01*
X169434759Y-95385363D01*
X169199727Y-95228320D01*
X168938574Y-95120147D01*
X168661335Y-95065000D01*
X168378665Y-95065000D01*
X168101426Y-95120147D01*
X167840273Y-95228320D01*
X167605241Y-95385363D01*
X167405363Y-95585241D01*
X167250000Y-95817759D01*
X167094637Y-95585241D01*
X166894759Y-95385363D01*
X166659727Y-95228320D01*
X166398574Y-95120147D01*
X166121335Y-95065000D01*
X165838665Y-95065000D01*
X165561426Y-95120147D01*
X165300273Y-95228320D01*
X165065241Y-95385363D01*
X164865363Y-95585241D01*
X164710000Y-95817759D01*
X164554637Y-95585241D01*
X164354759Y-95385363D01*
X164119727Y-95228320D01*
X163858574Y-95120147D01*
X163581335Y-95065000D01*
X163298665Y-95065000D01*
X163116114Y-95101312D01*
X160549726Y-92534925D01*
X173460124Y-92534925D01*
X173740000Y-92814802D01*
X173740001Y-99294083D01*
X173632394Y-99382394D01*
X173528169Y-99509392D01*
X173450722Y-99654284D01*
X173403031Y-99811500D01*
X173386928Y-99975000D01*
X173386928Y-100375000D01*
X173403031Y-100538500D01*
X173450722Y-100695716D01*
X173528169Y-100840608D01*
X173632394Y-100967606D01*
X173671866Y-101000000D01*
X173632394Y-101032394D01*
X173528169Y-101159392D01*
X173450722Y-101304284D01*
X173403031Y-101461500D01*
X173386928Y-101625000D01*
X173386928Y-102025000D01*
X173403031Y-102188500D01*
X173450722Y-102345716D01*
X173528169Y-102490608D01*
X173632394Y-102617606D01*
X173759392Y-102721831D01*
X173904284Y-102799278D01*
X174061500Y-102846969D01*
X174225000Y-102863072D01*
X174775000Y-102863072D01*
X174787081Y-102861882D01*
X179525000Y-107599802D01*
X179525000Y-107761939D01*
X179564774Y-107961898D01*
X179642795Y-108150256D01*
X179756063Y-108319774D01*
X179900226Y-108463937D01*
X180069744Y-108577205D01*
X180258102Y-108655226D01*
X180458061Y-108695000D01*
X180661939Y-108695000D01*
X180861898Y-108655226D01*
X181050256Y-108577205D01*
X181219774Y-108463937D01*
X181363937Y-108319774D01*
X181477205Y-108150256D01*
X181555226Y-107961898D01*
X181595000Y-107761939D01*
X181595000Y-107558061D01*
X181555226Y-107358102D01*
X181477205Y-107169744D01*
X181363937Y-107000226D01*
X181219774Y-106856063D01*
X181050256Y-106742795D01*
X180861898Y-106664774D01*
X180709203Y-106634401D01*
X175603597Y-101528796D01*
X175596969Y-101461500D01*
X175549278Y-101304284D01*
X175471831Y-101159392D01*
X175367606Y-101032394D01*
X175328134Y-101000000D01*
X175367606Y-100967606D01*
X175471831Y-100840608D01*
X175549278Y-100695716D01*
X175596969Y-100538500D01*
X175613072Y-100375000D01*
X175613072Y-99975000D01*
X175596969Y-99811500D01*
X175549278Y-99654284D01*
X175471831Y-99509392D01*
X175367606Y-99382394D01*
X175260000Y-99294084D01*
X175260000Y-92537323D01*
X175263676Y-92500000D01*
X175260000Y-92462677D01*
X175260000Y-92462667D01*
X175249003Y-92351014D01*
X175205546Y-92207753D01*
X175200065Y-92197498D01*
X175134974Y-92075723D01*
X175063799Y-91988997D01*
X175040001Y-91959999D01*
X175011004Y-91936202D01*
X174338728Y-91263927D01*
X174314926Y-91234924D01*
X174199201Y-91139951D01*
X174067172Y-91069379D01*
X173923911Y-91025922D01*
X173812258Y-91014925D01*
X173812247Y-91014925D01*
X173774925Y-91011249D01*
X173737603Y-91014925D01*
X130335400Y-91014925D01*
X130298077Y-91011249D01*
X130260754Y-91014925D01*
X130260744Y-91014925D01*
X130149091Y-91025922D01*
X130043936Y-91057820D01*
X130005830Y-91069379D01*
X129873800Y-91139951D01*
X129828025Y-91177518D01*
X129758076Y-91234924D01*
X129734278Y-91263922D01*
X128575126Y-92423074D01*
X128589502Y-92396180D01*
X128625812Y-92276482D01*
X128638072Y-92152000D01*
X128638072Y-91302000D01*
X128625812Y-91177518D01*
X128589502Y-91057820D01*
X128550311Y-90984500D01*
X128589502Y-90911180D01*
X128625812Y-90791482D01*
X128638072Y-90667000D01*
X128635000Y-90527750D01*
X128476250Y-90369000D01*
X126877000Y-90369000D01*
X126877000Y-90389000D01*
X126623000Y-90389000D01*
X126623000Y-90369000D01*
X126603000Y-90369000D01*
X126603000Y-90115000D01*
X126623000Y-90115000D01*
X126623000Y-89340750D01*
X126877000Y-89340750D01*
X126877000Y-90115000D01*
X128476250Y-90115000D01*
X128635000Y-89956250D01*
X128638072Y-89817000D01*
X128625812Y-89692518D01*
X128589502Y-89572820D01*
X128530537Y-89462506D01*
X128451185Y-89365815D01*
X128354494Y-89286463D01*
X128244180Y-89227498D01*
X128124482Y-89191188D01*
X128000000Y-89178928D01*
X127035750Y-89182000D01*
X126877000Y-89340750D01*
X126623000Y-89340750D01*
X126464250Y-89182000D01*
X125894616Y-89180185D01*
X127962920Y-87111882D01*
X127975000Y-87113072D01*
X128375000Y-87113072D01*
X128538500Y-87096969D01*
X128695716Y-87049278D01*
X128840608Y-86971831D01*
X128967606Y-86867606D01*
X129000000Y-86828134D01*
X129032394Y-86867606D01*
X129159392Y-86971831D01*
X129304284Y-87049278D01*
X129461500Y-87096969D01*
X129625000Y-87113072D01*
X130025000Y-87113072D01*
X130188500Y-87096969D01*
X130345716Y-87049278D01*
X130490608Y-86971831D01*
X130617606Y-86867606D01*
X130705916Y-86760000D01*
X151042678Y-86760000D01*
X151080000Y-86763676D01*
X151117322Y-86760000D01*
X151117333Y-86760000D01*
X151228986Y-86749003D01*
X151372247Y-86705546D01*
X151504276Y-86634974D01*
X151620001Y-86540001D01*
X151643804Y-86510997D01*
X155496114Y-82658688D01*
X155678665Y-82695000D01*
X155961335Y-82695000D01*
X156238574Y-82639853D01*
X156499727Y-82531680D01*
X156734759Y-82374637D01*
X156934637Y-82174759D01*
X157090000Y-81942241D01*
X157245363Y-82174759D01*
X157445241Y-82374637D01*
X157680273Y-82531680D01*
X157941426Y-82639853D01*
X158218665Y-82695000D01*
X158501335Y-82695000D01*
X158778574Y-82639853D01*
X159039727Y-82531680D01*
X159274759Y-82374637D01*
X159474637Y-82174759D01*
X159630000Y-81942241D01*
X159785363Y-82174759D01*
X159985241Y-82374637D01*
X160220273Y-82531680D01*
X160481426Y-82639853D01*
X160758665Y-82695000D01*
X161041335Y-82695000D01*
X161318574Y-82639853D01*
X161579727Y-82531680D01*
X161814759Y-82374637D01*
X162014637Y-82174759D01*
X162170000Y-81942241D01*
X162325363Y-82174759D01*
X162525241Y-82374637D01*
X162760273Y-82531680D01*
X163021426Y-82639853D01*
X163298665Y-82695000D01*
X163581335Y-82695000D01*
X163858574Y-82639853D01*
X164119727Y-82531680D01*
X164354759Y-82374637D01*
X164554637Y-82174759D01*
X164710000Y-81942241D01*
X164865363Y-82174759D01*
X165065241Y-82374637D01*
X165300273Y-82531680D01*
X165561426Y-82639853D01*
X165838665Y-82695000D01*
X166121335Y-82695000D01*
X166398574Y-82639853D01*
X166659727Y-82531680D01*
X166894759Y-82374637D01*
X167094637Y-82174759D01*
X167250000Y-81942241D01*
X167405363Y-82174759D01*
X167605241Y-82374637D01*
X167840273Y-82531680D01*
X168101426Y-82639853D01*
X168378665Y-82695000D01*
X168661335Y-82695000D01*
X168938574Y-82639853D01*
X169199727Y-82531680D01*
X169434759Y-82374637D01*
X169634637Y-82174759D01*
X169790000Y-81942241D01*
X169945363Y-82174759D01*
X170145241Y-82374637D01*
X170380273Y-82531680D01*
X170641426Y-82639853D01*
X170918665Y-82695000D01*
X171201335Y-82695000D01*
X171478574Y-82639853D01*
X171739727Y-82531680D01*
X171974759Y-82374637D01*
X172174637Y-82174759D01*
X172331680Y-81939727D01*
X172439853Y-81678574D01*
X172491987Y-81416481D01*
X190763124Y-81416481D01*
X191075308Y-81865177D01*
X191671259Y-82185612D01*
X192318273Y-82383626D01*
X192991484Y-82451610D01*
X193665023Y-82386949D01*
X194313006Y-82192130D01*
X194910530Y-81874639D01*
X194924692Y-81865177D01*
X195236876Y-81416481D01*
X193000000Y-79179605D01*
X190763124Y-81416481D01*
X172491987Y-81416481D01*
X172495000Y-81401335D01*
X172495000Y-81118665D01*
X172439853Y-80841426D01*
X172331680Y-80580273D01*
X172174637Y-80345241D01*
X171974759Y-80145363D01*
X171739727Y-79988320D01*
X171478574Y-79880147D01*
X171201335Y-79825000D01*
X170918665Y-79825000D01*
X170641426Y-79880147D01*
X170380273Y-79988320D01*
X170145241Y-80145363D01*
X169945363Y-80345241D01*
X169790000Y-80577759D01*
X169634637Y-80345241D01*
X169434759Y-80145363D01*
X169199727Y-79988320D01*
X168938574Y-79880147D01*
X168661335Y-79825000D01*
X168378665Y-79825000D01*
X168101426Y-79880147D01*
X167840273Y-79988320D01*
X167605241Y-80145363D01*
X167405363Y-80345241D01*
X167250000Y-80577759D01*
X167094637Y-80345241D01*
X166894759Y-80145363D01*
X166659727Y-79988320D01*
X166398574Y-79880147D01*
X166121335Y-79825000D01*
X165838665Y-79825000D01*
X165561426Y-79880147D01*
X165300273Y-79988320D01*
X165065241Y-80145363D01*
X164865363Y-80345241D01*
X164710000Y-80577759D01*
X164554637Y-80345241D01*
X164354759Y-80145363D01*
X164119727Y-79988320D01*
X163858574Y-79880147D01*
X163581335Y-79825000D01*
X163298665Y-79825000D01*
X163021426Y-79880147D01*
X162760273Y-79988320D01*
X162525241Y-80145363D01*
X162325363Y-80345241D01*
X162170000Y-80577759D01*
X162014637Y-80345241D01*
X161814759Y-80145363D01*
X161579727Y-79988320D01*
X161318574Y-79880147D01*
X161041335Y-79825000D01*
X160758665Y-79825000D01*
X160481426Y-79880147D01*
X160220273Y-79988320D01*
X159985241Y-80145363D01*
X159785363Y-80345241D01*
X159630000Y-80577759D01*
X159474637Y-80345241D01*
X159274759Y-80145363D01*
X159039727Y-79988320D01*
X158778574Y-79880147D01*
X158501335Y-79825000D01*
X158218665Y-79825000D01*
X157941426Y-79880147D01*
X157680273Y-79988320D01*
X157445241Y-80145363D01*
X157245363Y-80345241D01*
X157090000Y-80577759D01*
X156934637Y-80345241D01*
X156734759Y-80145363D01*
X156499727Y-79988320D01*
X156238574Y-79880147D01*
X155961335Y-79825000D01*
X155678665Y-79825000D01*
X155401426Y-79880147D01*
X155140273Y-79988320D01*
X154905241Y-80145363D01*
X154705363Y-80345241D01*
X154550000Y-80577759D01*
X154394637Y-80345241D01*
X154194759Y-80145363D01*
X153959727Y-79988320D01*
X153698574Y-79880147D01*
X153421335Y-79825000D01*
X153138665Y-79825000D01*
X152861426Y-79880147D01*
X152600273Y-79988320D01*
X152365241Y-80145363D01*
X152165363Y-80345241D01*
X152010000Y-80577759D01*
X151854637Y-80345241D01*
X151654759Y-80145363D01*
X151419727Y-79988320D01*
X151158574Y-79880147D01*
X150881335Y-79825000D01*
X150598665Y-79825000D01*
X150321426Y-79880147D01*
X150060273Y-79988320D01*
X149825241Y-80145363D01*
X149625363Y-80345241D01*
X149470000Y-80577759D01*
X149314637Y-80345241D01*
X149114759Y-80145363D01*
X148879727Y-79988320D01*
X148618574Y-79880147D01*
X148341335Y-79825000D01*
X148058665Y-79825000D01*
X147781426Y-79880147D01*
X147520273Y-79988320D01*
X147285241Y-80145363D01*
X147085363Y-80345241D01*
X146930000Y-80577759D01*
X146774637Y-80345241D01*
X146574759Y-80145363D01*
X146339727Y-79988320D01*
X146078574Y-79880147D01*
X145801335Y-79825000D01*
X145518665Y-79825000D01*
X145241426Y-79880147D01*
X144980273Y-79988320D01*
X144745241Y-80145363D01*
X144545363Y-80345241D01*
X144390000Y-80577759D01*
X144234637Y-80345241D01*
X144034759Y-80145363D01*
X143799727Y-79988320D01*
X143538574Y-79880147D01*
X143261335Y-79825000D01*
X142978665Y-79825000D01*
X142701426Y-79880147D01*
X142440273Y-79988320D01*
X142205241Y-80145363D01*
X142005363Y-80345241D01*
X141850000Y-80577759D01*
X141694637Y-80345241D01*
X141494759Y-80145363D01*
X141259727Y-79988320D01*
X140998574Y-79880147D01*
X140721335Y-79825000D01*
X140438665Y-79825000D01*
X140161426Y-79880147D01*
X139900273Y-79988320D01*
X139665241Y-80145363D01*
X139465363Y-80345241D01*
X139308320Y-80580273D01*
X139303933Y-80590865D01*
X139192385Y-80404869D01*
X139003414Y-80196481D01*
X138777420Y-80028963D01*
X138523087Y-79908754D01*
X138389039Y-79868096D01*
X138167000Y-79990085D01*
X138167000Y-81133000D01*
X138187000Y-81133000D01*
X138187000Y-81387000D01*
X138167000Y-81387000D01*
X138167000Y-81407000D01*
X137913000Y-81407000D01*
X137913000Y-81387000D01*
X137893000Y-81387000D01*
X137893000Y-81133000D01*
X137913000Y-81133000D01*
X137913000Y-79990085D01*
X137690961Y-79868096D01*
X137556913Y-79908754D01*
X137302580Y-80028963D01*
X137076586Y-80196481D01*
X136887615Y-80404869D01*
X136776067Y-80590865D01*
X136771680Y-80580273D01*
X136614637Y-80345241D01*
X136414759Y-80145363D01*
X136179727Y-79988320D01*
X135918574Y-79880147D01*
X135641335Y-79825000D01*
X135358665Y-79825000D01*
X135081426Y-79880147D01*
X134820273Y-79988320D01*
X134585241Y-80145363D01*
X134385363Y-80345241D01*
X134228320Y-80580273D01*
X134120147Y-80841426D01*
X134065000Y-81118665D01*
X134065000Y-81401335D01*
X134120147Y-81678574D01*
X134228320Y-81939727D01*
X134385363Y-82174759D01*
X134450604Y-82240000D01*
X130705916Y-82240000D01*
X130617606Y-82132394D01*
X130490608Y-82028169D01*
X130345716Y-81950722D01*
X130188500Y-81903031D01*
X130025000Y-81886928D01*
X129625000Y-81886928D01*
X129461500Y-81903031D01*
X129304284Y-81950722D01*
X129159392Y-82028169D01*
X129032394Y-82132394D01*
X129000000Y-82171866D01*
X128967606Y-82132394D01*
X128840608Y-82028169D01*
X128695716Y-81950722D01*
X128538500Y-81903031D01*
X128375000Y-81886928D01*
X127975000Y-81886928D01*
X127811500Y-81903031D01*
X127654284Y-81950722D01*
X127509392Y-82028169D01*
X127382394Y-82132394D01*
X127278169Y-82259392D01*
X127200722Y-82404284D01*
X127153031Y-82561500D01*
X127136928Y-82725000D01*
X127136928Y-82963270D01*
X121489003Y-88611196D01*
X121459999Y-88634999D01*
X121404871Y-88702174D01*
X121365026Y-88750724D01*
X121341652Y-88794454D01*
X121294454Y-88882754D01*
X121250997Y-89026015D01*
X121240000Y-89137668D01*
X121240000Y-89137678D01*
X121236324Y-89175000D01*
X121240000Y-89212322D01*
X121240000Y-91992462D01*
X121101939Y-91965000D01*
X120898061Y-91965000D01*
X120698102Y-92004774D01*
X120509744Y-92082795D01*
X120340226Y-92196063D01*
X120196063Y-92340226D01*
X120082795Y-92509744D01*
X120004774Y-92698102D01*
X119965000Y-92898061D01*
X119965000Y-93101939D01*
X120004774Y-93301898D01*
X120082795Y-93490256D01*
X120196063Y-93659774D01*
X120340226Y-93803937D01*
X120509744Y-93917205D01*
X120639999Y-93971159D01*
X120639999Y-99312529D01*
X120569987Y-99207748D01*
X120342252Y-98980013D01*
X120074463Y-98801082D01*
X119776912Y-98677832D01*
X119461033Y-98615000D01*
X119138967Y-98615000D01*
X118823088Y-98677832D01*
X118525537Y-98801082D01*
X118257748Y-98980013D01*
X118030013Y-99207748D01*
X117851082Y-99475537D01*
X117727832Y-99773088D01*
X117665000Y-100088967D01*
X108137072Y-100088967D01*
X108137072Y-98000000D01*
X108124812Y-97875518D01*
X108088502Y-97755820D01*
X108029537Y-97645506D01*
X107950185Y-97548815D01*
X107853494Y-97469463D01*
X107743180Y-97410498D01*
X107623482Y-97374188D01*
X107499000Y-97361928D01*
X105660000Y-97361928D01*
X105660000Y-81416481D01*
X106763124Y-81416481D01*
X107075308Y-81865177D01*
X107671259Y-82185612D01*
X108318273Y-82383626D01*
X108991484Y-82451610D01*
X109665023Y-82386949D01*
X110313006Y-82192130D01*
X110910530Y-81874639D01*
X110924692Y-81865177D01*
X111236876Y-81416481D01*
X109000000Y-79179605D01*
X106763124Y-81416481D01*
X105660000Y-81416481D01*
X105660000Y-79821179D01*
X105807870Y-80313006D01*
X106125361Y-80910530D01*
X106134823Y-80924692D01*
X106583519Y-81236876D01*
X108820395Y-79000000D01*
X109179605Y-79000000D01*
X111416481Y-81236876D01*
X111865177Y-80924692D01*
X112185612Y-80328741D01*
X112383626Y-79681727D01*
X112451610Y-79008516D01*
X112449975Y-78991484D01*
X189548390Y-78991484D01*
X189613051Y-79665023D01*
X189807870Y-80313006D01*
X190125361Y-80910530D01*
X190134823Y-80924692D01*
X190583519Y-81236876D01*
X192820395Y-79000000D01*
X193179605Y-79000000D01*
X195416481Y-81236876D01*
X195865177Y-80924692D01*
X196185612Y-80328741D01*
X196383626Y-79681727D01*
X196451610Y-79008516D01*
X196386949Y-78334977D01*
X196192130Y-77686994D01*
X195874639Y-77089470D01*
X195865177Y-77075308D01*
X195416481Y-76763124D01*
X193179605Y-79000000D01*
X192820395Y-79000000D01*
X190583519Y-76763124D01*
X190134823Y-77075308D01*
X189814388Y-77671259D01*
X189616374Y-78318273D01*
X189548390Y-78991484D01*
X112449975Y-78991484D01*
X112386949Y-78334977D01*
X112192130Y-77686994D01*
X111874639Y-77089470D01*
X111865177Y-77075308D01*
X111416481Y-76763124D01*
X109179605Y-79000000D01*
X108820395Y-79000000D01*
X106583519Y-76763124D01*
X106134823Y-77075308D01*
X105814388Y-77671259D01*
X105660000Y-78175724D01*
X105660000Y-77537494D01*
X105704570Y-77146442D01*
X105815968Y-76797434D01*
X105993032Y-76476712D01*
X106229023Y-76196485D01*
X106514945Y-75967438D01*
X106839912Y-75798286D01*
X107195466Y-75694330D01*
X107533433Y-75660000D01*
X108178821Y-75660000D01*
X107686994Y-75807870D01*
%TA.AperFunction,Conductor*%
D18*
G36*
X107686994Y-75807870D02*
G01*
X107089470Y-76125361D01*
X107075308Y-76134823D01*
X106763124Y-76583519D01*
X109000000Y-78820395D01*
X111236876Y-76583519D01*
X110924692Y-76134823D01*
X110328741Y-75814388D01*
X109824276Y-75660000D01*
X192178821Y-75660000D01*
X191686994Y-75807870D01*
X191089470Y-76125361D01*
X191075308Y-76134823D01*
X190763124Y-76583519D01*
X193000000Y-78820395D01*
X195236876Y-76583519D01*
X194924692Y-76134823D01*
X194328741Y-75814388D01*
X193824276Y-75660000D01*
X195467721Y-75660000D01*
X195856775Y-75698147D01*
X196199967Y-75801763D01*
X196516489Y-75970062D01*
X196794299Y-76196637D01*
X197022806Y-76472856D01*
X197193310Y-76788197D01*
X197299319Y-77130656D01*
X197340000Y-77517712D01*
X197340001Y-145178824D01*
X197192130Y-144686994D01*
X196874639Y-144089470D01*
X196865177Y-144075308D01*
X196416481Y-143763124D01*
X194179605Y-146000000D01*
X196416481Y-148236876D01*
X196865177Y-147924692D01*
X197185612Y-147328741D01*
X197340001Y-146824272D01*
X197340001Y-147467711D01*
X197301853Y-147856776D01*
X197198238Y-148199964D01*
X197029939Y-148516489D01*
X196803365Y-148794296D01*
X196527146Y-149022805D01*
X196211803Y-149193310D01*
X195869344Y-149299319D01*
X195482288Y-149340000D01*
X194821179Y-149340000D01*
X195313006Y-149192130D01*
X195910530Y-148874639D01*
X195924692Y-148865177D01*
X196236876Y-148416481D01*
X194000000Y-146179605D01*
X191763124Y-148416481D01*
X192075308Y-148865177D01*
X192671259Y-149185612D01*
X193175724Y-149340000D01*
X109821179Y-149340000D01*
X110313006Y-149192130D01*
X110910530Y-148874639D01*
X110924692Y-148865177D01*
X111236876Y-148416481D01*
X109000000Y-146179605D01*
X106763124Y-148416481D01*
X107075308Y-148865177D01*
X107671259Y-149185612D01*
X108175724Y-149340000D01*
X107532279Y-149340000D01*
X107143224Y-149301853D01*
X106800036Y-149198238D01*
X106483511Y-149029939D01*
X106205704Y-148803365D01*
X105977195Y-148527146D01*
X105806690Y-148211803D01*
X105700681Y-147869344D01*
X105660000Y-147482288D01*
X105660000Y-146821179D01*
X105807870Y-147313006D01*
X106125361Y-147910530D01*
X106134823Y-147924692D01*
X106583519Y-148236876D01*
X108820395Y-146000000D01*
X109179605Y-146000000D01*
X111416481Y-148236876D01*
X111865177Y-147924692D01*
X112185612Y-147328741D01*
X112383626Y-146681727D01*
X112451610Y-146008516D01*
X112449975Y-145991484D01*
X190548390Y-145991484D01*
X190613051Y-146665023D01*
X190807870Y-147313006D01*
X191125361Y-147910530D01*
X191134823Y-147924692D01*
X191583519Y-148236876D01*
X193820395Y-146000000D01*
X191583519Y-143763124D01*
X191134823Y-144075308D01*
X190814388Y-144671259D01*
X190616374Y-145318273D01*
X190548390Y-145991484D01*
X112449975Y-145991484D01*
X112386949Y-145334977D01*
X112192130Y-144686994D01*
X111874639Y-144089470D01*
X111865177Y-144075308D01*
X111416481Y-143763124D01*
X109179605Y-146000000D01*
X108820395Y-146000000D01*
X106583519Y-143763124D01*
X106134823Y-144075308D01*
X105814388Y-144671259D01*
X105660000Y-145175724D01*
X105660000Y-143583519D01*
X106763124Y-143583519D01*
X109000000Y-145820395D01*
X111236876Y-143583519D01*
X191763124Y-143583519D01*
X194000000Y-145820395D01*
X196236876Y-143583519D01*
X195924692Y-143134823D01*
X195328741Y-142814388D01*
X194681727Y-142616374D01*
X194008516Y-142548390D01*
X193334977Y-142613051D01*
X192686994Y-142807870D01*
X192089470Y-143125361D01*
X192075308Y-143134823D01*
X191763124Y-143583519D01*
X111236876Y-143583519D01*
X110924692Y-143134823D01*
X110328741Y-142814388D01*
X109681727Y-142616374D01*
X109008516Y-142548390D01*
X108334977Y-142613051D01*
X107686994Y-142807870D01*
X107089470Y-143125361D01*
X107075308Y-143134823D01*
X106763124Y-143583519D01*
X105660000Y-143583519D01*
X105660000Y-135199000D01*
X124861928Y-135199000D01*
X124874188Y-135323482D01*
X124910498Y-135443180D01*
X124949422Y-135516000D01*
X124910498Y-135588820D01*
X124874188Y-135708518D01*
X124861928Y-135833000D01*
X124861928Y-136683000D01*
X124874188Y-136807482D01*
X124910498Y-136927180D01*
X124969463Y-137037494D01*
X125048815Y-137134185D01*
X125145506Y-137213537D01*
X125255820Y-137272502D01*
X125375518Y-137308812D01*
X125500000Y-137321072D01*
X128000000Y-137321072D01*
X128124482Y-137308812D01*
X128244180Y-137272502D01*
X128354494Y-137213537D01*
X128451185Y-137134185D01*
X128530537Y-137037494D01*
X128540957Y-137018000D01*
X129204678Y-137018000D01*
X129242000Y-137021676D01*
X129279322Y-137018000D01*
X129279333Y-137018000D01*
X129390986Y-137007003D01*
X129534247Y-136963546D01*
X129666276Y-136892974D01*
X129782001Y-136798001D01*
X129805804Y-136768997D01*
X134039802Y-132535000D01*
X134101939Y-132535000D01*
X134301898Y-132495226D01*
X134490256Y-132417205D01*
X134659774Y-132303937D01*
X134803937Y-132159774D01*
X134917205Y-131990256D01*
X134995226Y-131801898D01*
X135035000Y-131601939D01*
X135035000Y-131398061D01*
X134995226Y-131198102D01*
X134917205Y-131009744D01*
X134803937Y-130840226D01*
X134659774Y-130696063D01*
X134490256Y-130582795D01*
X134301898Y-130504774D01*
X134101939Y-130465000D01*
X133898061Y-130465000D01*
X133698102Y-130504774D01*
X133509744Y-130582795D01*
X133340226Y-130696063D01*
X133196063Y-130840226D01*
X133082795Y-131009744D01*
X133004774Y-131198102D01*
X132965000Y-131398061D01*
X132965000Y-131460198D01*
X128927199Y-135498000D01*
X128560200Y-135498000D01*
X128589502Y-135443180D01*
X128625812Y-135323482D01*
X128638072Y-135199000D01*
X128635000Y-135059750D01*
X128476250Y-134901000D01*
X126877000Y-134901000D01*
X126877000Y-134921000D01*
X126623000Y-134921000D01*
X126623000Y-134901000D01*
X125023750Y-134901000D01*
X124865000Y-135059750D01*
X124861928Y-135199000D01*
X105660000Y-135199000D01*
X105660000Y-129139072D01*
X107499000Y-129139072D01*
X107623482Y-129126812D01*
X107743180Y-129090502D01*
X107853494Y-129031537D01*
X107950185Y-128952185D01*
X108029537Y-128855494D01*
X108088502Y-128745180D01*
X108124812Y-128625482D01*
X108137072Y-128501000D01*
X108137072Y-124001000D01*
X108124812Y-123876518D01*
X108088502Y-123756820D01*
X108029537Y-123646506D01*
X107950185Y-123549815D01*
X107853494Y-123470463D01*
X107743180Y-123411498D01*
X107623482Y-123375188D01*
X107499000Y-123362928D01*
X105660000Y-123362928D01*
X105660000Y-103138072D01*
X107499000Y-103138072D01*
X107623482Y-103125812D01*
X107743180Y-103089502D01*
X107853494Y-103030537D01*
X107950185Y-102951185D01*
X108029537Y-102854494D01*
X108088502Y-102744180D01*
X108124812Y-102624482D01*
X108137072Y-102500000D01*
X108137072Y-100088967D01*
X117665000Y-100088967D01*
X117665000Y-100411033D01*
X117727832Y-100726912D01*
X117851082Y-101024463D01*
X118030013Y-101292252D01*
X118257748Y-101519987D01*
X118525537Y-101698918D01*
X118823088Y-101822168D01*
X119138967Y-101885000D01*
X119461033Y-101885000D01*
X119776912Y-101822168D01*
X120074463Y-101698918D01*
X120342252Y-101519987D01*
X120569987Y-101292252D01*
X120639999Y-101187471D01*
X120640000Y-125312530D01*
X120569987Y-125207748D01*
X120342252Y-124980013D01*
X120074463Y-124801082D01*
X119776912Y-124677832D01*
X119461033Y-124615000D01*
X119138967Y-124615000D01*
X118823088Y-124677832D01*
X118525537Y-124801082D01*
X118257748Y-124980013D01*
X118030013Y-125207748D01*
X117851082Y-125475537D01*
X117727832Y-125773088D01*
X117665000Y-126088967D01*
X117665000Y-126411033D01*
X117727832Y-126726912D01*
X117851082Y-127024463D01*
X118030013Y-127292252D01*
X118257748Y-127519987D01*
X118525537Y-127698918D01*
X118823088Y-127822168D01*
X119138967Y-127885000D01*
X119461033Y-127885000D01*
X119776912Y-127822168D01*
X120074463Y-127698918D01*
X120342252Y-127519987D01*
X120569987Y-127292252D01*
X120640000Y-127187470D01*
X120640000Y-129401666D01*
X120636323Y-129438999D01*
X120640000Y-129476332D01*
X120647185Y-129549276D01*
X120650997Y-129587984D01*
X120694453Y-129731245D01*
X120765025Y-129863275D01*
X120836200Y-129950001D01*
X120859999Y-129979000D01*
X120888997Y-130002798D01*
X124686201Y-133800003D01*
X124709999Y-133829001D01*
X124825724Y-133923974D01*
X124918810Y-133973730D01*
X124949689Y-134031500D01*
X124910498Y-134104820D01*
X124874188Y-134224518D01*
X124861928Y-134349000D01*
X124865000Y-134488250D01*
X125023750Y-134647000D01*
X126623000Y-134647000D01*
X126623000Y-134627000D01*
X126877000Y-134627000D01*
X126877000Y-134647000D01*
X128476250Y-134647000D01*
X128635000Y-134488250D01*
X128638072Y-134349000D01*
X128625812Y-134224518D01*
X128589502Y-134104820D01*
X128550311Y-134031500D01*
X128589502Y-133958180D01*
X128625812Y-133838482D01*
X128638072Y-133714000D01*
X128638072Y-132864000D01*
X128625812Y-132739518D01*
X128589502Y-132619820D01*
X128550311Y-132546500D01*
X128589502Y-132473180D01*
X128625812Y-132353482D01*
X128638072Y-132229000D01*
X128638072Y-131379000D01*
X128625812Y-131254518D01*
X128589502Y-131134820D01*
X128550578Y-131062000D01*
X128589502Y-130989180D01*
X128625812Y-130869482D01*
X128638072Y-130745000D01*
X128638072Y-129895000D01*
X128637087Y-129885001D01*
X191242679Y-129885001D01*
X191280001Y-129888677D01*
X191317323Y-129885001D01*
X191317334Y-129885001D01*
X191428987Y-129874004D01*
X191572248Y-129830547D01*
X191704277Y-129759975D01*
X191820002Y-129665002D01*
X191843804Y-129635999D01*
X192373843Y-129105961D01*
X192542580Y-129231037D01*
X192796913Y-129351246D01*
X192930961Y-129391904D01*
X193153000Y-129269915D01*
X193153000Y-128127000D01*
X193407000Y-128127000D01*
X193407000Y-129269915D01*
X193629039Y-129391904D01*
X193763087Y-129351246D01*
X194017420Y-129231037D01*
X194243414Y-129063519D01*
X194432385Y-128855131D01*
X194577070Y-128613881D01*
X194671909Y-128349040D01*
X194550624Y-128127000D01*
X193407000Y-128127000D01*
X193153000Y-128127000D01*
X193133000Y-128127000D01*
X193133000Y-127873000D01*
X193153000Y-127873000D01*
X193153000Y-126730085D01*
X193407000Y-126730085D01*
X193407000Y-127873000D01*
X194550624Y-127873000D01*
X194671909Y-127650960D01*
X194577070Y-127386119D01*
X194432385Y-127144869D01*
X194243414Y-126936481D01*
X194017420Y-126768963D01*
X193763087Y-126648754D01*
X193629039Y-126608096D01*
X193407000Y-126730085D01*
X193153000Y-126730085D01*
X192930961Y-126608096D01*
X192796913Y-126648754D01*
X192542580Y-126768963D01*
X192501280Y-126799576D01*
X192499975Y-126797134D01*
X192428800Y-126710408D01*
X192405002Y-126681410D01*
X192376005Y-126657613D01*
X184325297Y-118606906D01*
X184383933Y-118509135D01*
X184388320Y-118519727D01*
X184545363Y-118754759D01*
X184745241Y-118954637D01*
X184980273Y-119111680D01*
X185241426Y-119219853D01*
X185518665Y-119275000D01*
X185801335Y-119275000D01*
X186078574Y-119219853D01*
X186339727Y-119111680D01*
X186574759Y-118954637D01*
X186774637Y-118754759D01*
X186930000Y-118522241D01*
X187085363Y-118754759D01*
X187285241Y-118954637D01*
X187520273Y-119111680D01*
X187781426Y-119219853D01*
X188058665Y-119275000D01*
X188341335Y-119275000D01*
X188618574Y-119219853D01*
X188879727Y-119111680D01*
X189114759Y-118954637D01*
X189314637Y-118754759D01*
X189470000Y-118522241D01*
X189625363Y-118754759D01*
X189825241Y-118954637D01*
X190060273Y-119111680D01*
X190321426Y-119219853D01*
X190598665Y-119275000D01*
X190881335Y-119275000D01*
X191158574Y-119219853D01*
X191419727Y-119111680D01*
X191654759Y-118954637D01*
X191854637Y-118754759D01*
X192010000Y-118522241D01*
X192165363Y-118754759D01*
X192365241Y-118954637D01*
X192600273Y-119111680D01*
X192861426Y-119219853D01*
X193138665Y-119275000D01*
X193421335Y-119275000D01*
X193698574Y-119219853D01*
X193959727Y-119111680D01*
X194194759Y-118954637D01*
X194394637Y-118754759D01*
X194551680Y-118519727D01*
X194659853Y-118258574D01*
X194715000Y-117981335D01*
X194715000Y-117698665D01*
X194659853Y-117421426D01*
X194551680Y-117160273D01*
X194394637Y-116925241D01*
X194194759Y-116725363D01*
X193959727Y-116568320D01*
X193698574Y-116460147D01*
X193421335Y-116405000D01*
X193138665Y-116405000D01*
X192861426Y-116460147D01*
X192600273Y-116568320D01*
X192365241Y-116725363D01*
X192165363Y-116925241D01*
X192010000Y-117157759D01*
X191854637Y-116925241D01*
X191654759Y-116725363D01*
X191419727Y-116568320D01*
X191158574Y-116460147D01*
X190881335Y-116405000D01*
X190598665Y-116405000D01*
X190321426Y-116460147D01*
X190060273Y-116568320D01*
X189825241Y-116725363D01*
X189625363Y-116925241D01*
X189470000Y-117157759D01*
X189314637Y-116925241D01*
X189114759Y-116725363D01*
X188879727Y-116568320D01*
X188618574Y-116460147D01*
X188341335Y-116405000D01*
X188058665Y-116405000D01*
X187781426Y-116460147D01*
X187520273Y-116568320D01*
X187285241Y-116725363D01*
X187085363Y-116925241D01*
X186930000Y-117157759D01*
X186774637Y-116925241D01*
X186574759Y-116725363D01*
X186339727Y-116568320D01*
X186078574Y-116460147D01*
X185801335Y-116405000D01*
X185518665Y-116405000D01*
X185336114Y-116441312D01*
X170864215Y-101969413D01*
X170990256Y-101917205D01*
X171159774Y-101803937D01*
X171303937Y-101659774D01*
X171417205Y-101490256D01*
X171495226Y-101301898D01*
X171535000Y-101101939D01*
X171535000Y-100898061D01*
X171495226Y-100698102D01*
X171417205Y-100509744D01*
X171303937Y-100340226D01*
X171159774Y-100196063D01*
X170990256Y-100082795D01*
X170801898Y-100004774D01*
X170601939Y-99965000D01*
X170539802Y-99965000D01*
X169280000Y-98705199D01*
X169280000Y-97718043D01*
X169434759Y-97614637D01*
X169634637Y-97414759D01*
X169790000Y-97182241D01*
X169945363Y-97414759D01*
X170145241Y-97614637D01*
X170380273Y-97771680D01*
X170641426Y-97879853D01*
X170918665Y-97935000D01*
X171201335Y-97935000D01*
X171478574Y-97879853D01*
X171739727Y-97771680D01*
X171974759Y-97614637D01*
X172174637Y-97414759D01*
X172331680Y-97179727D01*
X172439853Y-96918574D01*
X172495000Y-96641335D01*
X172495000Y-96358665D01*
X172439853Y-96081426D01*
X172331680Y-95820273D01*
X172174637Y-95585241D01*
X171974759Y-95385363D01*
X171739727Y-95228320D01*
X171478574Y-95120147D01*
X171201335Y-95065000D01*
X170918665Y-95065000D01*
X170641426Y-95120147D01*
X170380273Y-95228320D01*
X170145241Y-95385363D01*
X169945363Y-95585241D01*
X169790000Y-95817759D01*
X169634637Y-95585241D01*
X169434759Y-95385363D01*
X169199727Y-95228320D01*
X168938574Y-95120147D01*
X168661335Y-95065000D01*
X168378665Y-95065000D01*
X168101426Y-95120147D01*
X167840273Y-95228320D01*
X167605241Y-95385363D01*
X167405363Y-95585241D01*
X167250000Y-95817759D01*
X167094637Y-95585241D01*
X166894759Y-95385363D01*
X166659727Y-95228320D01*
X166398574Y-95120147D01*
X166121335Y-95065000D01*
X165838665Y-95065000D01*
X165561426Y-95120147D01*
X165300273Y-95228320D01*
X165065241Y-95385363D01*
X164865363Y-95585241D01*
X164710000Y-95817759D01*
X164554637Y-95585241D01*
X164354759Y-95385363D01*
X164119727Y-95228320D01*
X163858574Y-95120147D01*
X163581335Y-95065000D01*
X163298665Y-95065000D01*
X163116114Y-95101312D01*
X160549726Y-92534925D01*
X173460124Y-92534925D01*
X173740000Y-92814802D01*
X173740001Y-99294083D01*
X173632394Y-99382394D01*
X173528169Y-99509392D01*
X173450722Y-99654284D01*
X173403031Y-99811500D01*
X173386928Y-99975000D01*
X173386928Y-100375000D01*
X173403031Y-100538500D01*
X173450722Y-100695716D01*
X173528169Y-100840608D01*
X173632394Y-100967606D01*
X173671866Y-101000000D01*
X173632394Y-101032394D01*
X173528169Y-101159392D01*
X173450722Y-101304284D01*
X173403031Y-101461500D01*
X173386928Y-101625000D01*
X173386928Y-102025000D01*
X173403031Y-102188500D01*
X173450722Y-102345716D01*
X173528169Y-102490608D01*
X173632394Y-102617606D01*
X173759392Y-102721831D01*
X173904284Y-102799278D01*
X174061500Y-102846969D01*
X174225000Y-102863072D01*
X174775000Y-102863072D01*
X174787081Y-102861882D01*
X179525000Y-107599802D01*
X179525000Y-107761939D01*
X179564774Y-107961898D01*
X179642795Y-108150256D01*
X179756063Y-108319774D01*
X179900226Y-108463937D01*
X180069744Y-108577205D01*
X180258102Y-108655226D01*
X180458061Y-108695000D01*
X180661939Y-108695000D01*
X180861898Y-108655226D01*
X181050256Y-108577205D01*
X181219774Y-108463937D01*
X181363937Y-108319774D01*
X181477205Y-108150256D01*
X181555226Y-107961898D01*
X181595000Y-107761939D01*
X181595000Y-107558061D01*
X181555226Y-107358102D01*
X181477205Y-107169744D01*
X181363937Y-107000226D01*
X181219774Y-106856063D01*
X181050256Y-106742795D01*
X180861898Y-106664774D01*
X180709203Y-106634401D01*
X175603597Y-101528796D01*
X175596969Y-101461500D01*
X175549278Y-101304284D01*
X175471831Y-101159392D01*
X175367606Y-101032394D01*
X175328134Y-101000000D01*
X175367606Y-100967606D01*
X175471831Y-100840608D01*
X175549278Y-100695716D01*
X175596969Y-100538500D01*
X175613072Y-100375000D01*
X175613072Y-99975000D01*
X175596969Y-99811500D01*
X175549278Y-99654284D01*
X175471831Y-99509392D01*
X175367606Y-99382394D01*
X175260000Y-99294084D01*
X175260000Y-92537323D01*
X175263676Y-92500000D01*
X175260000Y-92462677D01*
X175260000Y-92462667D01*
X175249003Y-92351014D01*
X175205546Y-92207753D01*
X175200065Y-92197498D01*
X175134974Y-92075723D01*
X175063799Y-91988997D01*
X175040001Y-91959999D01*
X175011004Y-91936202D01*
X174338728Y-91263927D01*
X174314926Y-91234924D01*
X174199201Y-91139951D01*
X174067172Y-91069379D01*
X173923911Y-91025922D01*
X173812258Y-91014925D01*
X173812247Y-91014925D01*
X173774925Y-91011249D01*
X173737603Y-91014925D01*
X130335400Y-91014925D01*
X130298077Y-91011249D01*
X130260754Y-91014925D01*
X130260744Y-91014925D01*
X130149091Y-91025922D01*
X130043936Y-91057820D01*
X130005830Y-91069379D01*
X129873800Y-91139951D01*
X129828025Y-91177518D01*
X129758076Y-91234924D01*
X129734278Y-91263922D01*
X128575126Y-92423074D01*
X128589502Y-92396180D01*
X128625812Y-92276482D01*
X128638072Y-92152000D01*
X128638072Y-91302000D01*
X128625812Y-91177518D01*
X128589502Y-91057820D01*
X128550311Y-90984500D01*
X128589502Y-90911180D01*
X128625812Y-90791482D01*
X128638072Y-90667000D01*
X128635000Y-90527750D01*
X128476250Y-90369000D01*
X126877000Y-90369000D01*
X126877000Y-90389000D01*
X126623000Y-90389000D01*
X126623000Y-90369000D01*
X126603000Y-90369000D01*
X126603000Y-90115000D01*
X126623000Y-90115000D01*
X126623000Y-89340750D01*
X126877000Y-89340750D01*
X126877000Y-90115000D01*
X128476250Y-90115000D01*
X128635000Y-89956250D01*
X128638072Y-89817000D01*
X128625812Y-89692518D01*
X128589502Y-89572820D01*
X128530537Y-89462506D01*
X128451185Y-89365815D01*
X128354494Y-89286463D01*
X128244180Y-89227498D01*
X128124482Y-89191188D01*
X128000000Y-89178928D01*
X127035750Y-89182000D01*
X126877000Y-89340750D01*
X126623000Y-89340750D01*
X126464250Y-89182000D01*
X125894616Y-89180185D01*
X127962920Y-87111882D01*
X127975000Y-87113072D01*
X128375000Y-87113072D01*
X128538500Y-87096969D01*
X128695716Y-87049278D01*
X128840608Y-86971831D01*
X128967606Y-86867606D01*
X129000000Y-86828134D01*
X129032394Y-86867606D01*
X129159392Y-86971831D01*
X129304284Y-87049278D01*
X129461500Y-87096969D01*
X129625000Y-87113072D01*
X130025000Y-87113072D01*
X130188500Y-87096969D01*
X130345716Y-87049278D01*
X130490608Y-86971831D01*
X130617606Y-86867606D01*
X130705916Y-86760000D01*
X151042678Y-86760000D01*
X151080000Y-86763676D01*
X151117322Y-86760000D01*
X151117333Y-86760000D01*
X151228986Y-86749003D01*
X151372247Y-86705546D01*
X151504276Y-86634974D01*
X151620001Y-86540001D01*
X151643804Y-86510997D01*
X155496114Y-82658688D01*
X155678665Y-82695000D01*
X155961335Y-82695000D01*
X156238574Y-82639853D01*
X156499727Y-82531680D01*
X156734759Y-82374637D01*
X156934637Y-82174759D01*
X157090000Y-81942241D01*
X157245363Y-82174759D01*
X157445241Y-82374637D01*
X157680273Y-82531680D01*
X157941426Y-82639853D01*
X158218665Y-82695000D01*
X158501335Y-82695000D01*
X158778574Y-82639853D01*
X159039727Y-82531680D01*
X159274759Y-82374637D01*
X159474637Y-82174759D01*
X159630000Y-81942241D01*
X159785363Y-82174759D01*
X159985241Y-82374637D01*
X160220273Y-82531680D01*
X160481426Y-82639853D01*
X160758665Y-82695000D01*
X161041335Y-82695000D01*
X161318574Y-82639853D01*
X161579727Y-82531680D01*
X161814759Y-82374637D01*
X162014637Y-82174759D01*
X162170000Y-81942241D01*
X162325363Y-82174759D01*
X162525241Y-82374637D01*
X162760273Y-82531680D01*
X163021426Y-82639853D01*
X163298665Y-82695000D01*
X163581335Y-82695000D01*
X163858574Y-82639853D01*
X164119727Y-82531680D01*
X164354759Y-82374637D01*
X164554637Y-82174759D01*
X164710000Y-81942241D01*
X164865363Y-82174759D01*
X165065241Y-82374637D01*
X165300273Y-82531680D01*
X165561426Y-82639853D01*
X165838665Y-82695000D01*
X166121335Y-82695000D01*
X166398574Y-82639853D01*
X166659727Y-82531680D01*
X166894759Y-82374637D01*
X167094637Y-82174759D01*
X167250000Y-81942241D01*
X167405363Y-82174759D01*
X167605241Y-82374637D01*
X167840273Y-82531680D01*
X168101426Y-82639853D01*
X168378665Y-82695000D01*
X168661335Y-82695000D01*
X168938574Y-82639853D01*
X169199727Y-82531680D01*
X169434759Y-82374637D01*
X169634637Y-82174759D01*
X169790000Y-81942241D01*
X169945363Y-82174759D01*
X170145241Y-82374637D01*
X170380273Y-82531680D01*
X170641426Y-82639853D01*
X170918665Y-82695000D01*
X171201335Y-82695000D01*
X171478574Y-82639853D01*
X171739727Y-82531680D01*
X171974759Y-82374637D01*
X172174637Y-82174759D01*
X172331680Y-81939727D01*
X172439853Y-81678574D01*
X172491987Y-81416481D01*
X190763124Y-81416481D01*
X191075308Y-81865177D01*
X191671259Y-82185612D01*
X192318273Y-82383626D01*
X192991484Y-82451610D01*
X193665023Y-82386949D01*
X194313006Y-82192130D01*
X194910530Y-81874639D01*
X194924692Y-81865177D01*
X195236876Y-81416481D01*
X193000000Y-79179605D01*
X190763124Y-81416481D01*
X172491987Y-81416481D01*
X172495000Y-81401335D01*
X172495000Y-81118665D01*
X172439853Y-80841426D01*
X172331680Y-80580273D01*
X172174637Y-80345241D01*
X171974759Y-80145363D01*
X171739727Y-79988320D01*
X171478574Y-79880147D01*
X171201335Y-79825000D01*
X170918665Y-79825000D01*
X170641426Y-79880147D01*
X170380273Y-79988320D01*
X170145241Y-80145363D01*
X169945363Y-80345241D01*
X169790000Y-80577759D01*
X169634637Y-80345241D01*
X169434759Y-80145363D01*
X169199727Y-79988320D01*
X168938574Y-79880147D01*
X168661335Y-79825000D01*
X168378665Y-79825000D01*
X168101426Y-79880147D01*
X167840273Y-79988320D01*
X167605241Y-80145363D01*
X167405363Y-80345241D01*
X167250000Y-80577759D01*
X167094637Y-80345241D01*
X166894759Y-80145363D01*
X166659727Y-79988320D01*
X166398574Y-79880147D01*
X166121335Y-79825000D01*
X165838665Y-79825000D01*
X165561426Y-79880147D01*
X165300273Y-79988320D01*
X165065241Y-80145363D01*
X164865363Y-80345241D01*
X164710000Y-80577759D01*
X164554637Y-80345241D01*
X164354759Y-80145363D01*
X164119727Y-79988320D01*
X163858574Y-79880147D01*
X163581335Y-79825000D01*
X163298665Y-79825000D01*
X163021426Y-79880147D01*
X162760273Y-79988320D01*
X162525241Y-80145363D01*
X162325363Y-80345241D01*
X162170000Y-80577759D01*
X162014637Y-80345241D01*
X161814759Y-80145363D01*
X161579727Y-79988320D01*
X161318574Y-79880147D01*
X161041335Y-79825000D01*
X160758665Y-79825000D01*
X160481426Y-79880147D01*
X160220273Y-79988320D01*
X159985241Y-80145363D01*
X159785363Y-80345241D01*
X159630000Y-80577759D01*
X159474637Y-80345241D01*
X159274759Y-80145363D01*
X159039727Y-79988320D01*
X158778574Y-79880147D01*
X158501335Y-79825000D01*
X158218665Y-79825000D01*
X157941426Y-79880147D01*
X157680273Y-79988320D01*
X157445241Y-80145363D01*
X157245363Y-80345241D01*
X157090000Y-80577759D01*
X156934637Y-80345241D01*
X156734759Y-80145363D01*
X156499727Y-79988320D01*
X156238574Y-79880147D01*
X155961335Y-79825000D01*
X155678665Y-79825000D01*
X155401426Y-79880147D01*
X155140273Y-79988320D01*
X154905241Y-80145363D01*
X154705363Y-80345241D01*
X154550000Y-80577759D01*
X154394637Y-80345241D01*
X154194759Y-80145363D01*
X153959727Y-79988320D01*
X153698574Y-79880147D01*
X153421335Y-79825000D01*
X153138665Y-79825000D01*
X152861426Y-79880147D01*
X152600273Y-79988320D01*
X152365241Y-80145363D01*
X152165363Y-80345241D01*
X152010000Y-80577759D01*
X151854637Y-80345241D01*
X151654759Y-80145363D01*
X151419727Y-79988320D01*
X151158574Y-79880147D01*
X150881335Y-79825000D01*
X150598665Y-79825000D01*
X150321426Y-79880147D01*
X150060273Y-79988320D01*
X149825241Y-80145363D01*
X149625363Y-80345241D01*
X149470000Y-80577759D01*
X149314637Y-80345241D01*
X149114759Y-80145363D01*
X148879727Y-79988320D01*
X148618574Y-79880147D01*
X148341335Y-79825000D01*
X148058665Y-79825000D01*
X147781426Y-79880147D01*
X147520273Y-79988320D01*
X147285241Y-80145363D01*
X147085363Y-80345241D01*
X146930000Y-80577759D01*
X146774637Y-80345241D01*
X146574759Y-80145363D01*
X146339727Y-79988320D01*
X146078574Y-79880147D01*
X145801335Y-79825000D01*
X145518665Y-79825000D01*
X145241426Y-79880147D01*
X144980273Y-79988320D01*
X144745241Y-80145363D01*
X144545363Y-80345241D01*
X144390000Y-80577759D01*
X144234637Y-80345241D01*
X144034759Y-80145363D01*
X143799727Y-79988320D01*
X143538574Y-79880147D01*
X143261335Y-79825000D01*
X142978665Y-79825000D01*
X142701426Y-79880147D01*
X142440273Y-79988320D01*
X142205241Y-80145363D01*
X142005363Y-80345241D01*
X141850000Y-80577759D01*
X141694637Y-80345241D01*
X141494759Y-80145363D01*
X141259727Y-79988320D01*
X140998574Y-79880147D01*
X140721335Y-79825000D01*
X140438665Y-79825000D01*
X140161426Y-79880147D01*
X139900273Y-79988320D01*
X139665241Y-80145363D01*
X139465363Y-80345241D01*
X139308320Y-80580273D01*
X139303933Y-80590865D01*
X139192385Y-80404869D01*
X139003414Y-80196481D01*
X138777420Y-80028963D01*
X138523087Y-79908754D01*
X138389039Y-79868096D01*
X138167000Y-79990085D01*
X138167000Y-81133000D01*
X138187000Y-81133000D01*
X138187000Y-81387000D01*
X138167000Y-81387000D01*
X138167000Y-81407000D01*
X137913000Y-81407000D01*
X137913000Y-81387000D01*
X137893000Y-81387000D01*
X137893000Y-81133000D01*
X137913000Y-81133000D01*
X137913000Y-79990085D01*
X137690961Y-79868096D01*
X137556913Y-79908754D01*
X137302580Y-80028963D01*
X137076586Y-80196481D01*
X136887615Y-80404869D01*
X136776067Y-80590865D01*
X136771680Y-80580273D01*
X136614637Y-80345241D01*
X136414759Y-80145363D01*
X136179727Y-79988320D01*
X135918574Y-79880147D01*
X135641335Y-79825000D01*
X135358665Y-79825000D01*
X135081426Y-79880147D01*
X134820273Y-79988320D01*
X134585241Y-80145363D01*
X134385363Y-80345241D01*
X134228320Y-80580273D01*
X134120147Y-80841426D01*
X134065000Y-81118665D01*
X134065000Y-81401335D01*
X134120147Y-81678574D01*
X134228320Y-81939727D01*
X134385363Y-82174759D01*
X134450604Y-82240000D01*
X130705916Y-82240000D01*
X130617606Y-82132394D01*
X130490608Y-82028169D01*
X130345716Y-81950722D01*
X130188500Y-81903031D01*
X130025000Y-81886928D01*
X129625000Y-81886928D01*
X129461500Y-81903031D01*
X129304284Y-81950722D01*
X129159392Y-82028169D01*
X129032394Y-82132394D01*
X129000000Y-82171866D01*
X128967606Y-82132394D01*
X128840608Y-82028169D01*
X128695716Y-81950722D01*
X128538500Y-81903031D01*
X128375000Y-81886928D01*
X127975000Y-81886928D01*
X127811500Y-81903031D01*
X127654284Y-81950722D01*
X127509392Y-82028169D01*
X127382394Y-82132394D01*
X127278169Y-82259392D01*
X127200722Y-82404284D01*
X127153031Y-82561500D01*
X127136928Y-82725000D01*
X127136928Y-82963270D01*
X121489003Y-88611196D01*
X121459999Y-88634999D01*
X121404871Y-88702174D01*
X121365026Y-88750724D01*
X121341652Y-88794454D01*
X121294454Y-88882754D01*
X121250997Y-89026015D01*
X121240000Y-89137668D01*
X121240000Y-89137678D01*
X121236324Y-89175000D01*
X121240000Y-89212322D01*
X121240000Y-91992462D01*
X121101939Y-91965000D01*
X120898061Y-91965000D01*
X120698102Y-92004774D01*
X120509744Y-92082795D01*
X120340226Y-92196063D01*
X120196063Y-92340226D01*
X120082795Y-92509744D01*
X120004774Y-92698102D01*
X119965000Y-92898061D01*
X119965000Y-93101939D01*
X120004774Y-93301898D01*
X120082795Y-93490256D01*
X120196063Y-93659774D01*
X120340226Y-93803937D01*
X120509744Y-93917205D01*
X120639999Y-93971159D01*
X120639999Y-99312529D01*
X120569987Y-99207748D01*
X120342252Y-98980013D01*
X120074463Y-98801082D01*
X119776912Y-98677832D01*
X119461033Y-98615000D01*
X119138967Y-98615000D01*
X118823088Y-98677832D01*
X118525537Y-98801082D01*
X118257748Y-98980013D01*
X118030013Y-99207748D01*
X117851082Y-99475537D01*
X117727832Y-99773088D01*
X117665000Y-100088967D01*
X108137072Y-100088967D01*
X108137072Y-98000000D01*
X108124812Y-97875518D01*
X108088502Y-97755820D01*
X108029537Y-97645506D01*
X107950185Y-97548815D01*
X107853494Y-97469463D01*
X107743180Y-97410498D01*
X107623482Y-97374188D01*
X107499000Y-97361928D01*
X105660000Y-97361928D01*
X105660000Y-81416481D01*
X106763124Y-81416481D01*
X107075308Y-81865177D01*
X107671259Y-82185612D01*
X108318273Y-82383626D01*
X108991484Y-82451610D01*
X109665023Y-82386949D01*
X110313006Y-82192130D01*
X110910530Y-81874639D01*
X110924692Y-81865177D01*
X111236876Y-81416481D01*
X109000000Y-79179605D01*
X106763124Y-81416481D01*
X105660000Y-81416481D01*
X105660000Y-79821179D01*
X105807870Y-80313006D01*
X106125361Y-80910530D01*
X106134823Y-80924692D01*
X106583519Y-81236876D01*
X108820395Y-79000000D01*
X109179605Y-79000000D01*
X111416481Y-81236876D01*
X111865177Y-80924692D01*
X112185612Y-80328741D01*
X112383626Y-79681727D01*
X112451610Y-79008516D01*
X112449975Y-78991484D01*
X189548390Y-78991484D01*
X189613051Y-79665023D01*
X189807870Y-80313006D01*
X190125361Y-80910530D01*
X190134823Y-80924692D01*
X190583519Y-81236876D01*
X192820395Y-79000000D01*
X193179605Y-79000000D01*
X195416481Y-81236876D01*
X195865177Y-80924692D01*
X196185612Y-80328741D01*
X196383626Y-79681727D01*
X196451610Y-79008516D01*
X196386949Y-78334977D01*
X196192130Y-77686994D01*
X195874639Y-77089470D01*
X195865177Y-77075308D01*
X195416481Y-76763124D01*
X193179605Y-79000000D01*
X192820395Y-79000000D01*
X190583519Y-76763124D01*
X190134823Y-77075308D01*
X189814388Y-77671259D01*
X189616374Y-78318273D01*
X189548390Y-78991484D01*
X112449975Y-78991484D01*
X112386949Y-78334977D01*
X112192130Y-77686994D01*
X111874639Y-77089470D01*
X111865177Y-77075308D01*
X111416481Y-76763124D01*
X109179605Y-79000000D01*
X108820395Y-79000000D01*
X106583519Y-76763124D01*
X106134823Y-77075308D01*
X105814388Y-77671259D01*
X105660000Y-78175724D01*
X105660000Y-77537494D01*
X105704570Y-77146442D01*
X105815968Y-76797434D01*
X105993032Y-76476712D01*
X106229023Y-76196485D01*
X106514945Y-75967438D01*
X106839912Y-75798286D01*
X107195466Y-75694330D01*
X107533433Y-75660000D01*
X108178821Y-75660000D01*
X107686994Y-75807870D01*
G37*
%TD.AperFunction*%
D17*
X183291071Y-116545872D02*
X183247000Y-116570085D01*
X183247000Y-117713000D01*
X183267000Y-117713000D01*
X183267000Y-117967000D01*
X183247000Y-117967000D01*
X183247000Y-117987000D01*
X182993000Y-117987000D01*
X182993000Y-117967000D01*
X182973000Y-117967000D01*
X182973000Y-117713000D01*
X182993000Y-117713000D01*
X182993000Y-116570085D01*
X182770961Y-116448096D01*
X182636913Y-116488754D01*
X182382580Y-116608963D01*
X182156586Y-116776481D01*
X181967615Y-116984869D01*
X181856067Y-117170865D01*
X181851680Y-117160273D01*
X181694637Y-116925241D01*
X181494759Y-116725363D01*
X181340000Y-116621957D01*
X181340000Y-115117325D01*
X181343676Y-115080000D01*
X181340000Y-115042675D01*
X181340000Y-115042667D01*
X181329003Y-114931014D01*
X181285546Y-114787753D01*
X181214974Y-114655724D01*
X181120001Y-114539999D01*
X181091003Y-114516201D01*
X171535000Y-104960199D01*
X171535000Y-104898061D01*
X171508119Y-104762920D01*
X183291071Y-116545872D01*
%TA.AperFunction,Conductor*%
D18*
G36*
X183291071Y-116545872D02*
G01*
X183247000Y-116570085D01*
X183247000Y-117713000D01*
X183267000Y-117713000D01*
X183267000Y-117967000D01*
X183247000Y-117967000D01*
X183247000Y-117987000D01*
X182993000Y-117987000D01*
X182993000Y-117967000D01*
X182973000Y-117967000D01*
X182973000Y-117713000D01*
X182993000Y-117713000D01*
X182993000Y-116570085D01*
X182770961Y-116448096D01*
X182636913Y-116488754D01*
X182382580Y-116608963D01*
X182156586Y-116776481D01*
X181967615Y-116984869D01*
X181856067Y-117170865D01*
X181851680Y-117160273D01*
X181694637Y-116925241D01*
X181494759Y-116725363D01*
X181340000Y-116621957D01*
X181340000Y-115117325D01*
X181343676Y-115080000D01*
X181340000Y-115042675D01*
X181340000Y-115042667D01*
X181329003Y-114931014D01*
X181285546Y-114787753D01*
X181214974Y-114655724D01*
X181120001Y-114539999D01*
X181091003Y-114516201D01*
X171535000Y-104960199D01*
X171535000Y-104898061D01*
X171508119Y-104762920D01*
X183291071Y-116545872D01*
G37*
%TD.AperFunction*%
D17*
X143247000Y-96373000D02*
X143267000Y-96373000D01*
X143267000Y-96627000D01*
X143247000Y-96627000D01*
X143247000Y-97769915D01*
X143469039Y-97891904D01*
X143603087Y-97851246D01*
X143857420Y-97731037D01*
X144083414Y-97563519D01*
X144272385Y-97355131D01*
X144383933Y-97169135D01*
X144388320Y-97179727D01*
X144545363Y-97414759D01*
X144745241Y-97614637D01*
X144980273Y-97771680D01*
X145241426Y-97879853D01*
X145518665Y-97935000D01*
X145801335Y-97935000D01*
X146078574Y-97879853D01*
X146339727Y-97771680D01*
X146574759Y-97614637D01*
X146774637Y-97414759D01*
X146930000Y-97182241D01*
X147085363Y-97414759D01*
X147285241Y-97614637D01*
X147520273Y-97771680D01*
X147781426Y-97879853D01*
X148058665Y-97935000D01*
X148341335Y-97935000D01*
X148618574Y-97879853D01*
X148879727Y-97771680D01*
X149114759Y-97614637D01*
X149314637Y-97414759D01*
X149470000Y-97182241D01*
X149625363Y-97414759D01*
X149825241Y-97614637D01*
X150060273Y-97771680D01*
X150321426Y-97879853D01*
X150598665Y-97935000D01*
X150881335Y-97935000D01*
X151158574Y-97879853D01*
X151419727Y-97771680D01*
X151654759Y-97614637D01*
X151854637Y-97414759D01*
X152010000Y-97182241D01*
X152165363Y-97414759D01*
X152365241Y-97614637D01*
X152600273Y-97771680D01*
X152861426Y-97879853D01*
X153138665Y-97935000D01*
X153421335Y-97935000D01*
X153698574Y-97879853D01*
X153959727Y-97771680D01*
X154194759Y-97614637D01*
X154394637Y-97414759D01*
X154550000Y-97182241D01*
X154705363Y-97414759D01*
X154905241Y-97614637D01*
X155140273Y-97771680D01*
X155401426Y-97879853D01*
X155678665Y-97935000D01*
X155961335Y-97935000D01*
X156238574Y-97879853D01*
X156499727Y-97771680D01*
X156734759Y-97614637D01*
X156934637Y-97414759D01*
X157090000Y-97182241D01*
X157245363Y-97414759D01*
X157445241Y-97614637D01*
X157680273Y-97771680D01*
X157941426Y-97879853D01*
X158218665Y-97935000D01*
X158501335Y-97935000D01*
X158778574Y-97879853D01*
X159039727Y-97771680D01*
X159274759Y-97614637D01*
X159474637Y-97414759D01*
X159630000Y-97182241D01*
X159785363Y-97414759D01*
X159985241Y-97614637D01*
X160220273Y-97771680D01*
X160481426Y-97879853D01*
X160758665Y-97935000D01*
X161041335Y-97935000D01*
X161318574Y-97879853D01*
X161579727Y-97771680D01*
X161814759Y-97614637D01*
X162014637Y-97414759D01*
X162170000Y-97182241D01*
X162325363Y-97414759D01*
X162525241Y-97614637D01*
X162760273Y-97771680D01*
X163021426Y-97879853D01*
X163298665Y-97935000D01*
X163581335Y-97935000D01*
X163858574Y-97879853D01*
X164119727Y-97771680D01*
X164354759Y-97614637D01*
X164554637Y-97414759D01*
X164710000Y-97182241D01*
X164865363Y-97414759D01*
X165065241Y-97614637D01*
X165300273Y-97771680D01*
X165560000Y-97879262D01*
X165560000Y-98462677D01*
X165556324Y-98500000D01*
X165560000Y-98537322D01*
X165560000Y-98537332D01*
X165570997Y-98648985D01*
X165608374Y-98772201D01*
X165614454Y-98792246D01*
X165685026Y-98924276D01*
X165718934Y-98965593D01*
X165779999Y-99040001D01*
X165809003Y-99063804D01*
X170737080Y-103991881D01*
X170601939Y-103965000D01*
X170398061Y-103965000D01*
X170198102Y-104004774D01*
X170009744Y-104082795D01*
X169840226Y-104196063D01*
X169696063Y-104340226D01*
X169582795Y-104509744D01*
X169504774Y-104698102D01*
X169465000Y-104898061D01*
X169465000Y-105101939D01*
X169504774Y-105301898D01*
X169582795Y-105490256D01*
X169696063Y-105659774D01*
X169840226Y-105803937D01*
X170009744Y-105917205D01*
X170198102Y-105995226D01*
X170398061Y-106035000D01*
X170460199Y-106035000D01*
X179820001Y-115394803D01*
X179820000Y-116621956D01*
X179665241Y-116725363D01*
X179465363Y-116925241D01*
X179310000Y-117157759D01*
X179154637Y-116925241D01*
X178954759Y-116725363D01*
X178719727Y-116568320D01*
X178458574Y-116460147D01*
X178181335Y-116405000D01*
X177898665Y-116405000D01*
X177621426Y-116460147D01*
X177360273Y-116568320D01*
X177125241Y-116725363D01*
X176925363Y-116925241D01*
X176770000Y-117157759D01*
X176614637Y-116925241D01*
X176414759Y-116725363D01*
X176179727Y-116568320D01*
X175918574Y-116460147D01*
X175641335Y-116405000D01*
X175358665Y-116405000D01*
X175081426Y-116460147D01*
X174820273Y-116568320D01*
X174585241Y-116725363D01*
X174385363Y-116925241D01*
X174228320Y-117160273D01*
X174120147Y-117421426D01*
X174067718Y-117685000D01*
X172278711Y-117685000D01*
X172303937Y-117659774D01*
X172417205Y-117490256D01*
X172495226Y-117301898D01*
X172535000Y-117101939D01*
X172535000Y-116898061D01*
X172495226Y-116698102D01*
X172417205Y-116509744D01*
X172303937Y-116340226D01*
X172159774Y-116196063D01*
X171990256Y-116082795D01*
X171801898Y-116004774D01*
X171601939Y-115965000D01*
X171539803Y-115965000D01*
X162009801Y-106435000D01*
X162261335Y-106435000D01*
X162538574Y-106379853D01*
X162799727Y-106271680D01*
X163034759Y-106114637D01*
X163234637Y-105914759D01*
X163390000Y-105682241D01*
X163545363Y-105914759D01*
X163745241Y-106114637D01*
X163980273Y-106271680D01*
X164241426Y-106379853D01*
X164518665Y-106435000D01*
X164801335Y-106435000D01*
X165078574Y-106379853D01*
X165339727Y-106271680D01*
X165574759Y-106114637D01*
X165774637Y-105914759D01*
X165930000Y-105682241D01*
X166085363Y-105914759D01*
X166285241Y-106114637D01*
X166520273Y-106271680D01*
X166781426Y-106379853D01*
X167058665Y-106435000D01*
X167341335Y-106435000D01*
X167618574Y-106379853D01*
X167879727Y-106271680D01*
X168114759Y-106114637D01*
X168314637Y-105914759D01*
X168471680Y-105679727D01*
X168579853Y-105418574D01*
X168635000Y-105141335D01*
X168635000Y-104858665D01*
X168579853Y-104581426D01*
X168471680Y-104320273D01*
X168314637Y-104085241D01*
X168114759Y-103885363D01*
X167879727Y-103728320D01*
X167618574Y-103620147D01*
X167341335Y-103565000D01*
X167058665Y-103565000D01*
X166781426Y-103620147D01*
X166520273Y-103728320D01*
X166285241Y-103885363D01*
X166085363Y-104085241D01*
X165930000Y-104317759D01*
X165774637Y-104085241D01*
X165574759Y-103885363D01*
X165339727Y-103728320D01*
X165078574Y-103620147D01*
X164801335Y-103565000D01*
X164518665Y-103565000D01*
X164336114Y-103601312D01*
X163223804Y-102489003D01*
X163200001Y-102459999D01*
X163084276Y-102365026D01*
X162952247Y-102294454D01*
X162808986Y-102250997D01*
X162697333Y-102240000D01*
X162697322Y-102240000D01*
X162660000Y-102236324D01*
X162622678Y-102240000D01*
X151457322Y-102240000D01*
X151419999Y-102236324D01*
X151382676Y-102240000D01*
X151382667Y-102240000D01*
X151271014Y-102250997D01*
X151127753Y-102294454D01*
X150995723Y-102365026D01*
X150912083Y-102433668D01*
X150879999Y-102459999D01*
X150856201Y-102488997D01*
X149743886Y-103601312D01*
X149561335Y-103565000D01*
X149278665Y-103565000D01*
X149001426Y-103620147D01*
X148740273Y-103728320D01*
X148505241Y-103885363D01*
X148305363Y-104085241D01*
X148148320Y-104320273D01*
X148040147Y-104581426D01*
X147985000Y-104858665D01*
X147985000Y-105141335D01*
X148040147Y-105418574D01*
X148148320Y-105679727D01*
X148305363Y-105914759D01*
X148505241Y-106114637D01*
X148692860Y-106240000D01*
X128638072Y-106240000D01*
X128638072Y-106144000D01*
X128625812Y-106019518D01*
X128589502Y-105899820D01*
X128550846Y-105827500D01*
X128581190Y-105770730D01*
X128674276Y-105720974D01*
X128790001Y-105626001D01*
X128813804Y-105596997D01*
X134511003Y-99899799D01*
X134540001Y-99876001D01*
X134603461Y-99798675D01*
X134634974Y-99760277D01*
X134705546Y-99628247D01*
X134708503Y-99618498D01*
X134749003Y-99484986D01*
X134760000Y-99373333D01*
X134760000Y-99373323D01*
X134763676Y-99336000D01*
X134760000Y-99298678D01*
X134760000Y-97938072D01*
X136300000Y-97938072D01*
X136424482Y-97925812D01*
X136544180Y-97889502D01*
X136654494Y-97830537D01*
X136751185Y-97751185D01*
X136830537Y-97654494D01*
X136889502Y-97544180D01*
X136925812Y-97424482D01*
X136926643Y-97416039D01*
X137125241Y-97614637D01*
X137360273Y-97771680D01*
X137621426Y-97879853D01*
X137898665Y-97935000D01*
X138181335Y-97935000D01*
X138458574Y-97879853D01*
X138719727Y-97771680D01*
X138954759Y-97614637D01*
X139154637Y-97414759D01*
X139310000Y-97182241D01*
X139465363Y-97414759D01*
X139665241Y-97614637D01*
X139900273Y-97771680D01*
X140161426Y-97879853D01*
X140438665Y-97935000D01*
X140721335Y-97935000D01*
X140998574Y-97879853D01*
X141259727Y-97771680D01*
X141494759Y-97614637D01*
X141694637Y-97414759D01*
X141851680Y-97179727D01*
X141856067Y-97169135D01*
X141967615Y-97355131D01*
X142156586Y-97563519D01*
X142382580Y-97731037D01*
X142636913Y-97851246D01*
X142770961Y-97891904D01*
X142993000Y-97769915D01*
X142993000Y-96627000D01*
X142973000Y-96627000D01*
X142973000Y-96373000D01*
X142993000Y-96373000D01*
X142993000Y-96353000D01*
X143247000Y-96353000D01*
X143247000Y-96373000D01*
%TA.AperFunction,Conductor*%
D18*
G36*
X143247000Y-96373000D02*
G01*
X143267000Y-96373000D01*
X143267000Y-96627000D01*
X143247000Y-96627000D01*
X143247000Y-97769915D01*
X143469039Y-97891904D01*
X143603087Y-97851246D01*
X143857420Y-97731037D01*
X144083414Y-97563519D01*
X144272385Y-97355131D01*
X144383933Y-97169135D01*
X144388320Y-97179727D01*
X144545363Y-97414759D01*
X144745241Y-97614637D01*
X144980273Y-97771680D01*
X145241426Y-97879853D01*
X145518665Y-97935000D01*
X145801335Y-97935000D01*
X146078574Y-97879853D01*
X146339727Y-97771680D01*
X146574759Y-97614637D01*
X146774637Y-97414759D01*
X146930000Y-97182241D01*
X147085363Y-97414759D01*
X147285241Y-97614637D01*
X147520273Y-97771680D01*
X147781426Y-97879853D01*
X148058665Y-97935000D01*
X148341335Y-97935000D01*
X148618574Y-97879853D01*
X148879727Y-97771680D01*
X149114759Y-97614637D01*
X149314637Y-97414759D01*
X149470000Y-97182241D01*
X149625363Y-97414759D01*
X149825241Y-97614637D01*
X150060273Y-97771680D01*
X150321426Y-97879853D01*
X150598665Y-97935000D01*
X150881335Y-97935000D01*
X151158574Y-97879853D01*
X151419727Y-97771680D01*
X151654759Y-97614637D01*
X151854637Y-97414759D01*
X152010000Y-97182241D01*
X152165363Y-97414759D01*
X152365241Y-97614637D01*
X152600273Y-97771680D01*
X152861426Y-97879853D01*
X153138665Y-97935000D01*
X153421335Y-97935000D01*
X153698574Y-97879853D01*
X153959727Y-97771680D01*
X154194759Y-97614637D01*
X154394637Y-97414759D01*
X154550000Y-97182241D01*
X154705363Y-97414759D01*
X154905241Y-97614637D01*
X155140273Y-97771680D01*
X155401426Y-97879853D01*
X155678665Y-97935000D01*
X155961335Y-97935000D01*
X156238574Y-97879853D01*
X156499727Y-97771680D01*
X156734759Y-97614637D01*
X156934637Y-97414759D01*
X157090000Y-97182241D01*
X157245363Y-97414759D01*
X157445241Y-97614637D01*
X157680273Y-97771680D01*
X157941426Y-97879853D01*
X158218665Y-97935000D01*
X158501335Y-97935000D01*
X158778574Y-97879853D01*
X159039727Y-97771680D01*
X159274759Y-97614637D01*
X159474637Y-97414759D01*
X159630000Y-97182241D01*
X159785363Y-97414759D01*
X159985241Y-97614637D01*
X160220273Y-97771680D01*
X160481426Y-97879853D01*
X160758665Y-97935000D01*
X161041335Y-97935000D01*
X161318574Y-97879853D01*
X161579727Y-97771680D01*
X161814759Y-97614637D01*
X162014637Y-97414759D01*
X162170000Y-97182241D01*
X162325363Y-97414759D01*
X162525241Y-97614637D01*
X162760273Y-97771680D01*
X163021426Y-97879853D01*
X163298665Y-97935000D01*
X163581335Y-97935000D01*
X163858574Y-97879853D01*
X164119727Y-97771680D01*
X164354759Y-97614637D01*
X164554637Y-97414759D01*
X164710000Y-97182241D01*
X164865363Y-97414759D01*
X165065241Y-97614637D01*
X165300273Y-97771680D01*
X165560000Y-97879262D01*
X165560000Y-98462677D01*
X165556324Y-98500000D01*
X165560000Y-98537322D01*
X165560000Y-98537332D01*
X165570997Y-98648985D01*
X165608374Y-98772201D01*
X165614454Y-98792246D01*
X165685026Y-98924276D01*
X165718934Y-98965593D01*
X165779999Y-99040001D01*
X165809003Y-99063804D01*
X170737080Y-103991881D01*
X170601939Y-103965000D01*
X170398061Y-103965000D01*
X170198102Y-104004774D01*
X170009744Y-104082795D01*
X169840226Y-104196063D01*
X169696063Y-104340226D01*
X169582795Y-104509744D01*
X169504774Y-104698102D01*
X169465000Y-104898061D01*
X169465000Y-105101939D01*
X169504774Y-105301898D01*
X169582795Y-105490256D01*
X169696063Y-105659774D01*
X169840226Y-105803937D01*
X170009744Y-105917205D01*
X170198102Y-105995226D01*
X170398061Y-106035000D01*
X170460199Y-106035000D01*
X179820001Y-115394803D01*
X179820000Y-116621956D01*
X179665241Y-116725363D01*
X179465363Y-116925241D01*
X179310000Y-117157759D01*
X179154637Y-116925241D01*
X178954759Y-116725363D01*
X178719727Y-116568320D01*
X178458574Y-116460147D01*
X178181335Y-116405000D01*
X177898665Y-116405000D01*
X177621426Y-116460147D01*
X177360273Y-116568320D01*
X177125241Y-116725363D01*
X176925363Y-116925241D01*
X176770000Y-117157759D01*
X176614637Y-116925241D01*
X176414759Y-116725363D01*
X176179727Y-116568320D01*
X175918574Y-116460147D01*
X175641335Y-116405000D01*
X175358665Y-116405000D01*
X175081426Y-116460147D01*
X174820273Y-116568320D01*
X174585241Y-116725363D01*
X174385363Y-116925241D01*
X174228320Y-117160273D01*
X174120147Y-117421426D01*
X174067718Y-117685000D01*
X172278711Y-117685000D01*
X172303937Y-117659774D01*
X172417205Y-117490256D01*
X172495226Y-117301898D01*
X172535000Y-117101939D01*
X172535000Y-116898061D01*
X172495226Y-116698102D01*
X172417205Y-116509744D01*
X172303937Y-116340226D01*
X172159774Y-116196063D01*
X171990256Y-116082795D01*
X171801898Y-116004774D01*
X171601939Y-115965000D01*
X171539803Y-115965000D01*
X162009801Y-106435000D01*
X162261335Y-106435000D01*
X162538574Y-106379853D01*
X162799727Y-106271680D01*
X163034759Y-106114637D01*
X163234637Y-105914759D01*
X163390000Y-105682241D01*
X163545363Y-105914759D01*
X163745241Y-106114637D01*
X163980273Y-106271680D01*
X164241426Y-106379853D01*
X164518665Y-106435000D01*
X164801335Y-106435000D01*
X165078574Y-106379853D01*
X165339727Y-106271680D01*
X165574759Y-106114637D01*
X165774637Y-105914759D01*
X165930000Y-105682241D01*
X166085363Y-105914759D01*
X166285241Y-106114637D01*
X166520273Y-106271680D01*
X166781426Y-106379853D01*
X167058665Y-106435000D01*
X167341335Y-106435000D01*
X167618574Y-106379853D01*
X167879727Y-106271680D01*
X168114759Y-106114637D01*
X168314637Y-105914759D01*
X168471680Y-105679727D01*
X168579853Y-105418574D01*
X168635000Y-105141335D01*
X168635000Y-104858665D01*
X168579853Y-104581426D01*
X168471680Y-104320273D01*
X168314637Y-104085241D01*
X168114759Y-103885363D01*
X167879727Y-103728320D01*
X167618574Y-103620147D01*
X167341335Y-103565000D01*
X167058665Y-103565000D01*
X166781426Y-103620147D01*
X166520273Y-103728320D01*
X166285241Y-103885363D01*
X166085363Y-104085241D01*
X165930000Y-104317759D01*
X165774637Y-104085241D01*
X165574759Y-103885363D01*
X165339727Y-103728320D01*
X165078574Y-103620147D01*
X164801335Y-103565000D01*
X164518665Y-103565000D01*
X164336114Y-103601312D01*
X163223804Y-102489003D01*
X163200001Y-102459999D01*
X163084276Y-102365026D01*
X162952247Y-102294454D01*
X162808986Y-102250997D01*
X162697333Y-102240000D01*
X162697322Y-102240000D01*
X162660000Y-102236324D01*
X162622678Y-102240000D01*
X151457322Y-102240000D01*
X151419999Y-102236324D01*
X151382676Y-102240000D01*
X151382667Y-102240000D01*
X151271014Y-102250997D01*
X151127753Y-102294454D01*
X150995723Y-102365026D01*
X150912083Y-102433668D01*
X150879999Y-102459999D01*
X150856201Y-102488997D01*
X149743886Y-103601312D01*
X149561335Y-103565000D01*
X149278665Y-103565000D01*
X149001426Y-103620147D01*
X148740273Y-103728320D01*
X148505241Y-103885363D01*
X148305363Y-104085241D01*
X148148320Y-104320273D01*
X148040147Y-104581426D01*
X147985000Y-104858665D01*
X147985000Y-105141335D01*
X148040147Y-105418574D01*
X148148320Y-105679727D01*
X148305363Y-105914759D01*
X148505241Y-106114637D01*
X148692860Y-106240000D01*
X128638072Y-106240000D01*
X128638072Y-106144000D01*
X128625812Y-106019518D01*
X128589502Y-105899820D01*
X128550846Y-105827500D01*
X128581190Y-105770730D01*
X128674276Y-105720974D01*
X128790001Y-105626001D01*
X128813804Y-105596997D01*
X134511003Y-99899799D01*
X134540001Y-99876001D01*
X134603461Y-99798675D01*
X134634974Y-99760277D01*
X134705546Y-99628247D01*
X134708503Y-99618498D01*
X134749003Y-99484986D01*
X134760000Y-99373333D01*
X134760000Y-99373323D01*
X134763676Y-99336000D01*
X134760000Y-99298678D01*
X134760000Y-97938072D01*
X136300000Y-97938072D01*
X136424482Y-97925812D01*
X136544180Y-97889502D01*
X136654494Y-97830537D01*
X136751185Y-97751185D01*
X136830537Y-97654494D01*
X136889502Y-97544180D01*
X136925812Y-97424482D01*
X136926643Y-97416039D01*
X137125241Y-97614637D01*
X137360273Y-97771680D01*
X137621426Y-97879853D01*
X137898665Y-97935000D01*
X138181335Y-97935000D01*
X138458574Y-97879853D01*
X138719727Y-97771680D01*
X138954759Y-97614637D01*
X139154637Y-97414759D01*
X139310000Y-97182241D01*
X139465363Y-97414759D01*
X139665241Y-97614637D01*
X139900273Y-97771680D01*
X140161426Y-97879853D01*
X140438665Y-97935000D01*
X140721335Y-97935000D01*
X140998574Y-97879853D01*
X141259727Y-97771680D01*
X141494759Y-97614637D01*
X141694637Y-97414759D01*
X141851680Y-97179727D01*
X141856067Y-97169135D01*
X141967615Y-97355131D01*
X142156586Y-97563519D01*
X142382580Y-97731037D01*
X142636913Y-97851246D01*
X142770961Y-97891904D01*
X142993000Y-97769915D01*
X142993000Y-96627000D01*
X142973000Y-96627000D01*
X142973000Y-96373000D01*
X142993000Y-96373000D01*
X142993000Y-96353000D01*
X143247000Y-96353000D01*
X143247000Y-96373000D01*
G37*
%TD.AperFunction*%
D17*
X167327000Y-115033000D02*
X167347000Y-115033000D01*
X167347000Y-115287000D01*
X167327000Y-115287000D01*
X167327000Y-116429915D01*
X167549039Y-116551904D01*
X167683087Y-116511246D01*
X167937420Y-116391037D01*
X168163414Y-116223519D01*
X168352385Y-116015131D01*
X168497070Y-115773881D01*
X168591909Y-115509040D01*
X168470625Y-115287002D01*
X168635000Y-115287002D01*
X168635000Y-115209803D01*
X170465000Y-117039803D01*
X170465000Y-117101939D01*
X170504774Y-117301898D01*
X170582795Y-117490256D01*
X170696063Y-117659774D01*
X170721289Y-117685000D01*
X141200711Y-117685000D01*
X141264937Y-117620774D01*
X141378205Y-117451256D01*
X141456226Y-117262898D01*
X141496000Y-117062939D01*
X141496000Y-116859061D01*
X141456226Y-116659102D01*
X141378205Y-116470744D01*
X141264937Y-116301226D01*
X141200711Y-116237000D01*
X148048041Y-116237000D01*
X148089463Y-116314494D01*
X148168815Y-116411185D01*
X148265506Y-116490537D01*
X148375820Y-116549502D01*
X148495518Y-116585812D01*
X148620000Y-116598072D01*
X150220000Y-116598072D01*
X150344482Y-116585812D01*
X150464180Y-116549502D01*
X150574494Y-116490537D01*
X150671185Y-116411185D01*
X150750537Y-116314494D01*
X150809502Y-116204180D01*
X150845812Y-116084482D01*
X150846643Y-116076039D01*
X151045241Y-116274637D01*
X151280273Y-116431680D01*
X151541426Y-116539853D01*
X151818665Y-116595000D01*
X152101335Y-116595000D01*
X152378574Y-116539853D01*
X152639727Y-116431680D01*
X152874759Y-116274637D01*
X153074637Y-116074759D01*
X153230000Y-115842241D01*
X153385363Y-116074759D01*
X153585241Y-116274637D01*
X153820273Y-116431680D01*
X154081426Y-116539853D01*
X154358665Y-116595000D01*
X154641335Y-116595000D01*
X154918574Y-116539853D01*
X155179727Y-116431680D01*
X155414759Y-116274637D01*
X155614637Y-116074759D01*
X155770000Y-115842241D01*
X155925363Y-116074759D01*
X156125241Y-116274637D01*
X156360273Y-116431680D01*
X156621426Y-116539853D01*
X156898665Y-116595000D01*
X157181335Y-116595000D01*
X157458574Y-116539853D01*
X157719727Y-116431680D01*
X157954759Y-116274637D01*
X158154637Y-116074759D01*
X158310000Y-115842241D01*
X158465363Y-116074759D01*
X158665241Y-116274637D01*
X158900273Y-116431680D01*
X159161426Y-116539853D01*
X159438665Y-116595000D01*
X159721335Y-116595000D01*
X159998574Y-116539853D01*
X160259727Y-116431680D01*
X160494759Y-116274637D01*
X160694637Y-116074759D01*
X160850000Y-115842241D01*
X161005363Y-116074759D01*
X161205241Y-116274637D01*
X161440273Y-116431680D01*
X161701426Y-116539853D01*
X161978665Y-116595000D01*
X162261335Y-116595000D01*
X162538574Y-116539853D01*
X162799727Y-116431680D01*
X163034759Y-116274637D01*
X163234637Y-116074759D01*
X163390000Y-115842241D01*
X163545363Y-116074759D01*
X163745241Y-116274637D01*
X163980273Y-116431680D01*
X164241426Y-116539853D01*
X164518665Y-116595000D01*
X164801335Y-116595000D01*
X165078574Y-116539853D01*
X165339727Y-116431680D01*
X165574759Y-116274637D01*
X165774637Y-116074759D01*
X165931680Y-115839727D01*
X165936067Y-115829135D01*
X166047615Y-116015131D01*
X166236586Y-116223519D01*
X166462580Y-116391037D01*
X166716913Y-116511246D01*
X166850961Y-116551904D01*
X167073000Y-116429915D01*
X167073000Y-115287000D01*
X167053000Y-115287000D01*
X167053000Y-115033000D01*
X167073000Y-115033000D01*
X167073000Y-115013000D01*
X167327000Y-115013000D01*
X167327000Y-115033000D01*
%TA.AperFunction,Conductor*%
D18*
G36*
X167327000Y-115033000D02*
G01*
X167347000Y-115033000D01*
X167347000Y-115287000D01*
X167327000Y-115287000D01*
X167327000Y-116429915D01*
X167549039Y-116551904D01*
X167683087Y-116511246D01*
X167937420Y-116391037D01*
X168163414Y-116223519D01*
X168352385Y-116015131D01*
X168497070Y-115773881D01*
X168591909Y-115509040D01*
X168470625Y-115287002D01*
X168635000Y-115287002D01*
X168635000Y-115209803D01*
X170465000Y-117039803D01*
X170465000Y-117101939D01*
X170504774Y-117301898D01*
X170582795Y-117490256D01*
X170696063Y-117659774D01*
X170721289Y-117685000D01*
X141200711Y-117685000D01*
X141264937Y-117620774D01*
X141378205Y-117451256D01*
X141456226Y-117262898D01*
X141496000Y-117062939D01*
X141496000Y-116859061D01*
X141456226Y-116659102D01*
X141378205Y-116470744D01*
X141264937Y-116301226D01*
X141200711Y-116237000D01*
X148048041Y-116237000D01*
X148089463Y-116314494D01*
X148168815Y-116411185D01*
X148265506Y-116490537D01*
X148375820Y-116549502D01*
X148495518Y-116585812D01*
X148620000Y-116598072D01*
X150220000Y-116598072D01*
X150344482Y-116585812D01*
X150464180Y-116549502D01*
X150574494Y-116490537D01*
X150671185Y-116411185D01*
X150750537Y-116314494D01*
X150809502Y-116204180D01*
X150845812Y-116084482D01*
X150846643Y-116076039D01*
X151045241Y-116274637D01*
X151280273Y-116431680D01*
X151541426Y-116539853D01*
X151818665Y-116595000D01*
X152101335Y-116595000D01*
X152378574Y-116539853D01*
X152639727Y-116431680D01*
X152874759Y-116274637D01*
X153074637Y-116074759D01*
X153230000Y-115842241D01*
X153385363Y-116074759D01*
X153585241Y-116274637D01*
X153820273Y-116431680D01*
X154081426Y-116539853D01*
X154358665Y-116595000D01*
X154641335Y-116595000D01*
X154918574Y-116539853D01*
X155179727Y-116431680D01*
X155414759Y-116274637D01*
X155614637Y-116074759D01*
X155770000Y-115842241D01*
X155925363Y-116074759D01*
X156125241Y-116274637D01*
X156360273Y-116431680D01*
X156621426Y-116539853D01*
X156898665Y-116595000D01*
X157181335Y-116595000D01*
X157458574Y-116539853D01*
X157719727Y-116431680D01*
X157954759Y-116274637D01*
X158154637Y-116074759D01*
X158310000Y-115842241D01*
X158465363Y-116074759D01*
X158665241Y-116274637D01*
X158900273Y-116431680D01*
X159161426Y-116539853D01*
X159438665Y-116595000D01*
X159721335Y-116595000D01*
X159998574Y-116539853D01*
X160259727Y-116431680D01*
X160494759Y-116274637D01*
X160694637Y-116074759D01*
X160850000Y-115842241D01*
X161005363Y-116074759D01*
X161205241Y-116274637D01*
X161440273Y-116431680D01*
X161701426Y-116539853D01*
X161978665Y-116595000D01*
X162261335Y-116595000D01*
X162538574Y-116539853D01*
X162799727Y-116431680D01*
X163034759Y-116274637D01*
X163234637Y-116074759D01*
X163390000Y-115842241D01*
X163545363Y-116074759D01*
X163745241Y-116274637D01*
X163980273Y-116431680D01*
X164241426Y-116539853D01*
X164518665Y-116595000D01*
X164801335Y-116595000D01*
X165078574Y-116539853D01*
X165339727Y-116431680D01*
X165574759Y-116274637D01*
X165774637Y-116074759D01*
X165931680Y-115839727D01*
X165936067Y-115829135D01*
X166047615Y-116015131D01*
X166236586Y-116223519D01*
X166462580Y-116391037D01*
X166716913Y-116511246D01*
X166850961Y-116551904D01*
X167073000Y-116429915D01*
X167073000Y-115287000D01*
X167053000Y-115287000D01*
X167053000Y-115033000D01*
X167073000Y-115033000D01*
X167073000Y-115013000D01*
X167327000Y-115013000D01*
X167327000Y-115033000D01*
G37*
%TD.AperFunction*%
D17*
X157167000Y-104873000D02*
X157187000Y-104873000D01*
X157187000Y-105127000D01*
X157167000Y-105127000D01*
X157167000Y-105147000D01*
X156913000Y-105147000D01*
X156913000Y-105127000D01*
X156893000Y-105127000D01*
X156893000Y-104873000D01*
X156913000Y-104873000D01*
X156913000Y-104853000D01*
X157167000Y-104853000D01*
X157167000Y-104873000D01*
%TA.AperFunction,Conductor*%
D18*
G36*
X157167000Y-104873000D02*
G01*
X157187000Y-104873000D01*
X157187000Y-105127000D01*
X157167000Y-105127000D01*
X157167000Y-105147000D01*
X156913000Y-105147000D01*
X156913000Y-105127000D01*
X156893000Y-105127000D01*
X156893000Y-104873000D01*
X156913000Y-104873000D01*
X156913000Y-104853000D01*
X157167000Y-104853000D01*
X157167000Y-104873000D01*
G37*
%TD.AperFunction*%
%TD*%
M02*
