%TF.GenerationSoftware,KiCad,Pcbnew,5.1.10-88a1d61d58~90~ubuntu20.04.1*%
%TF.CreationDate,2021-10-29T09:45:40+02:00*%
%TF.ProjectId,GameboyReader,47616d65-626f-4795-9265-616465722e6b,rev?*%
%TF.SameCoordinates,Original*%
%TF.FileFunction,Soldermask,Top*%
%TF.FilePolarity,Negative*%
%FSLAX46Y46*%
G04 Gerber Fmt 4.6, Leading zero omitted, Abs format (unit mm)*
G04 Created by KiCad (PCBNEW 5.1.10-88a1d61d58~90~ubuntu20.04.1) date 2021-10-29 09:45:40*
%MOMM*%
%LPD*%
G01*
G04 APERTURE LIST*
%ADD10C,5.600000*%
%ADD11R,2.500000X0.850000*%
%ADD12R,2.500000X4.500000*%
%ADD13C,2.000000*%
%ADD14O,1.600000X1.600000*%
%ADD15R,1.600000X1.600000*%
G04 APERTURE END LIST*
D10*
%TO.C,REF\u002A\u002A*%
X109000000Y-79000000D03*
%TD*%
%TO.C,REF\u002A\u002A*%
X193000000Y-79000000D03*
%TD*%
%TO.C,REF\u002A\u002A*%
X194000000Y-146000000D03*
%TD*%
%TO.C,REF\u002A\u002A*%
X109000000Y-146000000D03*
%TD*%
D11*
%TO.C,J1*%
X126750000Y-136258000D03*
X126750000Y-134774000D03*
X126750000Y-131804000D03*
X126750000Y-130320000D03*
X126750000Y-128835000D03*
X126750000Y-127354000D03*
X126750000Y-125867000D03*
X126750000Y-124382000D03*
X126750000Y-122898000D03*
X126750000Y-121413000D03*
X126750000Y-119930000D03*
X126750000Y-118445000D03*
X126750000Y-116961000D03*
X126750000Y-115477000D03*
X126750000Y-113991000D03*
X126750000Y-112508000D03*
X126750000Y-111023000D03*
X126750000Y-109539000D03*
X126750000Y-108055000D03*
X126750000Y-106569000D03*
X126750000Y-133289000D03*
X126750000Y-105086000D03*
X126750000Y-103603000D03*
X126750000Y-102117000D03*
X126750000Y-100633000D03*
X126750000Y-99148000D03*
X126750000Y-97664000D03*
X126750000Y-96181000D03*
X126750000Y-94695000D03*
X126750000Y-93212000D03*
X126750000Y-91727000D03*
X126750000Y-90242000D03*
D12*
X106249000Y-100250000D03*
X106249000Y-126251000D03*
D13*
X119300000Y-126250000D03*
X119300000Y-100250000D03*
%TD*%
%TO.C,R20*%
G36*
G01*
X174225000Y-101425000D02*
X174775000Y-101425000D01*
G75*
G02*
X174975000Y-101625000I0J-200000D01*
G01*
X174975000Y-102025000D01*
G75*
G02*
X174775000Y-102225000I-200000J0D01*
G01*
X174225000Y-102225000D01*
G75*
G02*
X174025000Y-102025000I0J200000D01*
G01*
X174025000Y-101625000D01*
G75*
G02*
X174225000Y-101425000I200000J0D01*
G01*
G37*
G36*
G01*
X174225000Y-99775000D02*
X174775000Y-99775000D01*
G75*
G02*
X174975000Y-99975000I0J-200000D01*
G01*
X174975000Y-100375000D01*
G75*
G02*
X174775000Y-100575000I-200000J0D01*
G01*
X174225000Y-100575000D01*
G75*
G02*
X174025000Y-100375000I0J200000D01*
G01*
X174025000Y-99975000D01*
G75*
G02*
X174225000Y-99775000I200000J0D01*
G01*
G37*
%TD*%
D14*
%TO.C,U2*%
X149420000Y-105000000D03*
X167200000Y-115160000D03*
X151960000Y-105000000D03*
X164660000Y-115160000D03*
X154500000Y-105000000D03*
X162120000Y-115160000D03*
X157040000Y-105000000D03*
X159580000Y-115160000D03*
X159580000Y-105000000D03*
X157040000Y-115160000D03*
X162120000Y-105000000D03*
X154500000Y-115160000D03*
X164660000Y-105000000D03*
X151960000Y-115160000D03*
X167200000Y-105000000D03*
D15*
X149420000Y-115160000D03*
%TD*%
%TO.C,A1*%
X135500000Y-96500000D03*
D14*
X168520000Y-81260000D03*
X138040000Y-96500000D03*
X165980000Y-81260000D03*
X140580000Y-96500000D03*
X163440000Y-81260000D03*
X143120000Y-96500000D03*
X160900000Y-81260000D03*
X145660000Y-96500000D03*
X158360000Y-81260000D03*
X148200000Y-96500000D03*
X155820000Y-81260000D03*
X150740000Y-96500000D03*
X153280000Y-81260000D03*
X153280000Y-96500000D03*
X150740000Y-81260000D03*
X155820000Y-96500000D03*
X148200000Y-81260000D03*
X158360000Y-96500000D03*
X145660000Y-81260000D03*
X160900000Y-96500000D03*
X143120000Y-81260000D03*
X163440000Y-96500000D03*
X140580000Y-81260000D03*
X165980000Y-96500000D03*
X138040000Y-81260000D03*
X168520000Y-96500000D03*
X135500000Y-81260000D03*
X171060000Y-96500000D03*
X171060000Y-81260000D03*
%TD*%
%TO.C,R17*%
G36*
G01*
X127775000Y-86275000D02*
X127775000Y-85725000D01*
G75*
G02*
X127975000Y-85525000I200000J0D01*
G01*
X128375000Y-85525000D01*
G75*
G02*
X128575000Y-85725000I0J-200000D01*
G01*
X128575000Y-86275000D01*
G75*
G02*
X128375000Y-86475000I-200000J0D01*
G01*
X127975000Y-86475000D01*
G75*
G02*
X127775000Y-86275000I0J200000D01*
G01*
G37*
G36*
G01*
X129425000Y-86275000D02*
X129425000Y-85725000D01*
G75*
G02*
X129625000Y-85525000I200000J0D01*
G01*
X130025000Y-85525000D01*
G75*
G02*
X130225000Y-85725000I0J-200000D01*
G01*
X130225000Y-86275000D01*
G75*
G02*
X130025000Y-86475000I-200000J0D01*
G01*
X129625000Y-86475000D01*
G75*
G02*
X129425000Y-86275000I0J200000D01*
G01*
G37*
%TD*%
%TO.C,R18*%
G36*
G01*
X129425000Y-83275000D02*
X129425000Y-82725000D01*
G75*
G02*
X129625000Y-82525000I200000J0D01*
G01*
X130025000Y-82525000D01*
G75*
G02*
X130225000Y-82725000I0J-200000D01*
G01*
X130225000Y-83275000D01*
G75*
G02*
X130025000Y-83475000I-200000J0D01*
G01*
X129625000Y-83475000D01*
G75*
G02*
X129425000Y-83275000I0J200000D01*
G01*
G37*
G36*
G01*
X127775000Y-83275000D02*
X127775000Y-82725000D01*
G75*
G02*
X127975000Y-82525000I200000J0D01*
G01*
X128375000Y-82525000D01*
G75*
G02*
X128575000Y-82725000I0J-200000D01*
G01*
X128575000Y-83275000D01*
G75*
G02*
X128375000Y-83475000I-200000J0D01*
G01*
X127975000Y-83475000D01*
G75*
G02*
X127775000Y-83275000I0J200000D01*
G01*
G37*
%TD*%
%TO.C,R19*%
G36*
G01*
X130225000Y-84225000D02*
X130225000Y-84775000D01*
G75*
G02*
X130025000Y-84975000I-200000J0D01*
G01*
X129625000Y-84975000D01*
G75*
G02*
X129425000Y-84775000I0J200000D01*
G01*
X129425000Y-84225000D01*
G75*
G02*
X129625000Y-84025000I200000J0D01*
G01*
X130025000Y-84025000D01*
G75*
G02*
X130225000Y-84225000I0J-200000D01*
G01*
G37*
G36*
G01*
X128575000Y-84225000D02*
X128575000Y-84775000D01*
G75*
G02*
X128375000Y-84975000I-200000J0D01*
G01*
X127975000Y-84975000D01*
G75*
G02*
X127775000Y-84775000I0J200000D01*
G01*
X127775000Y-84225000D01*
G75*
G02*
X127975000Y-84025000I200000J0D01*
G01*
X128375000Y-84025000D01*
G75*
G02*
X128575000Y-84225000I0J-200000D01*
G01*
G37*
%TD*%
D15*
%TO.C,U1*%
X175500000Y-128000000D03*
D14*
X193280000Y-117840000D03*
X178040000Y-128000000D03*
X190740000Y-117840000D03*
X180580000Y-128000000D03*
X188200000Y-117840000D03*
X183120000Y-128000000D03*
X185660000Y-117840000D03*
X185660000Y-128000000D03*
X183120000Y-117840000D03*
X188200000Y-128000000D03*
X180580000Y-117840000D03*
X190740000Y-128000000D03*
X178040000Y-117840000D03*
X193280000Y-128000000D03*
X175500000Y-117840000D03*
%TD*%
M02*
