%TF.GenerationSoftware,KiCad,Pcbnew,5.1.10-88a1d61d58~90~ubuntu20.04.1*%
%TF.CreationDate,2021-10-29T09:45:40+02:00*%
%TF.ProjectId,GameboyReader,47616d65-626f-4795-9265-616465722e6b,rev?*%
%TF.SameCoordinates,Original*%
%TF.FileFunction,Legend,Top*%
%TF.FilePolarity,Positive*%
%FSLAX46Y46*%
G04 Gerber Fmt 4.6, Leading zero omitted, Abs format (unit mm)*
G04 Created by KiCad (PCBNEW 5.1.10-88a1d61d58~90~ubuntu20.04.1) date 2021-10-29 09:45:40*
%MOMM*%
%LPD*%
G01*
G04 APERTURE LIST*
%ADD10C,0.010000*%
%ADD11C,0.254000*%
%ADD12C,0.120000*%
%ADD13C,0.300000*%
%ADD14C,0.178000*%
%ADD15C,0.150000*%
G04 APERTURE END LIST*
D10*
%TO.C,G\u002A\u002A\u002A*%
G36*
X160188246Y-122023490D02*
G01*
X160266378Y-122068402D01*
X160286413Y-122185588D01*
X160287027Y-122256486D01*
X160278714Y-122410323D01*
X160227386Y-122478688D01*
X160093459Y-122496219D01*
X160012432Y-122496756D01*
X159836619Y-122489482D01*
X159758487Y-122444570D01*
X159738452Y-122327384D01*
X159737838Y-122256486D01*
X159746151Y-122102649D01*
X159797479Y-122034284D01*
X159931406Y-122016753D01*
X160012432Y-122016216D01*
X160188246Y-122023490D01*
G37*
X160188246Y-122023490D02*
X160266378Y-122068402D01*
X160286413Y-122185588D01*
X160287027Y-122256486D01*
X160278714Y-122410323D01*
X160227386Y-122478688D01*
X160093459Y-122496219D01*
X160012432Y-122496756D01*
X159836619Y-122489482D01*
X159758487Y-122444570D01*
X159738452Y-122327384D01*
X159737838Y-122256486D01*
X159746151Y-122102649D01*
X159797479Y-122034284D01*
X159931406Y-122016753D01*
X160012432Y-122016216D01*
X160188246Y-122023490D01*
G36*
X138563921Y-130261328D02*
G01*
X138642054Y-130306240D01*
X138662089Y-130423426D01*
X138662703Y-130494324D01*
X138654390Y-130648160D01*
X138603061Y-130716526D01*
X138469134Y-130734057D01*
X138388108Y-130734594D01*
X138212295Y-130727320D01*
X138134162Y-130682408D01*
X138114127Y-130565222D01*
X138113513Y-130494324D01*
X138121826Y-130340487D01*
X138173155Y-130272122D01*
X138307082Y-130254591D01*
X138388108Y-130254054D01*
X138563921Y-130261328D01*
G37*
X138563921Y-130261328D02*
X138642054Y-130306240D01*
X138662089Y-130423426D01*
X138662703Y-130494324D01*
X138654390Y-130648160D01*
X138603061Y-130716526D01*
X138469134Y-130734057D01*
X138388108Y-130734594D01*
X138212295Y-130727320D01*
X138134162Y-130682408D01*
X138114127Y-130565222D01*
X138113513Y-130494324D01*
X138121826Y-130340487D01*
X138173155Y-130272122D01*
X138307082Y-130254591D01*
X138388108Y-130254054D01*
X138563921Y-130261328D01*
G36*
X139692432Y-131283783D02*
G01*
X139143243Y-131283783D01*
X139143243Y-130734594D01*
X139692432Y-130734594D01*
X139692432Y-131283783D01*
G37*
X139692432Y-131283783D02*
X139143243Y-131283783D01*
X139143243Y-130734594D01*
X139692432Y-130734594D01*
X139692432Y-131283783D01*
G36*
X150920678Y-122023490D02*
G01*
X150998810Y-122068402D01*
X151018845Y-122185588D01*
X151019459Y-122256486D01*
X151011146Y-122410323D01*
X150959818Y-122478688D01*
X150825891Y-122496219D01*
X150744865Y-122496756D01*
X150470270Y-122496756D01*
X150470270Y-122771351D01*
X150462996Y-122947164D01*
X150418084Y-123025297D01*
X150300898Y-123045331D01*
X150230000Y-123045946D01*
X149989730Y-123045946D01*
X149989730Y-122771351D01*
X149997004Y-122595538D01*
X150041916Y-122517405D01*
X150159102Y-122497370D01*
X150230000Y-122496756D01*
X150391037Y-122486129D01*
X150457079Y-122426173D01*
X150470240Y-122274774D01*
X150470270Y-122256486D01*
X150478583Y-122102649D01*
X150529911Y-122034284D01*
X150663838Y-122016753D01*
X150744865Y-122016216D01*
X150920678Y-122023490D01*
G37*
X150920678Y-122023490D02*
X150998810Y-122068402D01*
X151018845Y-122185588D01*
X151019459Y-122256486D01*
X151011146Y-122410323D01*
X150959818Y-122478688D01*
X150825891Y-122496219D01*
X150744865Y-122496756D01*
X150470270Y-122496756D01*
X150470270Y-122771351D01*
X150462996Y-122947164D01*
X150418084Y-123025297D01*
X150300898Y-123045331D01*
X150230000Y-123045946D01*
X149989730Y-123045946D01*
X149989730Y-122771351D01*
X149997004Y-122595538D01*
X150041916Y-122517405D01*
X150159102Y-122497370D01*
X150230000Y-122496756D01*
X150391037Y-122486129D01*
X150457079Y-122426173D01*
X150470240Y-122274774D01*
X150470270Y-122256486D01*
X150478583Y-122102649D01*
X150529911Y-122034284D01*
X150663838Y-122016753D01*
X150744865Y-122016216D01*
X150920678Y-122023490D01*
G36*
X149989730Y-124075675D02*
G01*
X149440540Y-124075675D01*
X149440540Y-123045946D01*
X149989730Y-123045946D01*
X149989730Y-124075675D01*
G37*
X149989730Y-124075675D02*
X149440540Y-124075675D01*
X149440540Y-123045946D01*
X149989730Y-123045946D01*
X149989730Y-124075675D01*
G36*
X146900540Y-122256486D02*
G01*
X146911167Y-122417523D01*
X146971124Y-122483565D01*
X147122523Y-122496726D01*
X147140811Y-122496756D01*
X147294647Y-122505069D01*
X147363013Y-122556398D01*
X147380544Y-122690325D01*
X147381081Y-122771351D01*
X147381081Y-123045946D01*
X147930270Y-123045946D01*
X147930270Y-122016216D01*
X148960000Y-122016216D01*
X148960000Y-122256486D01*
X148970627Y-122417523D01*
X149030583Y-122483565D01*
X149181982Y-122496726D01*
X149200270Y-122496756D01*
X149354107Y-122505069D01*
X149422473Y-122556398D01*
X149440003Y-122690325D01*
X149440540Y-122771351D01*
X149440540Y-123045946D01*
X149200270Y-123045946D01*
X149046434Y-123037632D01*
X148978068Y-122986304D01*
X148960537Y-122852377D01*
X148960000Y-122771351D01*
X148960000Y-122496756D01*
X148410811Y-122496756D01*
X148410811Y-124556216D01*
X147930270Y-124556216D01*
X147930270Y-123526486D01*
X147655676Y-123526486D01*
X147479862Y-123519212D01*
X147401730Y-123474300D01*
X147381695Y-123357114D01*
X147381081Y-123286216D01*
X147370454Y-123125179D01*
X147310498Y-123059137D01*
X147159099Y-123045975D01*
X147140811Y-123045946D01*
X146986974Y-123037632D01*
X146918608Y-122986304D01*
X146901078Y-122852377D01*
X146900540Y-122771351D01*
X146900540Y-122496756D01*
X146351351Y-122496756D01*
X146351351Y-125585946D01*
X145870811Y-125585946D01*
X145870811Y-124075675D01*
X144841081Y-124075675D01*
X144841081Y-123526486D01*
X145870811Y-123526486D01*
X145870811Y-122016216D01*
X146900540Y-122016216D01*
X146900540Y-122256486D01*
G37*
X146900540Y-122256486D02*
X146911167Y-122417523D01*
X146971124Y-122483565D01*
X147122523Y-122496726D01*
X147140811Y-122496756D01*
X147294647Y-122505069D01*
X147363013Y-122556398D01*
X147380544Y-122690325D01*
X147381081Y-122771351D01*
X147381081Y-123045946D01*
X147930270Y-123045946D01*
X147930270Y-122016216D01*
X148960000Y-122016216D01*
X148960000Y-122256486D01*
X148970627Y-122417523D01*
X149030583Y-122483565D01*
X149181982Y-122496726D01*
X149200270Y-122496756D01*
X149354107Y-122505069D01*
X149422473Y-122556398D01*
X149440003Y-122690325D01*
X149440540Y-122771351D01*
X149440540Y-123045946D01*
X149200270Y-123045946D01*
X149046434Y-123037632D01*
X148978068Y-122986304D01*
X148960537Y-122852377D01*
X148960000Y-122771351D01*
X148960000Y-122496756D01*
X148410811Y-122496756D01*
X148410811Y-124556216D01*
X147930270Y-124556216D01*
X147930270Y-123526486D01*
X147655676Y-123526486D01*
X147479862Y-123519212D01*
X147401730Y-123474300D01*
X147381695Y-123357114D01*
X147381081Y-123286216D01*
X147370454Y-123125179D01*
X147310498Y-123059137D01*
X147159099Y-123045975D01*
X147140811Y-123045946D01*
X146986974Y-123037632D01*
X146918608Y-122986304D01*
X146901078Y-122852377D01*
X146900540Y-122771351D01*
X146900540Y-122496756D01*
X146351351Y-122496756D01*
X146351351Y-125585946D01*
X145870811Y-125585946D01*
X145870811Y-124075675D01*
X144841081Y-124075675D01*
X144841081Y-123526486D01*
X145870811Y-123526486D01*
X145870811Y-122016216D01*
X146900540Y-122016216D01*
X146900540Y-122256486D01*
G36*
X147831489Y-132320787D02*
G01*
X147909621Y-132365699D01*
X147929656Y-132482885D01*
X147930270Y-132553783D01*
X147921957Y-132707620D01*
X147870629Y-132775986D01*
X147736702Y-132793516D01*
X147655676Y-132794054D01*
X147479862Y-132786780D01*
X147401730Y-132741867D01*
X147381695Y-132624681D01*
X147381081Y-132553783D01*
X147389394Y-132399947D01*
X147440722Y-132331581D01*
X147574649Y-132314050D01*
X147655676Y-132313513D01*
X147831489Y-132320787D01*
G37*
X147831489Y-132320787D02*
X147909621Y-132365699D01*
X147929656Y-132482885D01*
X147930270Y-132553783D01*
X147921957Y-132707620D01*
X147870629Y-132775986D01*
X147736702Y-132793516D01*
X147655676Y-132794054D01*
X147479862Y-132786780D01*
X147401730Y-132741867D01*
X147381695Y-132624681D01*
X147381081Y-132553783D01*
X147389394Y-132399947D01*
X147440722Y-132331581D01*
X147574649Y-132314050D01*
X147655676Y-132313513D01*
X147831489Y-132320787D01*
G36*
X144841081Y-129979459D02*
G01*
X144848355Y-130155272D01*
X144893267Y-130233405D01*
X145010453Y-130253440D01*
X145081351Y-130254054D01*
X145242388Y-130264681D01*
X145308430Y-130324637D01*
X145321592Y-130476036D01*
X145321622Y-130494324D01*
X145329935Y-130648160D01*
X145381263Y-130716526D01*
X145515190Y-130734057D01*
X145596216Y-130734594D01*
X145870811Y-130734594D01*
X145870811Y-131009189D01*
X145878085Y-131185002D01*
X145922997Y-131263134D01*
X146040183Y-131283169D01*
X146111081Y-131283783D01*
X146272118Y-131294410D01*
X146338160Y-131354367D01*
X146351321Y-131505766D01*
X146351351Y-131524054D01*
X146359664Y-131677890D01*
X146410993Y-131746256D01*
X146544920Y-131763787D01*
X146625946Y-131764324D01*
X146900540Y-131764324D01*
X146900540Y-132794054D01*
X146351351Y-132794054D01*
X146351351Y-131764324D01*
X146111081Y-131764324D01*
X145950044Y-131753697D01*
X145884002Y-131693741D01*
X145870841Y-131542342D01*
X145870811Y-131524054D01*
X145862498Y-131370217D01*
X145811169Y-131301851D01*
X145677242Y-131284321D01*
X145596216Y-131283783D01*
X145321622Y-131283783D01*
X145321622Y-131009189D01*
X145314348Y-130833376D01*
X145269435Y-130755243D01*
X145152249Y-130735208D01*
X145081351Y-130734594D01*
X144841081Y-130734594D01*
X144841081Y-132313513D01*
X144291892Y-132313513D01*
X144291892Y-129704864D01*
X144841081Y-129704864D01*
X144841081Y-129979459D01*
G37*
X144841081Y-129979459D02*
X144848355Y-130155272D01*
X144893267Y-130233405D01*
X145010453Y-130253440D01*
X145081351Y-130254054D01*
X145242388Y-130264681D01*
X145308430Y-130324637D01*
X145321592Y-130476036D01*
X145321622Y-130494324D01*
X145329935Y-130648160D01*
X145381263Y-130716526D01*
X145515190Y-130734057D01*
X145596216Y-130734594D01*
X145870811Y-130734594D01*
X145870811Y-131009189D01*
X145878085Y-131185002D01*
X145922997Y-131263134D01*
X146040183Y-131283169D01*
X146111081Y-131283783D01*
X146272118Y-131294410D01*
X146338160Y-131354367D01*
X146351321Y-131505766D01*
X146351351Y-131524054D01*
X146359664Y-131677890D01*
X146410993Y-131746256D01*
X146544920Y-131763787D01*
X146625946Y-131764324D01*
X146900540Y-131764324D01*
X146900540Y-132794054D01*
X146351351Y-132794054D01*
X146351351Y-131764324D01*
X146111081Y-131764324D01*
X145950044Y-131753697D01*
X145884002Y-131693741D01*
X145870841Y-131542342D01*
X145870811Y-131524054D01*
X145862498Y-131370217D01*
X145811169Y-131301851D01*
X145677242Y-131284321D01*
X145596216Y-131283783D01*
X145321622Y-131283783D01*
X145321622Y-131009189D01*
X145314348Y-130833376D01*
X145269435Y-130755243D01*
X145152249Y-130735208D01*
X145081351Y-130734594D01*
X144841081Y-130734594D01*
X144841081Y-132313513D01*
X144291892Y-132313513D01*
X144291892Y-129704864D01*
X144841081Y-129704864D01*
X144841081Y-129979459D01*
G36*
X145235188Y-132802367D02*
G01*
X145303554Y-132853695D01*
X145321084Y-132987622D01*
X145321622Y-133068648D01*
X145314348Y-133244461D01*
X145269435Y-133322594D01*
X145152249Y-133342629D01*
X145081351Y-133343243D01*
X144927515Y-133334930D01*
X144859149Y-133283602D01*
X144841618Y-133149675D01*
X144841081Y-133068648D01*
X144848355Y-132892835D01*
X144893267Y-132814703D01*
X145010453Y-132794668D01*
X145081351Y-132794054D01*
X145235188Y-132802367D01*
G37*
X145235188Y-132802367D02*
X145303554Y-132853695D01*
X145321084Y-132987622D01*
X145321622Y-133068648D01*
X145314348Y-133244461D01*
X145269435Y-133322594D01*
X145152249Y-133342629D01*
X145081351Y-133343243D01*
X144927515Y-133334930D01*
X144859149Y-133283602D01*
X144841618Y-133149675D01*
X144841081Y-133068648D01*
X144848355Y-132892835D01*
X144893267Y-132814703D01*
X145010453Y-132794668D01*
X145081351Y-132794054D01*
X145235188Y-132802367D01*
G36*
X151500000Y-131524054D02*
G01*
X151508313Y-131370217D01*
X151559641Y-131301851D01*
X151693568Y-131284321D01*
X151774595Y-131283783D01*
X152049189Y-131283783D01*
X152049189Y-131009189D01*
X152056463Y-130833376D01*
X152101375Y-130755243D01*
X152218561Y-130735208D01*
X152289459Y-130734594D01*
X152450496Y-130723967D01*
X152516539Y-130664011D01*
X152529700Y-130512612D01*
X152529730Y-130494324D01*
X152538043Y-130340487D01*
X152589371Y-130272122D01*
X152723298Y-130254591D01*
X152804324Y-130254054D01*
X153078919Y-130254054D01*
X153078919Y-129979459D01*
X153086193Y-129803646D01*
X153131105Y-129725513D01*
X153248291Y-129705478D01*
X153319189Y-129704864D01*
X153559459Y-129704864D01*
X153559459Y-129979459D01*
X153552185Y-130155272D01*
X153507273Y-130233405D01*
X153390087Y-130253440D01*
X153319189Y-130254054D01*
X153158152Y-130264681D01*
X153092110Y-130324637D01*
X153078949Y-130476036D01*
X153078919Y-130494324D01*
X153070606Y-130648160D01*
X153019278Y-130716526D01*
X152885351Y-130734057D01*
X152804324Y-130734594D01*
X152529730Y-130734594D01*
X152529730Y-132313513D01*
X152289459Y-132313513D01*
X152135623Y-132305200D01*
X152067257Y-132253872D01*
X152049726Y-132119945D01*
X152049189Y-132038919D01*
X152049189Y-131764324D01*
X151500000Y-131764324D01*
X151500000Y-131524054D01*
G37*
X151500000Y-131524054D02*
X151508313Y-131370217D01*
X151559641Y-131301851D01*
X151693568Y-131284321D01*
X151774595Y-131283783D01*
X152049189Y-131283783D01*
X152049189Y-131009189D01*
X152056463Y-130833376D01*
X152101375Y-130755243D01*
X152218561Y-130735208D01*
X152289459Y-130734594D01*
X152450496Y-130723967D01*
X152516539Y-130664011D01*
X152529700Y-130512612D01*
X152529730Y-130494324D01*
X152538043Y-130340487D01*
X152589371Y-130272122D01*
X152723298Y-130254591D01*
X152804324Y-130254054D01*
X153078919Y-130254054D01*
X153078919Y-129979459D01*
X153086193Y-129803646D01*
X153131105Y-129725513D01*
X153248291Y-129705478D01*
X153319189Y-129704864D01*
X153559459Y-129704864D01*
X153559459Y-129979459D01*
X153552185Y-130155272D01*
X153507273Y-130233405D01*
X153390087Y-130253440D01*
X153319189Y-130254054D01*
X153158152Y-130264681D01*
X153092110Y-130324637D01*
X153078949Y-130476036D01*
X153078919Y-130494324D01*
X153070606Y-130648160D01*
X153019278Y-130716526D01*
X152885351Y-130734057D01*
X152804324Y-130734594D01*
X152529730Y-130734594D01*
X152529730Y-132313513D01*
X152289459Y-132313513D01*
X152135623Y-132305200D01*
X152067257Y-132253872D01*
X152049726Y-132119945D01*
X152049189Y-132038919D01*
X152049189Y-131764324D01*
X151500000Y-131764324D01*
X151500000Y-131524054D01*
G36*
X152049189Y-134853513D02*
G01*
X152049189Y-135402702D01*
X151019459Y-135402702D01*
X151019459Y-136432432D01*
X150470270Y-136432432D01*
X150470270Y-135402702D01*
X148410811Y-135402702D01*
X148410811Y-136432432D01*
X147930270Y-136432432D01*
X147930270Y-135402702D01*
X146351351Y-135402702D01*
X146351351Y-136912973D01*
X146900540Y-136912973D01*
X146900540Y-137462162D01*
X147930270Y-137462162D01*
X147930270Y-137702432D01*
X147940897Y-137863469D01*
X148000853Y-137929511D01*
X148152252Y-137942672D01*
X148170540Y-137942702D01*
X148410811Y-137942702D01*
X148410811Y-136912973D01*
X148960000Y-136912973D01*
X148960000Y-137942702D01*
X151019459Y-137942702D01*
X151019459Y-136912973D01*
X151500000Y-136912973D01*
X151500000Y-137942702D01*
X151774595Y-137942702D01*
X151950408Y-137935428D01*
X152028540Y-137890516D01*
X152048575Y-137773330D01*
X152049189Y-137702432D01*
X152049189Y-137462162D01*
X153078919Y-137462162D01*
X153078919Y-137942702D01*
X152049189Y-137942702D01*
X152049189Y-138491891D01*
X147930270Y-138491891D01*
X147930270Y-137942702D01*
X146900540Y-137942702D01*
X146900540Y-137702432D01*
X146892227Y-137548595D01*
X146840899Y-137480230D01*
X146706972Y-137462699D01*
X146625946Y-137462162D01*
X146351351Y-137462162D01*
X146351351Y-137187567D01*
X146344077Y-137011754D01*
X146299165Y-136933622D01*
X146181979Y-136913587D01*
X146111081Y-136912973D01*
X145950044Y-136902346D01*
X145884002Y-136842389D01*
X145870841Y-136690990D01*
X145870811Y-136672702D01*
X145862498Y-136518866D01*
X145811169Y-136450500D01*
X145677242Y-136432969D01*
X145596216Y-136432432D01*
X145321622Y-136432432D01*
X145321622Y-136157837D01*
X145314348Y-135982024D01*
X145269435Y-135903892D01*
X145152249Y-135883857D01*
X145081351Y-135883243D01*
X144841081Y-135883243D01*
X144841081Y-134853513D01*
X145081351Y-134853513D01*
X145321622Y-134853513D01*
X145321622Y-135883243D01*
X145870811Y-135883243D01*
X145870811Y-134853513D01*
X145321622Y-134853513D01*
X145081351Y-134853513D01*
X145242388Y-134842886D01*
X145308430Y-134782930D01*
X145321592Y-134631531D01*
X145321622Y-134613243D01*
X145310995Y-134452206D01*
X145251038Y-134386164D01*
X145099639Y-134373002D01*
X145081351Y-134372973D01*
X144927515Y-134364659D01*
X144859149Y-134313331D01*
X144841618Y-134179404D01*
X144841081Y-134098378D01*
X144848355Y-133922565D01*
X144893267Y-133844432D01*
X145010453Y-133824397D01*
X145081351Y-133823783D01*
X145235188Y-133832096D01*
X145303554Y-133883425D01*
X145321084Y-134017352D01*
X145321622Y-134098378D01*
X145321622Y-134372973D01*
X145596216Y-134372973D01*
X145772029Y-134380246D01*
X145850162Y-134425159D01*
X145870197Y-134542345D01*
X145870811Y-134613243D01*
X145870811Y-134853513D01*
X152049189Y-134853513D01*
G37*
X152049189Y-134853513D02*
X152049189Y-135402702D01*
X151019459Y-135402702D01*
X151019459Y-136432432D01*
X150470270Y-136432432D01*
X150470270Y-135402702D01*
X148410811Y-135402702D01*
X148410811Y-136432432D01*
X147930270Y-136432432D01*
X147930270Y-135402702D01*
X146351351Y-135402702D01*
X146351351Y-136912973D01*
X146900540Y-136912973D01*
X146900540Y-137462162D01*
X147930270Y-137462162D01*
X147930270Y-137702432D01*
X147940897Y-137863469D01*
X148000853Y-137929511D01*
X148152252Y-137942672D01*
X148170540Y-137942702D01*
X148410811Y-137942702D01*
X148410811Y-136912973D01*
X148960000Y-136912973D01*
X148960000Y-137942702D01*
X151019459Y-137942702D01*
X151019459Y-136912973D01*
X151500000Y-136912973D01*
X151500000Y-137942702D01*
X151774595Y-137942702D01*
X151950408Y-137935428D01*
X152028540Y-137890516D01*
X152048575Y-137773330D01*
X152049189Y-137702432D01*
X152049189Y-137462162D01*
X153078919Y-137462162D01*
X153078919Y-137942702D01*
X152049189Y-137942702D01*
X152049189Y-138491891D01*
X147930270Y-138491891D01*
X147930270Y-137942702D01*
X146900540Y-137942702D01*
X146900540Y-137702432D01*
X146892227Y-137548595D01*
X146840899Y-137480230D01*
X146706972Y-137462699D01*
X146625946Y-137462162D01*
X146351351Y-137462162D01*
X146351351Y-137187567D01*
X146344077Y-137011754D01*
X146299165Y-136933622D01*
X146181979Y-136913587D01*
X146111081Y-136912973D01*
X145950044Y-136902346D01*
X145884002Y-136842389D01*
X145870841Y-136690990D01*
X145870811Y-136672702D01*
X145862498Y-136518866D01*
X145811169Y-136450500D01*
X145677242Y-136432969D01*
X145596216Y-136432432D01*
X145321622Y-136432432D01*
X145321622Y-136157837D01*
X145314348Y-135982024D01*
X145269435Y-135903892D01*
X145152249Y-135883857D01*
X145081351Y-135883243D01*
X144841081Y-135883243D01*
X144841081Y-134853513D01*
X145081351Y-134853513D01*
X145321622Y-134853513D01*
X145321622Y-135883243D01*
X145870811Y-135883243D01*
X145870811Y-134853513D01*
X145321622Y-134853513D01*
X145081351Y-134853513D01*
X145242388Y-134842886D01*
X145308430Y-134782930D01*
X145321592Y-134631531D01*
X145321622Y-134613243D01*
X145310995Y-134452206D01*
X145251038Y-134386164D01*
X145099639Y-134373002D01*
X145081351Y-134372973D01*
X144927515Y-134364659D01*
X144859149Y-134313331D01*
X144841618Y-134179404D01*
X144841081Y-134098378D01*
X144848355Y-133922565D01*
X144893267Y-133844432D01*
X145010453Y-133824397D01*
X145081351Y-133823783D01*
X145235188Y-133832096D01*
X145303554Y-133883425D01*
X145321084Y-134017352D01*
X145321622Y-134098378D01*
X145321622Y-134372973D01*
X145596216Y-134372973D01*
X145772029Y-134380246D01*
X145850162Y-134425159D01*
X145870197Y-134542345D01*
X145870811Y-134613243D01*
X145870811Y-134853513D01*
X152049189Y-134853513D01*
G36*
X151500000Y-132794054D02*
G01*
X152049189Y-132794054D01*
X152049189Y-133343243D01*
X151500000Y-133343243D01*
X151500000Y-133068648D01*
X151492726Y-132892835D01*
X151447814Y-132814703D01*
X151330628Y-132794668D01*
X151259730Y-132794054D01*
X151098693Y-132783427D01*
X151032650Y-132723470D01*
X151019489Y-132572071D01*
X151019459Y-132553783D01*
X151011146Y-132399947D01*
X150959818Y-132331581D01*
X150825891Y-132314050D01*
X150744865Y-132313513D01*
X150470270Y-132313513D01*
X150470270Y-131764324D01*
X151500000Y-131764324D01*
X151500000Y-132794054D01*
G37*
X151500000Y-132794054D02*
X152049189Y-132794054D01*
X152049189Y-133343243D01*
X151500000Y-133343243D01*
X151500000Y-133068648D01*
X151492726Y-132892835D01*
X151447814Y-132814703D01*
X151330628Y-132794668D01*
X151259730Y-132794054D01*
X151098693Y-132783427D01*
X151032650Y-132723470D01*
X151019489Y-132572071D01*
X151019459Y-132553783D01*
X151011146Y-132399947D01*
X150959818Y-132331581D01*
X150825891Y-132314050D01*
X150744865Y-132313513D01*
X150470270Y-132313513D01*
X150470270Y-131764324D01*
X151500000Y-131764324D01*
X151500000Y-132794054D01*
G36*
X142781622Y-123045946D02*
G01*
X141202703Y-123045946D01*
X141202703Y-122496756D01*
X142781622Y-122496756D01*
X142781622Y-123045946D01*
G37*
X142781622Y-123045946D02*
X141202703Y-123045946D01*
X141202703Y-122496756D01*
X142781622Y-122496756D01*
X142781622Y-123045946D01*
G36*
X144291892Y-123526486D02*
G01*
X142781622Y-123526486D01*
X142781622Y-123045946D01*
X144291892Y-123045946D01*
X144291892Y-123526486D01*
G37*
X144291892Y-123526486D02*
X142781622Y-123526486D01*
X142781622Y-123045946D01*
X144291892Y-123045946D01*
X144291892Y-123526486D01*
G36*
X141202703Y-122496756D02*
G01*
X140172973Y-122496756D01*
X140172973Y-123526486D01*
X140722162Y-123526486D01*
X140722162Y-123801081D01*
X140729436Y-123976894D01*
X140774348Y-124055026D01*
X140891534Y-124075061D01*
X140962432Y-124075675D01*
X141202703Y-124075675D01*
X141202703Y-125105405D01*
X141477297Y-125105405D01*
X141653110Y-125112679D01*
X141731243Y-125157591D01*
X141751278Y-125274777D01*
X141751892Y-125345675D01*
X141762519Y-125506712D01*
X141822475Y-125572754D01*
X141973874Y-125585916D01*
X141992162Y-125585946D01*
X142232432Y-125585946D01*
X142232432Y-126135135D01*
X142781622Y-126135135D01*
X142781622Y-125585946D01*
X142232432Y-125585946D01*
X142232432Y-124556216D01*
X141992162Y-124556216D01*
X141831125Y-124545589D01*
X141765083Y-124485633D01*
X141751922Y-124334234D01*
X141751892Y-124315946D01*
X141762519Y-124154909D01*
X141822475Y-124088866D01*
X141973874Y-124075705D01*
X141992162Y-124075675D01*
X142153199Y-124086302D01*
X142219241Y-124146259D01*
X142232402Y-124297657D01*
X142232432Y-124315946D01*
X142240745Y-124469782D01*
X142292074Y-124538148D01*
X142426001Y-124555679D01*
X142507027Y-124556216D01*
X142781622Y-124556216D01*
X142781622Y-124830810D01*
X142788895Y-125006624D01*
X142833808Y-125084756D01*
X142950994Y-125104791D01*
X143021892Y-125105405D01*
X143182929Y-125116032D01*
X143248971Y-125175988D01*
X143262132Y-125327387D01*
X143262162Y-125345675D01*
X143262162Y-125585946D01*
X144291892Y-125585946D01*
X144291892Y-126135135D01*
X144566486Y-126135135D01*
X144742300Y-126142409D01*
X144820432Y-126187321D01*
X144840467Y-126304507D01*
X144841081Y-126375405D01*
X144851708Y-126536442D01*
X144911664Y-126602484D01*
X145063063Y-126615645D01*
X145081351Y-126615675D01*
X145242388Y-126605048D01*
X145308430Y-126545092D01*
X145321592Y-126393693D01*
X145321622Y-126375405D01*
X145329935Y-126221568D01*
X145381263Y-126153203D01*
X145515190Y-126135672D01*
X145596216Y-126135135D01*
X145772029Y-126142409D01*
X145850162Y-126187321D01*
X145870197Y-126304507D01*
X145870811Y-126375405D01*
X145862498Y-126529242D01*
X145811169Y-126597607D01*
X145677242Y-126615138D01*
X145596216Y-126615675D01*
X145321622Y-126615675D01*
X145321622Y-126890270D01*
X145314348Y-127066083D01*
X145269435Y-127144215D01*
X145152249Y-127164250D01*
X145081351Y-127164864D01*
X144841081Y-127164864D01*
X144841081Y-128194594D01*
X144291892Y-128194594D01*
X144291892Y-129224324D01*
X143811351Y-129224324D01*
X143811351Y-128675135D01*
X143262162Y-128675135D01*
X143262162Y-127645405D01*
X143021892Y-127645405D01*
X142860855Y-127634778D01*
X142794813Y-127574822D01*
X142781651Y-127423423D01*
X142781622Y-127405135D01*
X142773308Y-127251298D01*
X142721980Y-127182932D01*
X142588053Y-127165402D01*
X142507027Y-127164864D01*
X142232432Y-127164864D01*
X142232432Y-126890270D01*
X142225158Y-126714457D01*
X142180246Y-126636324D01*
X142063060Y-126616289D01*
X141992162Y-126615675D01*
X141751892Y-126615675D01*
X141751892Y-125585946D01*
X141477297Y-125585946D01*
X141301484Y-125578672D01*
X141223352Y-125533759D01*
X141203317Y-125416573D01*
X141202703Y-125345675D01*
X141192076Y-125184639D01*
X141132119Y-125118596D01*
X140980720Y-125105435D01*
X140962432Y-125105405D01*
X140722162Y-125105405D01*
X140722162Y-124075675D01*
X140172973Y-124075675D01*
X140172973Y-123801081D01*
X140165699Y-123625267D01*
X140120787Y-123547135D01*
X140003601Y-123527100D01*
X139932703Y-123526486D01*
X139692432Y-123526486D01*
X139692432Y-122016216D01*
X141202703Y-122016216D01*
X141202703Y-122496756D01*
G37*
X141202703Y-122496756D02*
X140172973Y-122496756D01*
X140172973Y-123526486D01*
X140722162Y-123526486D01*
X140722162Y-123801081D01*
X140729436Y-123976894D01*
X140774348Y-124055026D01*
X140891534Y-124075061D01*
X140962432Y-124075675D01*
X141202703Y-124075675D01*
X141202703Y-125105405D01*
X141477297Y-125105405D01*
X141653110Y-125112679D01*
X141731243Y-125157591D01*
X141751278Y-125274777D01*
X141751892Y-125345675D01*
X141762519Y-125506712D01*
X141822475Y-125572754D01*
X141973874Y-125585916D01*
X141992162Y-125585946D01*
X142232432Y-125585946D01*
X142232432Y-126135135D01*
X142781622Y-126135135D01*
X142781622Y-125585946D01*
X142232432Y-125585946D01*
X142232432Y-124556216D01*
X141992162Y-124556216D01*
X141831125Y-124545589D01*
X141765083Y-124485633D01*
X141751922Y-124334234D01*
X141751892Y-124315946D01*
X141762519Y-124154909D01*
X141822475Y-124088866D01*
X141973874Y-124075705D01*
X141992162Y-124075675D01*
X142153199Y-124086302D01*
X142219241Y-124146259D01*
X142232402Y-124297657D01*
X142232432Y-124315946D01*
X142240745Y-124469782D01*
X142292074Y-124538148D01*
X142426001Y-124555679D01*
X142507027Y-124556216D01*
X142781622Y-124556216D01*
X142781622Y-124830810D01*
X142788895Y-125006624D01*
X142833808Y-125084756D01*
X142950994Y-125104791D01*
X143021892Y-125105405D01*
X143182929Y-125116032D01*
X143248971Y-125175988D01*
X143262132Y-125327387D01*
X143262162Y-125345675D01*
X143262162Y-125585946D01*
X144291892Y-125585946D01*
X144291892Y-126135135D01*
X144566486Y-126135135D01*
X144742300Y-126142409D01*
X144820432Y-126187321D01*
X144840467Y-126304507D01*
X144841081Y-126375405D01*
X144851708Y-126536442D01*
X144911664Y-126602484D01*
X145063063Y-126615645D01*
X145081351Y-126615675D01*
X145242388Y-126605048D01*
X145308430Y-126545092D01*
X145321592Y-126393693D01*
X145321622Y-126375405D01*
X145329935Y-126221568D01*
X145381263Y-126153203D01*
X145515190Y-126135672D01*
X145596216Y-126135135D01*
X145772029Y-126142409D01*
X145850162Y-126187321D01*
X145870197Y-126304507D01*
X145870811Y-126375405D01*
X145862498Y-126529242D01*
X145811169Y-126597607D01*
X145677242Y-126615138D01*
X145596216Y-126615675D01*
X145321622Y-126615675D01*
X145321622Y-126890270D01*
X145314348Y-127066083D01*
X145269435Y-127144215D01*
X145152249Y-127164250D01*
X145081351Y-127164864D01*
X144841081Y-127164864D01*
X144841081Y-128194594D01*
X144291892Y-128194594D01*
X144291892Y-129224324D01*
X143811351Y-129224324D01*
X143811351Y-128675135D01*
X143262162Y-128675135D01*
X143262162Y-127645405D01*
X143021892Y-127645405D01*
X142860855Y-127634778D01*
X142794813Y-127574822D01*
X142781651Y-127423423D01*
X142781622Y-127405135D01*
X142773308Y-127251298D01*
X142721980Y-127182932D01*
X142588053Y-127165402D01*
X142507027Y-127164864D01*
X142232432Y-127164864D01*
X142232432Y-126890270D01*
X142225158Y-126714457D01*
X142180246Y-126636324D01*
X142063060Y-126616289D01*
X141992162Y-126615675D01*
X141751892Y-126615675D01*
X141751892Y-125585946D01*
X141477297Y-125585946D01*
X141301484Y-125578672D01*
X141223352Y-125533759D01*
X141203317Y-125416573D01*
X141202703Y-125345675D01*
X141192076Y-125184639D01*
X141132119Y-125118596D01*
X140980720Y-125105435D01*
X140962432Y-125105405D01*
X140722162Y-125105405D01*
X140722162Y-124075675D01*
X140172973Y-124075675D01*
X140172973Y-123801081D01*
X140165699Y-123625267D01*
X140120787Y-123547135D01*
X140003601Y-123527100D01*
X139932703Y-123526486D01*
X139692432Y-123526486D01*
X139692432Y-122016216D01*
X141202703Y-122016216D01*
X141202703Y-122496756D01*
G36*
X156168108Y-134853513D02*
G01*
X155618919Y-134853513D01*
X155618919Y-133823783D01*
X156168108Y-133823783D01*
X156168108Y-134853513D01*
G37*
X156168108Y-134853513D02*
X155618919Y-134853513D01*
X155618919Y-133823783D01*
X156168108Y-133823783D01*
X156168108Y-134853513D01*
G36*
X154108649Y-134372973D02*
G01*
X153559459Y-134372973D01*
X153559459Y-135402702D01*
X153319189Y-135402702D01*
X153165353Y-135394389D01*
X153096987Y-135343061D01*
X153079456Y-135209134D01*
X153078919Y-135128108D01*
X153078919Y-134853513D01*
X152049189Y-134853513D01*
X152049189Y-134372973D01*
X153078919Y-134372973D01*
X153078919Y-133823783D01*
X154108649Y-133823783D01*
X154108649Y-134372973D01*
G37*
X154108649Y-134372973D02*
X153559459Y-134372973D01*
X153559459Y-135402702D01*
X153319189Y-135402702D01*
X153165353Y-135394389D01*
X153096987Y-135343061D01*
X153079456Y-135209134D01*
X153078919Y-135128108D01*
X153078919Y-134853513D01*
X152049189Y-134853513D01*
X152049189Y-134372973D01*
X153078919Y-134372973D01*
X153078919Y-133823783D01*
X154108649Y-133823783D01*
X154108649Y-134372973D01*
G36*
X140722162Y-128675135D02*
G01*
X141751892Y-128675135D01*
X141751892Y-129224324D01*
X143811351Y-129224324D01*
X143811351Y-130734594D01*
X143262162Y-130734594D01*
X143262162Y-135883243D01*
X143021892Y-135883243D01*
X142860855Y-135872616D01*
X142794813Y-135812660D01*
X142781651Y-135661261D01*
X142781622Y-135642973D01*
X142773308Y-135489136D01*
X142721980Y-135420770D01*
X142588053Y-135403240D01*
X142507027Y-135402702D01*
X142232432Y-135402702D01*
X142232432Y-135128108D01*
X142225158Y-134952294D01*
X142180246Y-134874162D01*
X142063060Y-134854127D01*
X141992162Y-134853513D01*
X141831125Y-134842886D01*
X141765083Y-134782930D01*
X141751922Y-134631531D01*
X141751892Y-134613243D01*
X141743579Y-134459406D01*
X141692250Y-134391040D01*
X141558324Y-134373510D01*
X141477297Y-134372973D01*
X141202703Y-134372973D01*
X141202703Y-134098378D01*
X141195429Y-133922565D01*
X141150516Y-133844432D01*
X141033330Y-133824397D01*
X140962432Y-133823783D01*
X140801396Y-133813156D01*
X140735353Y-133753200D01*
X140722192Y-133601801D01*
X140722162Y-133583513D01*
X140722162Y-133343243D01*
X139692432Y-133343243D01*
X139692432Y-132794054D01*
X138113513Y-132794054D01*
X138113513Y-131283783D01*
X136603243Y-131283783D01*
X136603243Y-129704864D01*
X136843513Y-129704864D01*
X137083784Y-129704864D01*
X137083784Y-130734594D01*
X138113513Y-130734594D01*
X138113513Y-131283783D01*
X139143243Y-131283783D01*
X139143243Y-131524054D01*
X139132616Y-131685090D01*
X139072660Y-131751133D01*
X138921261Y-131764294D01*
X138902973Y-131764324D01*
X138749136Y-131772637D01*
X138680770Y-131823965D01*
X138663240Y-131957892D01*
X138662703Y-132038919D01*
X138662703Y-132313513D01*
X140722162Y-132313513D01*
X140722162Y-131764324D01*
X142232432Y-131764324D01*
X142232432Y-131524054D01*
X142240745Y-131370217D01*
X142292074Y-131301851D01*
X142426001Y-131284321D01*
X142507027Y-131283783D01*
X142781622Y-131283783D01*
X142781622Y-130254054D01*
X143021892Y-130254054D01*
X143175728Y-130245741D01*
X143244094Y-130194412D01*
X143261625Y-130060485D01*
X143262162Y-129979459D01*
X143262162Y-129704864D01*
X141751892Y-129704864D01*
X141751892Y-129224324D01*
X140172973Y-129224324D01*
X140172973Y-128675135D01*
X138662703Y-128675135D01*
X138662703Y-129224324D01*
X137632973Y-129224324D01*
X137632973Y-129464594D01*
X137624660Y-129618431D01*
X137573332Y-129686797D01*
X137439405Y-129704327D01*
X137358378Y-129704864D01*
X137083784Y-129704864D01*
X136843513Y-129704864D01*
X137004550Y-129694237D01*
X137070593Y-129634281D01*
X137083754Y-129482882D01*
X137083784Y-129464594D01*
X137092097Y-129310758D01*
X137143425Y-129242392D01*
X137277352Y-129224861D01*
X137358378Y-129224324D01*
X137632973Y-129224324D01*
X137632973Y-128675135D01*
X138662703Y-128675135D01*
X138662703Y-128194594D01*
X140722162Y-128194594D01*
X140722162Y-128675135D01*
G37*
X140722162Y-128675135D02*
X141751892Y-128675135D01*
X141751892Y-129224324D01*
X143811351Y-129224324D01*
X143811351Y-130734594D01*
X143262162Y-130734594D01*
X143262162Y-135883243D01*
X143021892Y-135883243D01*
X142860855Y-135872616D01*
X142794813Y-135812660D01*
X142781651Y-135661261D01*
X142781622Y-135642973D01*
X142773308Y-135489136D01*
X142721980Y-135420770D01*
X142588053Y-135403240D01*
X142507027Y-135402702D01*
X142232432Y-135402702D01*
X142232432Y-135128108D01*
X142225158Y-134952294D01*
X142180246Y-134874162D01*
X142063060Y-134854127D01*
X141992162Y-134853513D01*
X141831125Y-134842886D01*
X141765083Y-134782930D01*
X141751922Y-134631531D01*
X141751892Y-134613243D01*
X141743579Y-134459406D01*
X141692250Y-134391040D01*
X141558324Y-134373510D01*
X141477297Y-134372973D01*
X141202703Y-134372973D01*
X141202703Y-134098378D01*
X141195429Y-133922565D01*
X141150516Y-133844432D01*
X141033330Y-133824397D01*
X140962432Y-133823783D01*
X140801396Y-133813156D01*
X140735353Y-133753200D01*
X140722192Y-133601801D01*
X140722162Y-133583513D01*
X140722162Y-133343243D01*
X139692432Y-133343243D01*
X139692432Y-132794054D01*
X138113513Y-132794054D01*
X138113513Y-131283783D01*
X136603243Y-131283783D01*
X136603243Y-129704864D01*
X136843513Y-129704864D01*
X137083784Y-129704864D01*
X137083784Y-130734594D01*
X138113513Y-130734594D01*
X138113513Y-131283783D01*
X139143243Y-131283783D01*
X139143243Y-131524054D01*
X139132616Y-131685090D01*
X139072660Y-131751133D01*
X138921261Y-131764294D01*
X138902973Y-131764324D01*
X138749136Y-131772637D01*
X138680770Y-131823965D01*
X138663240Y-131957892D01*
X138662703Y-132038919D01*
X138662703Y-132313513D01*
X140722162Y-132313513D01*
X140722162Y-131764324D01*
X142232432Y-131764324D01*
X142232432Y-131524054D01*
X142240745Y-131370217D01*
X142292074Y-131301851D01*
X142426001Y-131284321D01*
X142507027Y-131283783D01*
X142781622Y-131283783D01*
X142781622Y-130254054D01*
X143021892Y-130254054D01*
X143175728Y-130245741D01*
X143244094Y-130194412D01*
X143261625Y-130060485D01*
X143262162Y-129979459D01*
X143262162Y-129704864D01*
X141751892Y-129704864D01*
X141751892Y-129224324D01*
X140172973Y-129224324D01*
X140172973Y-128675135D01*
X138662703Y-128675135D01*
X138662703Y-129224324D01*
X137632973Y-129224324D01*
X137632973Y-129464594D01*
X137624660Y-129618431D01*
X137573332Y-129686797D01*
X137439405Y-129704327D01*
X137358378Y-129704864D01*
X137083784Y-129704864D01*
X136843513Y-129704864D01*
X137004550Y-129694237D01*
X137070593Y-129634281D01*
X137083754Y-129482882D01*
X137083784Y-129464594D01*
X137092097Y-129310758D01*
X137143425Y-129242392D01*
X137277352Y-129224861D01*
X137358378Y-129224324D01*
X137632973Y-129224324D01*
X137632973Y-128675135D01*
X138662703Y-128675135D01*
X138662703Y-128194594D01*
X140722162Y-128194594D01*
X140722162Y-128675135D01*
G36*
X143811351Y-137462162D02*
G01*
X143262162Y-137462162D01*
X143262162Y-135883243D01*
X143811351Y-135883243D01*
X143811351Y-137462162D01*
G37*
X143811351Y-137462162D02*
X143262162Y-137462162D01*
X143262162Y-135883243D01*
X143811351Y-135883243D01*
X143811351Y-137462162D01*
G36*
X155618919Y-135883243D02*
G01*
X155378649Y-135883243D01*
X155224812Y-135891556D01*
X155156446Y-135942884D01*
X155138916Y-136076811D01*
X155138378Y-136157837D01*
X155138378Y-136432432D01*
X154863784Y-136432432D01*
X154687970Y-136439706D01*
X154609838Y-136484618D01*
X154589803Y-136601804D01*
X154589189Y-136672702D01*
X154578562Y-136833739D01*
X154518606Y-136899781D01*
X154367207Y-136912943D01*
X154348919Y-136912973D01*
X154195082Y-136921286D01*
X154126716Y-136972614D01*
X154109186Y-137106541D01*
X154108649Y-137187567D01*
X154108649Y-137462162D01*
X153078919Y-137462162D01*
X153078919Y-137187567D01*
X153086193Y-137011754D01*
X153131105Y-136933622D01*
X153248291Y-136913587D01*
X153319189Y-136912973D01*
X153559459Y-136912973D01*
X153559459Y-135883243D01*
X154108649Y-135883243D01*
X154108649Y-136157837D01*
X154115922Y-136333651D01*
X154160835Y-136411783D01*
X154278021Y-136431818D01*
X154348919Y-136432432D01*
X154502755Y-136424119D01*
X154571121Y-136372791D01*
X154588652Y-136238864D01*
X154589189Y-136157837D01*
X154589189Y-135883243D01*
X155138378Y-135883243D01*
X155138378Y-134853513D01*
X155618919Y-134853513D01*
X155618919Y-135883243D01*
G37*
X155618919Y-135883243D02*
X155378649Y-135883243D01*
X155224812Y-135891556D01*
X155156446Y-135942884D01*
X155138916Y-136076811D01*
X155138378Y-136157837D01*
X155138378Y-136432432D01*
X154863784Y-136432432D01*
X154687970Y-136439706D01*
X154609838Y-136484618D01*
X154589803Y-136601804D01*
X154589189Y-136672702D01*
X154578562Y-136833739D01*
X154518606Y-136899781D01*
X154367207Y-136912943D01*
X154348919Y-136912973D01*
X154195082Y-136921286D01*
X154126716Y-136972614D01*
X154109186Y-137106541D01*
X154108649Y-137187567D01*
X154108649Y-137462162D01*
X153078919Y-137462162D01*
X153078919Y-137187567D01*
X153086193Y-137011754D01*
X153131105Y-136933622D01*
X153248291Y-136913587D01*
X153319189Y-136912973D01*
X153559459Y-136912973D01*
X153559459Y-135883243D01*
X154108649Y-135883243D01*
X154108649Y-136157837D01*
X154115922Y-136333651D01*
X154160835Y-136411783D01*
X154278021Y-136431818D01*
X154348919Y-136432432D01*
X154502755Y-136424119D01*
X154571121Y-136372791D01*
X154588652Y-136238864D01*
X154589189Y-136157837D01*
X154589189Y-135883243D01*
X155138378Y-135883243D01*
X155138378Y-134853513D01*
X155618919Y-134853513D01*
X155618919Y-135883243D01*
G36*
X144291892Y-138491891D02*
G01*
X143811351Y-138491891D01*
X143811351Y-137462162D01*
X144291892Y-137462162D01*
X144291892Y-138491891D01*
G37*
X144291892Y-138491891D02*
X143811351Y-138491891D01*
X143811351Y-137462162D01*
X144291892Y-137462162D01*
X144291892Y-138491891D01*
G36*
X144841081Y-142610810D02*
G01*
X144291892Y-142610810D01*
X144291892Y-140551351D01*
X144841081Y-140551351D01*
X144841081Y-142610810D01*
G37*
X144841081Y-142610810D02*
X144291892Y-142610810D01*
X144291892Y-140551351D01*
X144841081Y-140551351D01*
X144841081Y-142610810D01*
G36*
X145321622Y-143640540D02*
G01*
X145596216Y-143640540D01*
X145772029Y-143647814D01*
X145850162Y-143692726D01*
X145870197Y-143809912D01*
X145870811Y-143880810D01*
X145870811Y-144121081D01*
X145596216Y-144121081D01*
X145420403Y-144113807D01*
X145342271Y-144068895D01*
X145322236Y-143951708D01*
X145321622Y-143880810D01*
X145310995Y-143719774D01*
X145251038Y-143653731D01*
X145099639Y-143640570D01*
X145081351Y-143640540D01*
X144841081Y-143640540D01*
X144841081Y-142610810D01*
X145321622Y-142610810D01*
X145321622Y-143640540D01*
G37*
X145321622Y-143640540D02*
X145596216Y-143640540D01*
X145772029Y-143647814D01*
X145850162Y-143692726D01*
X145870197Y-143809912D01*
X145870811Y-143880810D01*
X145870811Y-144121081D01*
X145596216Y-144121081D01*
X145420403Y-144113807D01*
X145342271Y-144068895D01*
X145322236Y-143951708D01*
X145321622Y-143880810D01*
X145310995Y-143719774D01*
X145251038Y-143653731D01*
X145099639Y-143640570D01*
X145081351Y-143640540D01*
X144841081Y-143640540D01*
X144841081Y-142610810D01*
X145321622Y-142610810D01*
X145321622Y-143640540D01*
G36*
X146900540Y-144670270D02*
G01*
X145870811Y-144670270D01*
X145870811Y-144121081D01*
X146900540Y-144121081D01*
X146900540Y-144670270D01*
G37*
X146900540Y-144670270D02*
X145870811Y-144670270D01*
X145870811Y-144121081D01*
X146900540Y-144121081D01*
X146900540Y-144670270D01*
G36*
X153559459Y-128675135D02*
G01*
X153319189Y-128675135D01*
X153158152Y-128664508D01*
X153092110Y-128604551D01*
X153078949Y-128453153D01*
X153078919Y-128434864D01*
X153089546Y-128273828D01*
X153149502Y-128207785D01*
X153300901Y-128194624D01*
X153319189Y-128194594D01*
X153473026Y-128186281D01*
X153541391Y-128134953D01*
X153558922Y-128001026D01*
X153559459Y-127920000D01*
X153559459Y-127645405D01*
X154108649Y-127645405D01*
X154108649Y-126615675D01*
X154589189Y-126615675D01*
X154589189Y-125585946D01*
X155138378Y-125585946D01*
X155138378Y-123526486D01*
X155618919Y-123526486D01*
X155618919Y-124556216D01*
X156168108Y-124556216D01*
X156168108Y-125105405D01*
X157197838Y-125105405D01*
X157197838Y-125345675D01*
X157208465Y-125506712D01*
X157268421Y-125572754D01*
X157419820Y-125585916D01*
X157438108Y-125585946D01*
X157599145Y-125575319D01*
X157665187Y-125515362D01*
X157678348Y-125363963D01*
X157678378Y-125345675D01*
X157678378Y-125105405D01*
X158708108Y-125105405D01*
X158708108Y-124556216D01*
X158982703Y-124556216D01*
X159158516Y-124548942D01*
X159236648Y-124504030D01*
X159256683Y-124386844D01*
X159257297Y-124315946D01*
X159267924Y-124154909D01*
X159327880Y-124088866D01*
X159479279Y-124075705D01*
X159497567Y-124075675D01*
X159651404Y-124067362D01*
X159719770Y-124016034D01*
X159737300Y-123882107D01*
X159737838Y-123801081D01*
X159737838Y-123526486D01*
X160287027Y-123526486D01*
X160287027Y-122496756D01*
X160527297Y-122496756D01*
X160688334Y-122486129D01*
X160754376Y-122426173D01*
X160767538Y-122274774D01*
X160767567Y-122256486D01*
X160756941Y-122095449D01*
X160696984Y-122029407D01*
X160545585Y-122016246D01*
X160527297Y-122016216D01*
X160373461Y-122007903D01*
X160305095Y-121956574D01*
X160287564Y-121822648D01*
X160287027Y-121741621D01*
X160294301Y-121565808D01*
X160339213Y-121487676D01*
X160456399Y-121467641D01*
X160527297Y-121467027D01*
X160688334Y-121456400D01*
X160754376Y-121396443D01*
X160767538Y-121245044D01*
X160767567Y-121226756D01*
X160775881Y-121072920D01*
X160827209Y-121004554D01*
X160961136Y-120987023D01*
X161042162Y-120986486D01*
X161316757Y-120986486D01*
X161316757Y-120711891D01*
X161324031Y-120536078D01*
X161368943Y-120457946D01*
X161486129Y-120437911D01*
X161557027Y-120437297D01*
X161718064Y-120426670D01*
X161784106Y-120366714D01*
X161797267Y-120215315D01*
X161797297Y-120197027D01*
X161786670Y-120035990D01*
X161726714Y-119969947D01*
X161575315Y-119956786D01*
X161557027Y-119956756D01*
X161395990Y-119967383D01*
X161329948Y-120027340D01*
X161316787Y-120178738D01*
X161316757Y-120197027D01*
X161316757Y-120437297D01*
X160287027Y-120437297D01*
X160287027Y-120986486D01*
X159257297Y-120986486D01*
X159257297Y-121226756D01*
X159248984Y-121380593D01*
X159197656Y-121448959D01*
X159063729Y-121466489D01*
X158982703Y-121467027D01*
X158708108Y-121467027D01*
X158708108Y-122016216D01*
X157678378Y-122016216D01*
X157678378Y-122256486D01*
X157667751Y-122417523D01*
X157607795Y-122483565D01*
X157456396Y-122496726D01*
X157438108Y-122496756D01*
X157284271Y-122505069D01*
X157215906Y-122556398D01*
X157198375Y-122690325D01*
X157197838Y-122771351D01*
X157197838Y-123045946D01*
X156168108Y-123045946D01*
X156168108Y-123286216D01*
X156159795Y-123440052D01*
X156108467Y-123508418D01*
X155974540Y-123525949D01*
X155893513Y-123526486D01*
X155618919Y-123526486D01*
X155138378Y-123526486D01*
X155138378Y-122496756D01*
X154589189Y-122496756D01*
X154589189Y-122771351D01*
X154581915Y-122947164D01*
X154537003Y-123025297D01*
X154419817Y-123045331D01*
X154348919Y-123045946D01*
X154187882Y-123056572D01*
X154121840Y-123116529D01*
X154108678Y-123267928D01*
X154108649Y-123286216D01*
X154108649Y-123526486D01*
X153078919Y-123526486D01*
X153078919Y-120986486D01*
X152804324Y-120986486D01*
X152628511Y-120993760D01*
X152550379Y-121038672D01*
X152530344Y-121155858D01*
X152529730Y-121226756D01*
X152519103Y-121387793D01*
X152459146Y-121453835D01*
X152307747Y-121466997D01*
X152289459Y-121467027D01*
X152135623Y-121475340D01*
X152067257Y-121526668D01*
X152049726Y-121660595D01*
X152049189Y-121741621D01*
X152049189Y-122016216D01*
X151500000Y-122016216D01*
X151500000Y-121467027D01*
X151774595Y-121467027D01*
X151950408Y-121459753D01*
X152028540Y-121414840D01*
X152048575Y-121297654D01*
X152049189Y-121226756D01*
X152059816Y-121065720D01*
X152119772Y-120999677D01*
X152271171Y-120986516D01*
X152289459Y-120986486D01*
X152443296Y-120978173D01*
X152511662Y-120926845D01*
X152529192Y-120792918D01*
X152529730Y-120711891D01*
X152529730Y-120437297D01*
X153559459Y-120437297D01*
X153559459Y-123045946D01*
X154108649Y-123045946D01*
X154108649Y-122771351D01*
X154115922Y-122595538D01*
X154160835Y-122517405D01*
X154278021Y-122497370D01*
X154348919Y-122496756D01*
X154509956Y-122486129D01*
X154575998Y-122426173D01*
X154589159Y-122274774D01*
X154589189Y-122256486D01*
X154589189Y-122016216D01*
X155618919Y-122016216D01*
X155618919Y-123045946D01*
X156168108Y-123045946D01*
X156168108Y-122771351D01*
X156175382Y-122595538D01*
X156220294Y-122517405D01*
X156337480Y-122497370D01*
X156408378Y-122496756D01*
X156569415Y-122486129D01*
X156635457Y-122426173D01*
X156648619Y-122274774D01*
X156648649Y-122256486D01*
X156648649Y-122016216D01*
X157678378Y-122016216D01*
X157678378Y-121467027D01*
X158708108Y-121467027D01*
X158708108Y-121226756D01*
X158716421Y-121072920D01*
X158767749Y-121004554D01*
X158901676Y-120987023D01*
X158982703Y-120986486D01*
X159257297Y-120986486D01*
X159257297Y-120437297D01*
X160287027Y-120437297D01*
X160287027Y-120197027D01*
X160297654Y-120035990D01*
X160357610Y-119969947D01*
X160509009Y-119956786D01*
X160527297Y-119956756D01*
X160681134Y-119948443D01*
X160749500Y-119897115D01*
X160767030Y-119763188D01*
X160767567Y-119682162D01*
X160767567Y-119407567D01*
X162346486Y-119407567D01*
X162346486Y-122016216D01*
X161797297Y-122016216D01*
X161797297Y-123526486D01*
X161316757Y-123526486D01*
X161316757Y-125585946D01*
X160767567Y-125585946D01*
X160767567Y-127164864D01*
X160287027Y-127164864D01*
X160287027Y-128675135D01*
X161316757Y-128675135D01*
X161316757Y-128194594D01*
X162827027Y-128194594D01*
X162827027Y-127645405D01*
X163856757Y-127645405D01*
X163856757Y-127164864D01*
X164886486Y-127164864D01*
X164886486Y-127645405D01*
X166465405Y-127645405D01*
X166465405Y-128675135D01*
X165916216Y-128675135D01*
X165916216Y-129224324D01*
X166465405Y-129224324D01*
X166465405Y-130254054D01*
X165435676Y-130254054D01*
X165435676Y-130494324D01*
X165427363Y-130648160D01*
X165376034Y-130716526D01*
X165242107Y-130734057D01*
X165161081Y-130734594D01*
X164886486Y-130734594D01*
X164886486Y-131009189D01*
X164879212Y-131185002D01*
X164834300Y-131263134D01*
X164717114Y-131283169D01*
X164646216Y-131283783D01*
X164405946Y-131283783D01*
X164405946Y-132313513D01*
X164131351Y-132313513D01*
X163955538Y-132320787D01*
X163877406Y-132365699D01*
X163857371Y-132482885D01*
X163856757Y-132553783D01*
X163846130Y-132714820D01*
X163786173Y-132780863D01*
X163634775Y-132794024D01*
X163616486Y-132794054D01*
X163462650Y-132802367D01*
X163394284Y-132853695D01*
X163376753Y-132987622D01*
X163376216Y-133068648D01*
X163376216Y-133343243D01*
X163101622Y-133343243D01*
X162925808Y-133350517D01*
X162847676Y-133395429D01*
X162827641Y-133512615D01*
X162827027Y-133583513D01*
X162816400Y-133744550D01*
X162756444Y-133810592D01*
X162605045Y-133823753D01*
X162586757Y-133823783D01*
X162432920Y-133832096D01*
X162364554Y-133883425D01*
X162347024Y-134017352D01*
X162346486Y-134098378D01*
X162346486Y-134372973D01*
X161797297Y-134372973D01*
X161797297Y-136432432D01*
X162827027Y-136432432D01*
X162827027Y-136672702D01*
X162835340Y-136826539D01*
X162886668Y-136894905D01*
X163020595Y-136912435D01*
X163101622Y-136912973D01*
X163376216Y-136912973D01*
X163376216Y-137942702D01*
X163856757Y-137942702D01*
X163856757Y-140002162D01*
X164405946Y-140002162D01*
X164405946Y-140276756D01*
X164413220Y-140452570D01*
X164458132Y-140530702D01*
X164575318Y-140550737D01*
X164646216Y-140551351D01*
X164886486Y-140551351D01*
X164886486Y-141581081D01*
X164646216Y-141581081D01*
X164485179Y-141591708D01*
X164419137Y-141651664D01*
X164405976Y-141803063D01*
X164405946Y-141821351D01*
X164397633Y-141975188D01*
X164346305Y-142043553D01*
X164212378Y-142061084D01*
X164131351Y-142061621D01*
X163856757Y-142061621D01*
X163856757Y-142610810D01*
X162827027Y-142610810D01*
X162827027Y-143091351D01*
X161797297Y-143091351D01*
X161797297Y-143640540D01*
X160287027Y-143640540D01*
X160287027Y-143091351D01*
X160012432Y-143091351D01*
X159836619Y-143084077D01*
X159758487Y-143039165D01*
X159738452Y-142921979D01*
X159737838Y-142851081D01*
X159737838Y-142610810D01*
X158227567Y-142610810D01*
X158227567Y-144121081D01*
X158467838Y-144121081D01*
X158621674Y-144129394D01*
X158690040Y-144180722D01*
X158707571Y-144314649D01*
X158708108Y-144395675D01*
X158708108Y-144670270D01*
X158982703Y-144670270D01*
X159158516Y-144677544D01*
X159236648Y-144722456D01*
X159256683Y-144839642D01*
X159257297Y-144910540D01*
X159248984Y-145064377D01*
X159197656Y-145132743D01*
X159063729Y-145150273D01*
X158982703Y-145150810D01*
X158708108Y-145150810D01*
X158708108Y-145700000D01*
X156168108Y-145700000D01*
X156168108Y-145150810D01*
X155138378Y-145150810D01*
X155138378Y-144910540D01*
X155130065Y-144756704D01*
X155078737Y-144688338D01*
X154944810Y-144670807D01*
X154863784Y-144670270D01*
X154589189Y-144670270D01*
X154589189Y-144121081D01*
X152049189Y-144121081D01*
X152049189Y-145150810D01*
X151500000Y-145150810D01*
X151500000Y-146180540D01*
X150470270Y-146180540D01*
X150470270Y-146729729D01*
X146900540Y-146729729D01*
X146900540Y-145700000D01*
X147140811Y-145700000D01*
X147294647Y-145691687D01*
X147363013Y-145640358D01*
X147380544Y-145506431D01*
X147381081Y-145425405D01*
X147373807Y-145249592D01*
X147328895Y-145171459D01*
X147211709Y-145151424D01*
X147140811Y-145150810D01*
X146979774Y-145140183D01*
X146913732Y-145080227D01*
X146900570Y-144928828D01*
X146900540Y-144910540D01*
X146900540Y-144670270D01*
X147930270Y-144670270D01*
X147930270Y-144121081D01*
X148960000Y-144121081D01*
X148960000Y-143091351D01*
X148685405Y-143091351D01*
X148509592Y-143084077D01*
X148431460Y-143039165D01*
X148411425Y-142921979D01*
X148410811Y-142851081D01*
X148410811Y-142610810D01*
X147381081Y-142610810D01*
X147381081Y-142336216D01*
X147373807Y-142160403D01*
X147328895Y-142082270D01*
X147211709Y-142062235D01*
X147140811Y-142061621D01*
X146979774Y-142050994D01*
X146913732Y-141991038D01*
X146900570Y-141839639D01*
X146900540Y-141821351D01*
X146892227Y-141667514D01*
X146840899Y-141599149D01*
X146706972Y-141581618D01*
X146625946Y-141581081D01*
X146351351Y-141581081D01*
X146351351Y-141306486D01*
X146344077Y-141130673D01*
X146299165Y-141052540D01*
X146181979Y-141032506D01*
X146111081Y-141031891D01*
X145950044Y-141021265D01*
X145884002Y-140961308D01*
X145870841Y-140809909D01*
X145870811Y-140791621D01*
X145862498Y-140637785D01*
X145811169Y-140569419D01*
X145677242Y-140551888D01*
X145596216Y-140551351D01*
X145321622Y-140551351D01*
X145321622Y-140276756D01*
X145314348Y-140100943D01*
X145269435Y-140022811D01*
X145152249Y-140002776D01*
X145081351Y-140002162D01*
X144920315Y-139991535D01*
X144854272Y-139931578D01*
X144841111Y-139780180D01*
X144841081Y-139761891D01*
X144832768Y-139608055D01*
X144781440Y-139539689D01*
X144647513Y-139522158D01*
X144566486Y-139521621D01*
X144291892Y-139521621D01*
X144291892Y-138491891D01*
X144841081Y-138491891D01*
X144841081Y-139521621D01*
X145870811Y-139521621D01*
X145870811Y-139761891D01*
X145881438Y-139922928D01*
X145941394Y-139988971D01*
X146092793Y-140002132D01*
X146111081Y-140002162D01*
X146264918Y-140010475D01*
X146333283Y-140061803D01*
X146350814Y-140195730D01*
X146351351Y-140276756D01*
X146351351Y-140551351D01*
X147381081Y-140551351D01*
X147381081Y-141031891D01*
X148410811Y-141031891D01*
X148410811Y-141581081D01*
X152049189Y-141581081D01*
X152049189Y-141031891D01*
X153559459Y-141031891D01*
X153559459Y-140551351D01*
X154589189Y-140551351D01*
X154589189Y-140002162D01*
X154863784Y-140002162D01*
X155039597Y-139994888D01*
X155117729Y-139949976D01*
X155137764Y-139832790D01*
X155138378Y-139761891D01*
X155149005Y-139600855D01*
X155208962Y-139534812D01*
X155360360Y-139521651D01*
X155378649Y-139521621D01*
X155618919Y-139521621D01*
X155618919Y-138972432D01*
X158708108Y-138972432D01*
X158708108Y-139521621D01*
X158982703Y-139521621D01*
X159158516Y-139528895D01*
X159236648Y-139573807D01*
X159256683Y-139690993D01*
X159257297Y-139761891D01*
X159257297Y-140002162D01*
X161316757Y-140002162D01*
X161316757Y-139761891D01*
X161327384Y-139600855D01*
X161387340Y-139534812D01*
X161538739Y-139521651D01*
X161557027Y-139521621D01*
X161797297Y-139521621D01*
X161797297Y-137462162D01*
X161557027Y-137462162D01*
X161403190Y-137453849D01*
X161334825Y-137402520D01*
X161317294Y-137268593D01*
X161316757Y-137187567D01*
X161316757Y-136912973D01*
X159737838Y-136912973D01*
X159737838Y-137942702D01*
X159257297Y-137942702D01*
X159257297Y-138972432D01*
X158708108Y-138972432D01*
X155618919Y-138972432D01*
X155618919Y-138491891D01*
X156168108Y-138491891D01*
X156168108Y-137462162D01*
X156648649Y-137462162D01*
X156648649Y-133343243D01*
X156408378Y-133343243D01*
X156254542Y-133334930D01*
X156186176Y-133283602D01*
X156168645Y-133149675D01*
X156168108Y-133068648D01*
X156168108Y-132794054D01*
X155618919Y-132794054D01*
X155618919Y-133068648D01*
X155611645Y-133244461D01*
X155566733Y-133322594D01*
X155449547Y-133342629D01*
X155378649Y-133343243D01*
X155217612Y-133353870D01*
X155151569Y-133413826D01*
X155138408Y-133565225D01*
X155138378Y-133583513D01*
X155138378Y-133823783D01*
X154108649Y-133823783D01*
X154108649Y-133583513D01*
X154100335Y-133429677D01*
X154049007Y-133361311D01*
X153915080Y-133343780D01*
X153834054Y-133343243D01*
X153559459Y-133343243D01*
X153559459Y-133068648D01*
X154108649Y-133068648D01*
X154108649Y-133343243D01*
X155138378Y-133343243D01*
X155138378Y-132313513D01*
X154863784Y-132313513D01*
X154687970Y-132320787D01*
X154609838Y-132365699D01*
X154589803Y-132482885D01*
X154589189Y-132553783D01*
X154578562Y-132714820D01*
X154518606Y-132780863D01*
X154367207Y-132794024D01*
X154348919Y-132794054D01*
X154195082Y-132802367D01*
X154126716Y-132853695D01*
X154109186Y-132987622D01*
X154108649Y-133068648D01*
X153559459Y-133068648D01*
X153559459Y-132794054D01*
X154108649Y-132794054D01*
X154108649Y-131764324D01*
X154589189Y-131764324D01*
X154589189Y-131009189D01*
X160287027Y-131009189D01*
X160294301Y-131185002D01*
X160339213Y-131263134D01*
X160456399Y-131283169D01*
X160527297Y-131283783D01*
X160681134Y-131275470D01*
X160749500Y-131224142D01*
X160767030Y-131090215D01*
X160767567Y-131009189D01*
X160767567Y-130734594D01*
X162346486Y-130734594D01*
X162346486Y-130254054D01*
X163376216Y-130254054D01*
X163376216Y-129704864D01*
X164886486Y-129704864D01*
X164886486Y-129464594D01*
X164894799Y-129310758D01*
X164946128Y-129242392D01*
X165080055Y-129224861D01*
X165161081Y-129224324D01*
X165435676Y-129224324D01*
X165435676Y-128949729D01*
X165442950Y-128773916D01*
X165487862Y-128695784D01*
X165605048Y-128675749D01*
X165675946Y-128675135D01*
X165836983Y-128664508D01*
X165903025Y-128604551D01*
X165916186Y-128453153D01*
X165916216Y-128434864D01*
X165916216Y-128194594D01*
X164405946Y-128194594D01*
X164405946Y-127645405D01*
X163856757Y-127645405D01*
X163856757Y-128194594D01*
X162827027Y-128194594D01*
X162827027Y-128675135D01*
X161797297Y-128675135D01*
X161797297Y-128949729D01*
X161790023Y-129125543D01*
X161745111Y-129203675D01*
X161627925Y-129223710D01*
X161557027Y-129224324D01*
X161395990Y-129234951D01*
X161329948Y-129294907D01*
X161316787Y-129446306D01*
X161316757Y-129464594D01*
X161327384Y-129625631D01*
X161387340Y-129691673D01*
X161538739Y-129704835D01*
X161557027Y-129704864D01*
X161710864Y-129713178D01*
X161779229Y-129764506D01*
X161796760Y-129898433D01*
X161797297Y-129979459D01*
X161797297Y-130254054D01*
X160767567Y-130254054D01*
X160767567Y-130494324D01*
X160756941Y-130655361D01*
X160696984Y-130721403D01*
X160545585Y-130734564D01*
X160527297Y-130734594D01*
X160373461Y-130742907D01*
X160305095Y-130794235D01*
X160287564Y-130928162D01*
X160287027Y-131009189D01*
X154589189Y-131009189D01*
X154589189Y-129704864D01*
X153559459Y-129704864D01*
X153559459Y-128675135D01*
G37*
X153559459Y-128675135D02*
X153319189Y-128675135D01*
X153158152Y-128664508D01*
X153092110Y-128604551D01*
X153078949Y-128453153D01*
X153078919Y-128434864D01*
X153089546Y-128273828D01*
X153149502Y-128207785D01*
X153300901Y-128194624D01*
X153319189Y-128194594D01*
X153473026Y-128186281D01*
X153541391Y-128134953D01*
X153558922Y-128001026D01*
X153559459Y-127920000D01*
X153559459Y-127645405D01*
X154108649Y-127645405D01*
X154108649Y-126615675D01*
X154589189Y-126615675D01*
X154589189Y-125585946D01*
X155138378Y-125585946D01*
X155138378Y-123526486D01*
X155618919Y-123526486D01*
X155618919Y-124556216D01*
X156168108Y-124556216D01*
X156168108Y-125105405D01*
X157197838Y-125105405D01*
X157197838Y-125345675D01*
X157208465Y-125506712D01*
X157268421Y-125572754D01*
X157419820Y-125585916D01*
X157438108Y-125585946D01*
X157599145Y-125575319D01*
X157665187Y-125515362D01*
X157678348Y-125363963D01*
X157678378Y-125345675D01*
X157678378Y-125105405D01*
X158708108Y-125105405D01*
X158708108Y-124556216D01*
X158982703Y-124556216D01*
X159158516Y-124548942D01*
X159236648Y-124504030D01*
X159256683Y-124386844D01*
X159257297Y-124315946D01*
X159267924Y-124154909D01*
X159327880Y-124088866D01*
X159479279Y-124075705D01*
X159497567Y-124075675D01*
X159651404Y-124067362D01*
X159719770Y-124016034D01*
X159737300Y-123882107D01*
X159737838Y-123801081D01*
X159737838Y-123526486D01*
X160287027Y-123526486D01*
X160287027Y-122496756D01*
X160527297Y-122496756D01*
X160688334Y-122486129D01*
X160754376Y-122426173D01*
X160767538Y-122274774D01*
X160767567Y-122256486D01*
X160756941Y-122095449D01*
X160696984Y-122029407D01*
X160545585Y-122016246D01*
X160527297Y-122016216D01*
X160373461Y-122007903D01*
X160305095Y-121956574D01*
X160287564Y-121822648D01*
X160287027Y-121741621D01*
X160294301Y-121565808D01*
X160339213Y-121487676D01*
X160456399Y-121467641D01*
X160527297Y-121467027D01*
X160688334Y-121456400D01*
X160754376Y-121396443D01*
X160767538Y-121245044D01*
X160767567Y-121226756D01*
X160775881Y-121072920D01*
X160827209Y-121004554D01*
X160961136Y-120987023D01*
X161042162Y-120986486D01*
X161316757Y-120986486D01*
X161316757Y-120711891D01*
X161324031Y-120536078D01*
X161368943Y-120457946D01*
X161486129Y-120437911D01*
X161557027Y-120437297D01*
X161718064Y-120426670D01*
X161784106Y-120366714D01*
X161797267Y-120215315D01*
X161797297Y-120197027D01*
X161786670Y-120035990D01*
X161726714Y-119969947D01*
X161575315Y-119956786D01*
X161557027Y-119956756D01*
X161395990Y-119967383D01*
X161329948Y-120027340D01*
X161316787Y-120178738D01*
X161316757Y-120197027D01*
X161316757Y-120437297D01*
X160287027Y-120437297D01*
X160287027Y-120986486D01*
X159257297Y-120986486D01*
X159257297Y-121226756D01*
X159248984Y-121380593D01*
X159197656Y-121448959D01*
X159063729Y-121466489D01*
X158982703Y-121467027D01*
X158708108Y-121467027D01*
X158708108Y-122016216D01*
X157678378Y-122016216D01*
X157678378Y-122256486D01*
X157667751Y-122417523D01*
X157607795Y-122483565D01*
X157456396Y-122496726D01*
X157438108Y-122496756D01*
X157284271Y-122505069D01*
X157215906Y-122556398D01*
X157198375Y-122690325D01*
X157197838Y-122771351D01*
X157197838Y-123045946D01*
X156168108Y-123045946D01*
X156168108Y-123286216D01*
X156159795Y-123440052D01*
X156108467Y-123508418D01*
X155974540Y-123525949D01*
X155893513Y-123526486D01*
X155618919Y-123526486D01*
X155138378Y-123526486D01*
X155138378Y-122496756D01*
X154589189Y-122496756D01*
X154589189Y-122771351D01*
X154581915Y-122947164D01*
X154537003Y-123025297D01*
X154419817Y-123045331D01*
X154348919Y-123045946D01*
X154187882Y-123056572D01*
X154121840Y-123116529D01*
X154108678Y-123267928D01*
X154108649Y-123286216D01*
X154108649Y-123526486D01*
X153078919Y-123526486D01*
X153078919Y-120986486D01*
X152804324Y-120986486D01*
X152628511Y-120993760D01*
X152550379Y-121038672D01*
X152530344Y-121155858D01*
X152529730Y-121226756D01*
X152519103Y-121387793D01*
X152459146Y-121453835D01*
X152307747Y-121466997D01*
X152289459Y-121467027D01*
X152135623Y-121475340D01*
X152067257Y-121526668D01*
X152049726Y-121660595D01*
X152049189Y-121741621D01*
X152049189Y-122016216D01*
X151500000Y-122016216D01*
X151500000Y-121467027D01*
X151774595Y-121467027D01*
X151950408Y-121459753D01*
X152028540Y-121414840D01*
X152048575Y-121297654D01*
X152049189Y-121226756D01*
X152059816Y-121065720D01*
X152119772Y-120999677D01*
X152271171Y-120986516D01*
X152289459Y-120986486D01*
X152443296Y-120978173D01*
X152511662Y-120926845D01*
X152529192Y-120792918D01*
X152529730Y-120711891D01*
X152529730Y-120437297D01*
X153559459Y-120437297D01*
X153559459Y-123045946D01*
X154108649Y-123045946D01*
X154108649Y-122771351D01*
X154115922Y-122595538D01*
X154160835Y-122517405D01*
X154278021Y-122497370D01*
X154348919Y-122496756D01*
X154509956Y-122486129D01*
X154575998Y-122426173D01*
X154589159Y-122274774D01*
X154589189Y-122256486D01*
X154589189Y-122016216D01*
X155618919Y-122016216D01*
X155618919Y-123045946D01*
X156168108Y-123045946D01*
X156168108Y-122771351D01*
X156175382Y-122595538D01*
X156220294Y-122517405D01*
X156337480Y-122497370D01*
X156408378Y-122496756D01*
X156569415Y-122486129D01*
X156635457Y-122426173D01*
X156648619Y-122274774D01*
X156648649Y-122256486D01*
X156648649Y-122016216D01*
X157678378Y-122016216D01*
X157678378Y-121467027D01*
X158708108Y-121467027D01*
X158708108Y-121226756D01*
X158716421Y-121072920D01*
X158767749Y-121004554D01*
X158901676Y-120987023D01*
X158982703Y-120986486D01*
X159257297Y-120986486D01*
X159257297Y-120437297D01*
X160287027Y-120437297D01*
X160287027Y-120197027D01*
X160297654Y-120035990D01*
X160357610Y-119969947D01*
X160509009Y-119956786D01*
X160527297Y-119956756D01*
X160681134Y-119948443D01*
X160749500Y-119897115D01*
X160767030Y-119763188D01*
X160767567Y-119682162D01*
X160767567Y-119407567D01*
X162346486Y-119407567D01*
X162346486Y-122016216D01*
X161797297Y-122016216D01*
X161797297Y-123526486D01*
X161316757Y-123526486D01*
X161316757Y-125585946D01*
X160767567Y-125585946D01*
X160767567Y-127164864D01*
X160287027Y-127164864D01*
X160287027Y-128675135D01*
X161316757Y-128675135D01*
X161316757Y-128194594D01*
X162827027Y-128194594D01*
X162827027Y-127645405D01*
X163856757Y-127645405D01*
X163856757Y-127164864D01*
X164886486Y-127164864D01*
X164886486Y-127645405D01*
X166465405Y-127645405D01*
X166465405Y-128675135D01*
X165916216Y-128675135D01*
X165916216Y-129224324D01*
X166465405Y-129224324D01*
X166465405Y-130254054D01*
X165435676Y-130254054D01*
X165435676Y-130494324D01*
X165427363Y-130648160D01*
X165376034Y-130716526D01*
X165242107Y-130734057D01*
X165161081Y-130734594D01*
X164886486Y-130734594D01*
X164886486Y-131009189D01*
X164879212Y-131185002D01*
X164834300Y-131263134D01*
X164717114Y-131283169D01*
X164646216Y-131283783D01*
X164405946Y-131283783D01*
X164405946Y-132313513D01*
X164131351Y-132313513D01*
X163955538Y-132320787D01*
X163877406Y-132365699D01*
X163857371Y-132482885D01*
X163856757Y-132553783D01*
X163846130Y-132714820D01*
X163786173Y-132780863D01*
X163634775Y-132794024D01*
X163616486Y-132794054D01*
X163462650Y-132802367D01*
X163394284Y-132853695D01*
X163376753Y-132987622D01*
X163376216Y-133068648D01*
X163376216Y-133343243D01*
X163101622Y-133343243D01*
X162925808Y-133350517D01*
X162847676Y-133395429D01*
X162827641Y-133512615D01*
X162827027Y-133583513D01*
X162816400Y-133744550D01*
X162756444Y-133810592D01*
X162605045Y-133823753D01*
X162586757Y-133823783D01*
X162432920Y-133832096D01*
X162364554Y-133883425D01*
X162347024Y-134017352D01*
X162346486Y-134098378D01*
X162346486Y-134372973D01*
X161797297Y-134372973D01*
X161797297Y-136432432D01*
X162827027Y-136432432D01*
X162827027Y-136672702D01*
X162835340Y-136826539D01*
X162886668Y-136894905D01*
X163020595Y-136912435D01*
X163101622Y-136912973D01*
X163376216Y-136912973D01*
X163376216Y-137942702D01*
X163856757Y-137942702D01*
X163856757Y-140002162D01*
X164405946Y-140002162D01*
X164405946Y-140276756D01*
X164413220Y-140452570D01*
X164458132Y-140530702D01*
X164575318Y-140550737D01*
X164646216Y-140551351D01*
X164886486Y-140551351D01*
X164886486Y-141581081D01*
X164646216Y-141581081D01*
X164485179Y-141591708D01*
X164419137Y-141651664D01*
X164405976Y-141803063D01*
X164405946Y-141821351D01*
X164397633Y-141975188D01*
X164346305Y-142043553D01*
X164212378Y-142061084D01*
X164131351Y-142061621D01*
X163856757Y-142061621D01*
X163856757Y-142610810D01*
X162827027Y-142610810D01*
X162827027Y-143091351D01*
X161797297Y-143091351D01*
X161797297Y-143640540D01*
X160287027Y-143640540D01*
X160287027Y-143091351D01*
X160012432Y-143091351D01*
X159836619Y-143084077D01*
X159758487Y-143039165D01*
X159738452Y-142921979D01*
X159737838Y-142851081D01*
X159737838Y-142610810D01*
X158227567Y-142610810D01*
X158227567Y-144121081D01*
X158467838Y-144121081D01*
X158621674Y-144129394D01*
X158690040Y-144180722D01*
X158707571Y-144314649D01*
X158708108Y-144395675D01*
X158708108Y-144670270D01*
X158982703Y-144670270D01*
X159158516Y-144677544D01*
X159236648Y-144722456D01*
X159256683Y-144839642D01*
X159257297Y-144910540D01*
X159248984Y-145064377D01*
X159197656Y-145132743D01*
X159063729Y-145150273D01*
X158982703Y-145150810D01*
X158708108Y-145150810D01*
X158708108Y-145700000D01*
X156168108Y-145700000D01*
X156168108Y-145150810D01*
X155138378Y-145150810D01*
X155138378Y-144910540D01*
X155130065Y-144756704D01*
X155078737Y-144688338D01*
X154944810Y-144670807D01*
X154863784Y-144670270D01*
X154589189Y-144670270D01*
X154589189Y-144121081D01*
X152049189Y-144121081D01*
X152049189Y-145150810D01*
X151500000Y-145150810D01*
X151500000Y-146180540D01*
X150470270Y-146180540D01*
X150470270Y-146729729D01*
X146900540Y-146729729D01*
X146900540Y-145700000D01*
X147140811Y-145700000D01*
X147294647Y-145691687D01*
X147363013Y-145640358D01*
X147380544Y-145506431D01*
X147381081Y-145425405D01*
X147373807Y-145249592D01*
X147328895Y-145171459D01*
X147211709Y-145151424D01*
X147140811Y-145150810D01*
X146979774Y-145140183D01*
X146913732Y-145080227D01*
X146900570Y-144928828D01*
X146900540Y-144910540D01*
X146900540Y-144670270D01*
X147930270Y-144670270D01*
X147930270Y-144121081D01*
X148960000Y-144121081D01*
X148960000Y-143091351D01*
X148685405Y-143091351D01*
X148509592Y-143084077D01*
X148431460Y-143039165D01*
X148411425Y-142921979D01*
X148410811Y-142851081D01*
X148410811Y-142610810D01*
X147381081Y-142610810D01*
X147381081Y-142336216D01*
X147373807Y-142160403D01*
X147328895Y-142082270D01*
X147211709Y-142062235D01*
X147140811Y-142061621D01*
X146979774Y-142050994D01*
X146913732Y-141991038D01*
X146900570Y-141839639D01*
X146900540Y-141821351D01*
X146892227Y-141667514D01*
X146840899Y-141599149D01*
X146706972Y-141581618D01*
X146625946Y-141581081D01*
X146351351Y-141581081D01*
X146351351Y-141306486D01*
X146344077Y-141130673D01*
X146299165Y-141052540D01*
X146181979Y-141032506D01*
X146111081Y-141031891D01*
X145950044Y-141021265D01*
X145884002Y-140961308D01*
X145870841Y-140809909D01*
X145870811Y-140791621D01*
X145862498Y-140637785D01*
X145811169Y-140569419D01*
X145677242Y-140551888D01*
X145596216Y-140551351D01*
X145321622Y-140551351D01*
X145321622Y-140276756D01*
X145314348Y-140100943D01*
X145269435Y-140022811D01*
X145152249Y-140002776D01*
X145081351Y-140002162D01*
X144920315Y-139991535D01*
X144854272Y-139931578D01*
X144841111Y-139780180D01*
X144841081Y-139761891D01*
X144832768Y-139608055D01*
X144781440Y-139539689D01*
X144647513Y-139522158D01*
X144566486Y-139521621D01*
X144291892Y-139521621D01*
X144291892Y-138491891D01*
X144841081Y-138491891D01*
X144841081Y-139521621D01*
X145870811Y-139521621D01*
X145870811Y-139761891D01*
X145881438Y-139922928D01*
X145941394Y-139988971D01*
X146092793Y-140002132D01*
X146111081Y-140002162D01*
X146264918Y-140010475D01*
X146333283Y-140061803D01*
X146350814Y-140195730D01*
X146351351Y-140276756D01*
X146351351Y-140551351D01*
X147381081Y-140551351D01*
X147381081Y-141031891D01*
X148410811Y-141031891D01*
X148410811Y-141581081D01*
X152049189Y-141581081D01*
X152049189Y-141031891D01*
X153559459Y-141031891D01*
X153559459Y-140551351D01*
X154589189Y-140551351D01*
X154589189Y-140002162D01*
X154863784Y-140002162D01*
X155039597Y-139994888D01*
X155117729Y-139949976D01*
X155137764Y-139832790D01*
X155138378Y-139761891D01*
X155149005Y-139600855D01*
X155208962Y-139534812D01*
X155360360Y-139521651D01*
X155378649Y-139521621D01*
X155618919Y-139521621D01*
X155618919Y-138972432D01*
X158708108Y-138972432D01*
X158708108Y-139521621D01*
X158982703Y-139521621D01*
X159158516Y-139528895D01*
X159236648Y-139573807D01*
X159256683Y-139690993D01*
X159257297Y-139761891D01*
X159257297Y-140002162D01*
X161316757Y-140002162D01*
X161316757Y-139761891D01*
X161327384Y-139600855D01*
X161387340Y-139534812D01*
X161538739Y-139521651D01*
X161557027Y-139521621D01*
X161797297Y-139521621D01*
X161797297Y-137462162D01*
X161557027Y-137462162D01*
X161403190Y-137453849D01*
X161334825Y-137402520D01*
X161317294Y-137268593D01*
X161316757Y-137187567D01*
X161316757Y-136912973D01*
X159737838Y-136912973D01*
X159737838Y-137942702D01*
X159257297Y-137942702D01*
X159257297Y-138972432D01*
X158708108Y-138972432D01*
X155618919Y-138972432D01*
X155618919Y-138491891D01*
X156168108Y-138491891D01*
X156168108Y-137462162D01*
X156648649Y-137462162D01*
X156648649Y-133343243D01*
X156408378Y-133343243D01*
X156254542Y-133334930D01*
X156186176Y-133283602D01*
X156168645Y-133149675D01*
X156168108Y-133068648D01*
X156168108Y-132794054D01*
X155618919Y-132794054D01*
X155618919Y-133068648D01*
X155611645Y-133244461D01*
X155566733Y-133322594D01*
X155449547Y-133342629D01*
X155378649Y-133343243D01*
X155217612Y-133353870D01*
X155151569Y-133413826D01*
X155138408Y-133565225D01*
X155138378Y-133583513D01*
X155138378Y-133823783D01*
X154108649Y-133823783D01*
X154108649Y-133583513D01*
X154100335Y-133429677D01*
X154049007Y-133361311D01*
X153915080Y-133343780D01*
X153834054Y-133343243D01*
X153559459Y-133343243D01*
X153559459Y-133068648D01*
X154108649Y-133068648D01*
X154108649Y-133343243D01*
X155138378Y-133343243D01*
X155138378Y-132313513D01*
X154863784Y-132313513D01*
X154687970Y-132320787D01*
X154609838Y-132365699D01*
X154589803Y-132482885D01*
X154589189Y-132553783D01*
X154578562Y-132714820D01*
X154518606Y-132780863D01*
X154367207Y-132794024D01*
X154348919Y-132794054D01*
X154195082Y-132802367D01*
X154126716Y-132853695D01*
X154109186Y-132987622D01*
X154108649Y-133068648D01*
X153559459Y-133068648D01*
X153559459Y-132794054D01*
X154108649Y-132794054D01*
X154108649Y-131764324D01*
X154589189Y-131764324D01*
X154589189Y-131009189D01*
X160287027Y-131009189D01*
X160294301Y-131185002D01*
X160339213Y-131263134D01*
X160456399Y-131283169D01*
X160527297Y-131283783D01*
X160681134Y-131275470D01*
X160749500Y-131224142D01*
X160767030Y-131090215D01*
X160767567Y-131009189D01*
X160767567Y-130734594D01*
X162346486Y-130734594D01*
X162346486Y-130254054D01*
X163376216Y-130254054D01*
X163376216Y-129704864D01*
X164886486Y-129704864D01*
X164886486Y-129464594D01*
X164894799Y-129310758D01*
X164946128Y-129242392D01*
X165080055Y-129224861D01*
X165161081Y-129224324D01*
X165435676Y-129224324D01*
X165435676Y-128949729D01*
X165442950Y-128773916D01*
X165487862Y-128695784D01*
X165605048Y-128675749D01*
X165675946Y-128675135D01*
X165836983Y-128664508D01*
X165903025Y-128604551D01*
X165916186Y-128453153D01*
X165916216Y-128434864D01*
X165916216Y-128194594D01*
X164405946Y-128194594D01*
X164405946Y-127645405D01*
X163856757Y-127645405D01*
X163856757Y-128194594D01*
X162827027Y-128194594D01*
X162827027Y-128675135D01*
X161797297Y-128675135D01*
X161797297Y-128949729D01*
X161790023Y-129125543D01*
X161745111Y-129203675D01*
X161627925Y-129223710D01*
X161557027Y-129224324D01*
X161395990Y-129234951D01*
X161329948Y-129294907D01*
X161316787Y-129446306D01*
X161316757Y-129464594D01*
X161327384Y-129625631D01*
X161387340Y-129691673D01*
X161538739Y-129704835D01*
X161557027Y-129704864D01*
X161710864Y-129713178D01*
X161779229Y-129764506D01*
X161796760Y-129898433D01*
X161797297Y-129979459D01*
X161797297Y-130254054D01*
X160767567Y-130254054D01*
X160767567Y-130494324D01*
X160756941Y-130655361D01*
X160696984Y-130721403D01*
X160545585Y-130734564D01*
X160527297Y-130734594D01*
X160373461Y-130742907D01*
X160305095Y-130794235D01*
X160287564Y-130928162D01*
X160287027Y-131009189D01*
X154589189Y-131009189D01*
X154589189Y-129704864D01*
X153559459Y-129704864D01*
X153559459Y-128675135D01*
D11*
%TO.C,J1*%
X107499000Y-84501000D02*
X125500000Y-84501000D01*
X107499000Y-142001000D02*
X107499000Y-84501000D01*
X125500000Y-141999000D02*
X107499000Y-142001000D01*
X125500000Y-84501000D02*
X125500000Y-141999000D01*
D12*
%TO.C,R20*%
X175022500Y-100762742D02*
X175022500Y-101237258D01*
X173977500Y-100762742D02*
X173977500Y-101237258D01*
%TO.C,U2*%
X148090000Y-111080000D02*
X148090000Y-113315000D01*
X148090000Y-113315000D02*
X168530000Y-113315000D01*
X168530000Y-113315000D02*
X168530000Y-106845000D01*
X168530000Y-106845000D02*
X148090000Y-106845000D01*
X148090000Y-106845000D02*
X148090000Y-109080000D01*
X148090000Y-109080000D02*
G75*
G02*
X148090000Y-111080000I0J-1000000D01*
G01*
%TO.C,A1*%
X131560000Y-79860000D02*
X131560000Y-97900000D01*
X175000000Y-79860000D02*
X131560000Y-79860000D01*
X175000000Y-97900000D02*
X175000000Y-79860000D01*
X172330000Y-95230000D02*
X172330000Y-97900000D01*
X136770000Y-95230000D02*
X172330000Y-95230000D01*
X136770000Y-95230000D02*
X136770000Y-97900000D01*
X172330000Y-82530000D02*
X172330000Y-79860000D01*
X134230000Y-82530000D02*
X172330000Y-82530000D01*
X134230000Y-82530000D02*
X134230000Y-79860000D01*
X131560000Y-97900000D02*
X134230000Y-97900000D01*
X136770000Y-97900000D02*
X175000000Y-97900000D01*
X134230000Y-95230000D02*
X134230000Y-97900000D01*
X136770000Y-95230000D02*
X134230000Y-95230000D01*
%TO.C,R17*%
X128762742Y-86522500D02*
X129237258Y-86522500D01*
X128762742Y-85477500D02*
X129237258Y-85477500D01*
%TO.C,R18*%
X128762742Y-82477500D02*
X129237258Y-82477500D01*
X128762742Y-83522500D02*
X129237258Y-83522500D01*
%TO.C,R19*%
X129237258Y-83977500D02*
X128762742Y-83977500D01*
X129237258Y-85022500D02*
X128762742Y-85022500D01*
%TO.C,U1*%
X174170000Y-119685000D02*
X174170000Y-121920000D01*
X194610000Y-119685000D02*
X174170000Y-119685000D01*
X194610000Y-126155000D02*
X194610000Y-119685000D01*
X174170000Y-126155000D02*
X194610000Y-126155000D01*
X174170000Y-123920000D02*
X174170000Y-126155000D01*
X174170000Y-121920000D02*
G75*
G02*
X174170000Y-123920000I0J-1000000D01*
G01*
%TO.C,G\u002A\u002A\u002A*%
D13*
X140868285Y-120844285D02*
X140795714Y-120916857D01*
X140578000Y-120989428D01*
X140432857Y-120989428D01*
X140215142Y-120916857D01*
X140070000Y-120771714D01*
X139997428Y-120626571D01*
X139924857Y-120336285D01*
X139924857Y-120118571D01*
X139997428Y-119828285D01*
X140070000Y-119683142D01*
X140215142Y-119538000D01*
X140432857Y-119465428D01*
X140578000Y-119465428D01*
X140795714Y-119538000D01*
X140868285Y-119610571D01*
X142247142Y-120989428D02*
X141521428Y-120989428D01*
X141521428Y-119465428D01*
X143045428Y-119465428D02*
X143335714Y-119465428D01*
X143480857Y-119538000D01*
X143626000Y-119683142D01*
X143698571Y-119973428D01*
X143698571Y-120481428D01*
X143626000Y-120771714D01*
X143480857Y-120916857D01*
X143335714Y-120989428D01*
X143045428Y-120989428D01*
X142900285Y-120916857D01*
X142755142Y-120771714D01*
X142682571Y-120481428D01*
X142682571Y-119973428D01*
X142755142Y-119683142D01*
X142900285Y-119538000D01*
X143045428Y-119465428D01*
X144351714Y-119465428D02*
X144351714Y-120699142D01*
X144424285Y-120844285D01*
X144496857Y-120916857D01*
X144642000Y-120989428D01*
X144932285Y-120989428D01*
X145077428Y-120916857D01*
X145150000Y-120844285D01*
X145222571Y-120699142D01*
X145222571Y-119465428D01*
%TO.C,J1*%
D14*
X116086461Y-143079476D02*
X116086461Y-143972333D01*
X116026938Y-144150904D01*
X115907890Y-144269952D01*
X115729319Y-144329476D01*
X115610271Y-144329476D01*
X117336461Y-144329476D02*
X116622176Y-144329476D01*
X116979319Y-144329476D02*
X116979319Y-143079476D01*
X116860271Y-143258047D01*
X116741223Y-143377095D01*
X116622176Y-143436619D01*
%TO.C,R20*%
D15*
X176649142Y-101452380D02*
X176315809Y-100976190D01*
X176077714Y-101452380D02*
X176077714Y-100452380D01*
X176458666Y-100452380D01*
X176553904Y-100500000D01*
X176601523Y-100547619D01*
X176649142Y-100642857D01*
X176649142Y-100785714D01*
X176601523Y-100880952D01*
X176553904Y-100928571D01*
X176458666Y-100976190D01*
X176077714Y-100976190D01*
X177030095Y-100547619D02*
X177077714Y-100500000D01*
X177172952Y-100452380D01*
X177411047Y-100452380D01*
X177506285Y-100500000D01*
X177553904Y-100547619D01*
X177601523Y-100642857D01*
X177601523Y-100738095D01*
X177553904Y-100880952D01*
X176982476Y-101452380D01*
X177601523Y-101452380D01*
X178220571Y-100452380D02*
X178315809Y-100452380D01*
X178411047Y-100500000D01*
X178458666Y-100547619D01*
X178506285Y-100642857D01*
X178553904Y-100833333D01*
X178553904Y-101071428D01*
X178506285Y-101261904D01*
X178458666Y-101357142D01*
X178411047Y-101404761D01*
X178315809Y-101452380D01*
X178220571Y-101452380D01*
X178125333Y-101404761D01*
X178077714Y-101357142D01*
X178030095Y-101261904D01*
X177982476Y-101071428D01*
X177982476Y-100833333D01*
X178030095Y-100642857D01*
X178077714Y-100547619D01*
X178125333Y-100500000D01*
X178220571Y-100452380D01*
%TO.C,U2*%
X145288095Y-103592380D02*
X145288095Y-104401904D01*
X145335714Y-104497142D01*
X145383333Y-104544761D01*
X145478571Y-104592380D01*
X145669047Y-104592380D01*
X145764285Y-104544761D01*
X145811904Y-104497142D01*
X145859523Y-104401904D01*
X145859523Y-103592380D01*
X146288095Y-103687619D02*
X146335714Y-103640000D01*
X146430952Y-103592380D01*
X146669047Y-103592380D01*
X146764285Y-103640000D01*
X146811904Y-103687619D01*
X146859523Y-103782857D01*
X146859523Y-103878095D01*
X146811904Y-104020952D01*
X146240476Y-104592380D01*
X146859523Y-104592380D01*
%TO.C,A1*%
X132635714Y-78906666D02*
X133111904Y-78906666D01*
X132540476Y-79192380D02*
X132873809Y-78192380D01*
X133207142Y-79192380D01*
X134064285Y-79192380D02*
X133492857Y-79192380D01*
X133778571Y-79192380D02*
X133778571Y-78192380D01*
X133683333Y-78335238D01*
X133588095Y-78430476D01*
X133492857Y-78478095D01*
%TO.C,R17*%
X128897142Y-81732380D02*
X128563809Y-81256190D01*
X128325714Y-81732380D02*
X128325714Y-80732380D01*
X128706666Y-80732380D01*
X128801904Y-80780000D01*
X128849523Y-80827619D01*
X128897142Y-80922857D01*
X128897142Y-81065714D01*
X128849523Y-81160952D01*
X128801904Y-81208571D01*
X128706666Y-81256190D01*
X128325714Y-81256190D01*
X129849523Y-81732380D02*
X129278095Y-81732380D01*
X129563809Y-81732380D02*
X129563809Y-80732380D01*
X129468571Y-80875238D01*
X129373333Y-80970476D01*
X129278095Y-81018095D01*
X130182857Y-80732380D02*
X130849523Y-80732380D01*
X130420952Y-81732380D01*
%TO.C,R18*%
X128897142Y-78684380D02*
X128563809Y-78208190D01*
X128325714Y-78684380D02*
X128325714Y-77684380D01*
X128706666Y-77684380D01*
X128801904Y-77732000D01*
X128849523Y-77779619D01*
X128897142Y-77874857D01*
X128897142Y-78017714D01*
X128849523Y-78112952D01*
X128801904Y-78160571D01*
X128706666Y-78208190D01*
X128325714Y-78208190D01*
X129849523Y-78684380D02*
X129278095Y-78684380D01*
X129563809Y-78684380D02*
X129563809Y-77684380D01*
X129468571Y-77827238D01*
X129373333Y-77922476D01*
X129278095Y-77970095D01*
X130420952Y-78112952D02*
X130325714Y-78065333D01*
X130278095Y-78017714D01*
X130230476Y-77922476D01*
X130230476Y-77874857D01*
X130278095Y-77779619D01*
X130325714Y-77732000D01*
X130420952Y-77684380D01*
X130611428Y-77684380D01*
X130706666Y-77732000D01*
X130754285Y-77779619D01*
X130801904Y-77874857D01*
X130801904Y-77922476D01*
X130754285Y-78017714D01*
X130706666Y-78065333D01*
X130611428Y-78112952D01*
X130420952Y-78112952D01*
X130325714Y-78160571D01*
X130278095Y-78208190D01*
X130230476Y-78303428D01*
X130230476Y-78493904D01*
X130278095Y-78589142D01*
X130325714Y-78636761D01*
X130420952Y-78684380D01*
X130611428Y-78684380D01*
X130706666Y-78636761D01*
X130754285Y-78589142D01*
X130801904Y-78493904D01*
X130801904Y-78303428D01*
X130754285Y-78208190D01*
X130706666Y-78160571D01*
X130611428Y-78112952D01*
%TO.C,R19*%
X128897142Y-80208380D02*
X128563809Y-79732190D01*
X128325714Y-80208380D02*
X128325714Y-79208380D01*
X128706666Y-79208380D01*
X128801904Y-79256000D01*
X128849523Y-79303619D01*
X128897142Y-79398857D01*
X128897142Y-79541714D01*
X128849523Y-79636952D01*
X128801904Y-79684571D01*
X128706666Y-79732190D01*
X128325714Y-79732190D01*
X129849523Y-80208380D02*
X129278095Y-80208380D01*
X129563809Y-80208380D02*
X129563809Y-79208380D01*
X129468571Y-79351238D01*
X129373333Y-79446476D01*
X129278095Y-79494095D01*
X130325714Y-80208380D02*
X130516190Y-80208380D01*
X130611428Y-80160761D01*
X130659047Y-80113142D01*
X130754285Y-79970285D01*
X130801904Y-79779809D01*
X130801904Y-79398857D01*
X130754285Y-79303619D01*
X130706666Y-79256000D01*
X130611428Y-79208380D01*
X130420952Y-79208380D01*
X130325714Y-79256000D01*
X130278095Y-79303619D01*
X130230476Y-79398857D01*
X130230476Y-79636952D01*
X130278095Y-79732190D01*
X130325714Y-79779809D01*
X130420952Y-79827428D01*
X130611428Y-79827428D01*
X130706666Y-79779809D01*
X130754285Y-79732190D01*
X130801904Y-79636952D01*
%TO.C,U1*%
X174498095Y-113752380D02*
X174498095Y-114561904D01*
X174545714Y-114657142D01*
X174593333Y-114704761D01*
X174688571Y-114752380D01*
X174879047Y-114752380D01*
X174974285Y-114704761D01*
X175021904Y-114657142D01*
X175069523Y-114561904D01*
X175069523Y-113752380D01*
X176069523Y-114752380D02*
X175498095Y-114752380D01*
X175783809Y-114752380D02*
X175783809Y-113752380D01*
X175688571Y-113895238D01*
X175593333Y-113990476D01*
X175498095Y-114038095D01*
%TD*%
M02*
